%
M48
M72
T01C0.0197
T02C0.0236
T03C0.0260
T04C0.0276
T05C0.0315
T06C0.0320
T07C0.0394
T08C0.0400
T09C0.0472
T10C0.0591
T11C0.1102
%
T01
X4683Y9058
X6933Y14683
X8558Y15590
X9933Y15933
X13058Y13683
X14683Y14433
X14933Y11683
X23183Y8183
X23683Y8183
X24183Y8433
X25683Y7058
X30526Y8996
X31683Y8808
X31683Y6683
X34996Y10933
X35433Y11183
X34433Y11496
X34683Y11933
X35183Y12558
X35183Y13808
X29683Y17246
X28871Y17246
X30683Y18183
X31683Y19683
X32183Y20433
X32902Y19058
X33433Y19183
X32871Y18558
X33652Y18371
X35933Y18683
X36933Y22058
X28433Y13933
X21058Y18683
X17808Y17808
X15183Y18808
X11433Y19433
X11433Y20808
X20558Y22058
X21058Y22683
X20433Y23183
T02
X30183Y20933
X31183Y20683
X33933Y23683
X34433Y24183
X3683Y16058
T03
X11140Y12452
X11927Y12452
X12715Y12452
X13502Y12452
X14290Y12452
X15077Y12452
X15864Y12452
X16652Y12452
X17439Y12452
X18227Y12452
X18227Y3790
X17439Y3790
X16652Y3790
X15864Y3790
X15077Y3790
X14290Y3790
X13502Y3790
X12715Y3790
X11927Y3790
X11140Y3790
T04
X19183Y2183
X19183Y1183
X21433Y1183
X21433Y2183
X23933Y2183
X23933Y1183
X26433Y1183
X26433Y2183
X28933Y2183
X28933Y1183
X22683Y5183
X21683Y5183
T05
X20808Y13733
X20808Y15633
X17183Y18121
X16183Y18121
X15183Y18121
X14183Y18121
X8683Y14121
X7683Y14121
X7183Y18121
X8183Y18121
X6183Y18121
X4189Y4939
X3189Y4939
T06
X3167Y6680
X4683Y6683
X6246Y4683
X7433Y4683
X9183Y4933
X7183Y3246
X3183Y3246
X6246Y8683
X7433Y8683
X4683Y10683
X3167Y10680
X10183Y13683
X10183Y15183
X10183Y16746
X14183Y16746
X15933Y17183
X15933Y16183
X17371Y15058
X17371Y14058
X19178Y14183
X19178Y15183
X19178Y16183
X19308Y17496
X20308Y17496
X22683Y17183
X22683Y16183
X22683Y15183
X22683Y14183
X22683Y13183
X22683Y12183
X22683Y11183
X22683Y10183
X20683Y8683
X20683Y7683
X19433Y6183
X18183Y6183
X16933Y6183
X15683Y6183
X14433Y6183
X13183Y6183
X13183Y4933
X19933Y3433
X23933Y3433
X26933Y7183
X26933Y8183
X25683Y10183
X25683Y11183
X25683Y12183
X25683Y13183
X25683Y14183
X25683Y15183
X25683Y16183
X25683Y17183
X27058Y17183
X27058Y18183
X25683Y18183
X25683Y19183
X25683Y20183
X25683Y21183
X25683Y22183
X25683Y23183
X22683Y23183
X22683Y22183
X22683Y21183
X22683Y20183
X22683Y19183
X22683Y18183
X29246Y14433
X29246Y13433
X32683Y8933
X29933Y8183
X29933Y7183
X32683Y4933
X37183Y6183
X37183Y10183
X37183Y11183
X38433Y12433
X37183Y15183
X38433Y16433
X36683Y17183
X38433Y17996
X36683Y21183
X38433Y21996
X36433Y24433
X35433Y24433
X33246Y21121
X33246Y20121
X19178Y13183
X19433Y10183
X18183Y10183
X16933Y10183
X15683Y10183
X14433Y10183
X13183Y10183
X14183Y13683
X14183Y15183
X5433Y16682
X4433Y16682
T07
X35183Y8183
X35183Y7183
X35183Y6183
T08
X28683Y10183
X27683Y10183
X27683Y11183
X28683Y11183
X28683Y12183
X27683Y12183
X1446Y11683
X1446Y12683
X1446Y13683
X1446Y14683
X1446Y15683
X1446Y16683
T09
X1433Y2183
X1433Y3183
X1433Y8683
X1433Y9683
T10
X1433Y18371
X2433Y19371
X1433Y20371
X3433Y20371
X3433Y18371
T11
X1683Y23683
X1683Y5083
X38183Y5083
X38183Y23683
M30
