G75*
G70*
%OFA0B0*%
%FSLAX24Y24*%
%IPPOS*%
%LPD*%
%AMOC8*
5,1,8,0,0,1.08239X$1,22.5*
%
%ADD10C,0.0050*%
%ADD11C,0.0040*%
%ADD12C,0.0060*%
%ADD13C,0.0120*%
%ADD14C,0.0110*%
%ADD15C,0.0080*%
%ADD16C,0.0100*%
%ADD17R,0.0800X0.0200*%
%ADD18R,0.0200X0.0550*%
%ADD19R,0.0240X0.0340*%
%ADD20R,0.0340X0.0240*%
%ADD21C,0.0070*%
D10*
X002428Y002118D02*
X002383Y002164D01*
X002383Y002254D01*
X002428Y002299D01*
X002518Y002299D01*
X002564Y002254D01*
X002564Y002164D01*
X002518Y002118D01*
X002428Y002118D01*
X002564Y002409D02*
X002564Y002454D01*
X002473Y002544D01*
X002383Y002544D02*
X002564Y002544D01*
X002564Y002659D02*
X002338Y002659D01*
X002293Y002704D01*
X002293Y002749D01*
X002383Y002794D02*
X002383Y002659D01*
X002383Y002794D02*
X002428Y002839D01*
X002564Y002839D01*
X002609Y002953D02*
X002518Y002953D01*
X002473Y002998D01*
X002473Y003133D01*
X002383Y003133D02*
X002654Y003133D01*
X002654Y002998D01*
X002609Y002953D01*
X004208Y002514D02*
X004208Y002333D01*
X004208Y002468D02*
X004389Y002468D01*
X004389Y002514D02*
X004389Y002333D01*
X004503Y002333D02*
X004503Y002514D01*
X004593Y002514D02*
X004638Y002514D01*
X004593Y002514D02*
X004503Y002423D01*
X004389Y002514D02*
X004298Y002604D01*
X004208Y002514D01*
X004749Y002468D02*
X004749Y002378D01*
X004794Y002333D01*
X004929Y002333D01*
X004929Y002604D01*
X004929Y002514D02*
X004794Y002514D01*
X004749Y002468D01*
X005043Y002514D02*
X005043Y002378D01*
X005088Y002333D01*
X005223Y002333D01*
X005223Y002514D01*
X005338Y002514D02*
X005383Y002514D01*
X005383Y002333D01*
X005338Y002333D02*
X005428Y002333D01*
X005534Y002333D02*
X005534Y002514D01*
X005669Y002514D01*
X005714Y002468D01*
X005714Y002333D01*
X005829Y002378D02*
X005874Y002333D01*
X005964Y002333D01*
X006009Y002378D01*
X006009Y002468D01*
X005964Y002514D01*
X005874Y002514D01*
X005829Y002468D01*
X005829Y002378D01*
X006124Y002468D02*
X006304Y002468D01*
X006418Y002468D02*
X006418Y002378D01*
X006463Y002333D01*
X006598Y002333D01*
X006713Y002378D02*
X006758Y002333D01*
X006848Y002333D01*
X006893Y002378D01*
X006893Y002468D01*
X006848Y002514D01*
X006758Y002514D01*
X006713Y002468D01*
X006713Y002378D01*
X006598Y002514D02*
X006463Y002514D01*
X006418Y002468D01*
X007007Y002514D02*
X007007Y002333D01*
X007098Y002333D02*
X007098Y002468D01*
X007143Y002514D01*
X007188Y002468D01*
X007188Y002333D01*
X007302Y002333D02*
X007437Y002333D01*
X007482Y002378D01*
X007482Y002468D01*
X007437Y002514D01*
X007302Y002514D01*
X007302Y002243D01*
X007098Y002468D02*
X007052Y002514D01*
X007007Y002514D01*
X007597Y002378D02*
X007642Y002423D01*
X007777Y002423D01*
X007777Y002468D02*
X007777Y002333D01*
X007642Y002333D01*
X007597Y002378D01*
X007642Y002514D02*
X007732Y002514D01*
X007777Y002468D01*
X007891Y002514D02*
X007981Y002514D01*
X007936Y002559D02*
X007936Y002378D01*
X007981Y002333D01*
X008088Y002333D02*
X008178Y002333D01*
X008133Y002333D02*
X008133Y002514D01*
X008088Y002514D01*
X008133Y002604D02*
X008133Y002649D01*
X008284Y002604D02*
X008284Y002333D01*
X008419Y002333D01*
X008464Y002378D01*
X008464Y002468D01*
X008419Y002514D01*
X008284Y002514D01*
X008579Y002604D02*
X008624Y002604D01*
X008624Y002333D01*
X008579Y002333D02*
X008669Y002333D01*
X008775Y002378D02*
X008775Y002468D01*
X008820Y002514D01*
X008910Y002514D01*
X008955Y002468D01*
X008955Y002423D01*
X008775Y002423D01*
X008775Y002378D02*
X008820Y002333D01*
X008910Y002333D01*
X008909Y002034D02*
X008909Y001763D01*
X008909Y001853D02*
X009044Y001943D01*
X009155Y001898D02*
X009200Y001943D01*
X009290Y001943D01*
X009335Y001898D01*
X009335Y001853D01*
X009155Y001853D01*
X009155Y001808D02*
X009155Y001898D01*
X009155Y001808D02*
X009200Y001763D01*
X009290Y001763D01*
X009044Y001763D02*
X008909Y001853D01*
X008795Y001763D02*
X008795Y001943D01*
X008795Y001763D02*
X008660Y001763D01*
X008615Y001808D01*
X008615Y001943D01*
X008500Y001763D02*
X008320Y001763D01*
X008320Y002034D01*
X009365Y002333D02*
X009365Y002604D01*
X009455Y002514D01*
X009545Y002604D01*
X009545Y002333D01*
X009659Y002378D02*
X009659Y002468D01*
X009704Y002514D01*
X009794Y002514D01*
X009839Y002468D01*
X009839Y002378D01*
X009794Y002333D01*
X009704Y002333D01*
X009659Y002378D01*
X009954Y002333D02*
X010089Y002333D01*
X010134Y002378D01*
X010134Y002468D01*
X010089Y002514D01*
X009954Y002514D01*
X009954Y002604D02*
X009954Y002333D01*
X010249Y002333D02*
X010339Y002333D01*
X010294Y002333D02*
X010294Y002514D01*
X010249Y002514D01*
X010294Y002604D02*
X010294Y002649D01*
X010445Y002604D02*
X010490Y002604D01*
X010490Y002333D01*
X010445Y002333D02*
X010535Y002333D01*
X010641Y002378D02*
X010641Y002468D01*
X010686Y002514D01*
X010776Y002514D01*
X010821Y002468D01*
X010821Y002423D01*
X010641Y002423D01*
X010641Y002378D02*
X010686Y002333D01*
X010776Y002333D01*
X010673Y001989D02*
X010673Y001808D01*
X010718Y001763D01*
X010824Y001808D02*
X010824Y001898D01*
X010869Y001943D01*
X010959Y001943D01*
X011004Y001898D01*
X011004Y001808D01*
X010959Y001763D01*
X010869Y001763D01*
X010824Y001808D01*
X010718Y001943D02*
X010628Y001943D01*
X010513Y001943D02*
X010378Y001943D01*
X010333Y001898D01*
X010378Y001853D01*
X010468Y001853D01*
X010513Y001808D01*
X010468Y001763D01*
X010333Y001763D01*
X010219Y001853D02*
X010039Y001853D01*
X010039Y001808D02*
X010039Y001898D01*
X010084Y001943D01*
X010174Y001943D01*
X010219Y001898D01*
X010219Y001853D01*
X010174Y001763D02*
X010084Y001763D01*
X010039Y001808D01*
X009924Y001763D02*
X009924Y002034D01*
X009744Y002034D02*
X009744Y001763D01*
X009834Y001853D01*
X009924Y001763D01*
X011119Y001763D02*
X011119Y001943D01*
X011254Y001943D01*
X011299Y001898D01*
X011299Y001763D01*
X011414Y001673D02*
X011504Y001763D01*
X011459Y001763D01*
X011459Y001808D01*
X011504Y001808D01*
X011504Y001763D01*
X011905Y001763D02*
X012085Y001943D01*
X012085Y001989D01*
X012040Y002034D01*
X011950Y002034D01*
X011905Y001989D01*
X011905Y001763D02*
X012085Y001763D01*
X012199Y001808D02*
X012379Y001989D01*
X012379Y001808D01*
X012334Y001763D01*
X012244Y001763D01*
X012199Y001808D01*
X012199Y001989D01*
X012244Y002034D01*
X012334Y002034D01*
X012379Y001989D01*
X012494Y001943D02*
X012584Y002034D01*
X012584Y001763D01*
X012494Y001763D02*
X012674Y001763D01*
X012789Y001763D02*
X012969Y001943D01*
X012969Y001989D01*
X012924Y002034D01*
X012834Y002034D01*
X012789Y001989D01*
X012789Y001763D02*
X012969Y001763D01*
X012704Y002333D02*
X012704Y002514D01*
X012794Y002514D02*
X012704Y002423D01*
X012589Y002378D02*
X012589Y002468D01*
X012544Y002514D01*
X012454Y002514D01*
X012409Y002468D01*
X012409Y002378D01*
X012454Y002333D01*
X012544Y002333D01*
X012589Y002378D01*
X012794Y002514D02*
X012839Y002514D01*
X013244Y002604D02*
X013244Y002333D01*
X013379Y002333D01*
X013424Y002378D01*
X013424Y002559D01*
X013379Y002604D01*
X013244Y002604D01*
X013584Y002514D02*
X013674Y002514D01*
X013719Y002468D01*
X013719Y002333D01*
X013584Y002333D01*
X013539Y002378D01*
X013584Y002423D01*
X013719Y002423D01*
X013833Y002514D02*
X013923Y002514D01*
X013878Y002559D02*
X013878Y002378D01*
X013923Y002333D01*
X014030Y002378D02*
X014075Y002423D01*
X014210Y002423D01*
X014210Y002468D02*
X014210Y002333D01*
X014075Y002333D01*
X014030Y002378D01*
X014075Y002514D02*
X014165Y002514D01*
X014210Y002468D01*
X014324Y002333D02*
X014414Y002333D01*
X014369Y002333D02*
X014369Y002604D01*
X014324Y002604D01*
X014521Y002468D02*
X014521Y002378D01*
X014566Y002333D01*
X014656Y002333D01*
X014701Y002378D01*
X014701Y002468D01*
X014656Y002514D01*
X014566Y002514D01*
X014521Y002468D01*
X014815Y002468D02*
X014815Y002378D01*
X014860Y002333D01*
X014996Y002333D01*
X014996Y002288D02*
X014996Y002514D01*
X014860Y002514D01*
X014815Y002468D01*
X014906Y002243D02*
X014951Y002243D01*
X014996Y002288D01*
X015110Y002378D02*
X015155Y002333D01*
X015290Y002333D01*
X015290Y002288D02*
X015290Y002514D01*
X015155Y002514D01*
X015110Y002468D01*
X015110Y002378D01*
X015200Y002243D02*
X015245Y002243D01*
X015290Y002288D01*
X015405Y002333D02*
X015495Y002333D01*
X015450Y002333D02*
X015450Y002514D01*
X015405Y002514D01*
X015450Y002604D02*
X015450Y002649D01*
X015601Y002514D02*
X015601Y002333D01*
X015781Y002333D02*
X015781Y002468D01*
X015736Y002514D01*
X015601Y002514D01*
X015896Y002468D02*
X015896Y002378D01*
X015941Y002333D01*
X016076Y002333D01*
X016076Y002288D02*
X016076Y002514D01*
X015941Y002514D01*
X015896Y002468D01*
X015986Y002243D02*
X016031Y002243D01*
X016076Y002288D01*
X016485Y002333D02*
X016485Y002604D01*
X016620Y002604D01*
X016665Y002559D01*
X016665Y002468D01*
X016620Y002423D01*
X016485Y002423D01*
X016780Y002333D02*
X016870Y002333D01*
X016825Y002333D02*
X016825Y002604D01*
X016780Y002604D01*
X017021Y002514D02*
X017111Y002514D01*
X017156Y002468D01*
X017156Y002333D01*
X017021Y002333D01*
X016976Y002378D01*
X017021Y002423D01*
X017156Y002423D01*
X017271Y002514D02*
X017361Y002514D01*
X017316Y002559D02*
X017316Y002378D01*
X017361Y002333D01*
X017512Y002333D02*
X017512Y002559D01*
X017557Y002604D01*
X017557Y002468D02*
X017467Y002468D01*
X017664Y002468D02*
X017664Y002378D01*
X017709Y002333D01*
X017799Y002333D01*
X017844Y002378D01*
X017844Y002468D01*
X017799Y002514D01*
X017709Y002514D01*
X017664Y002468D01*
X017958Y002423D02*
X018048Y002514D01*
X018093Y002514D01*
X018204Y002514D02*
X018249Y002514D01*
X018294Y002468D01*
X018339Y002514D01*
X018384Y002468D01*
X018384Y002333D01*
X018294Y002333D02*
X018294Y002468D01*
X018204Y002514D02*
X018204Y002333D01*
X017958Y002333D02*
X017958Y002514D01*
X018764Y002364D02*
X018812Y002392D01*
X018861Y002416D01*
X018913Y002436D01*
X018965Y002453D01*
X019019Y002466D01*
X019073Y002475D01*
X019128Y002481D01*
X019183Y002483D01*
X018786Y002378D02*
X018738Y002348D01*
X018693Y002315D01*
X018650Y002279D01*
X018609Y002241D01*
X018572Y002199D01*
X018537Y002155D01*
X018506Y002109D01*
X018477Y002060D01*
X018453Y002010D01*
X018432Y001958D01*
X018414Y001904D01*
X018401Y001850D01*
X018391Y001795D01*
X018385Y001739D01*
X018383Y001683D01*
X019183Y002483D02*
X019239Y002481D01*
X019296Y002475D01*
X019351Y002465D01*
X019406Y002451D01*
X019459Y002434D01*
X019512Y002412D01*
X019562Y002387D01*
X018383Y001683D02*
X018385Y001630D01*
X018390Y001576D01*
X018399Y001524D01*
X018411Y001472D01*
X018427Y001421D01*
X018446Y001371D01*
X018469Y001322D01*
X018495Y001275D01*
X018523Y001230D01*
X018555Y001187D01*
X018589Y001147D01*
X018627Y001108D01*
X018666Y001072D01*
X018683Y001063D02*
X018871Y001063D01*
X018933Y000739D02*
X018798Y000739D01*
X018753Y000693D01*
X018798Y000648D01*
X018888Y000648D01*
X018933Y000603D01*
X018888Y000558D01*
X018753Y000558D01*
X018639Y000558D02*
X018639Y000739D01*
X018548Y000829D01*
X018458Y000739D01*
X018458Y000558D01*
X018458Y000693D02*
X018639Y000693D01*
X019048Y000693D02*
X019093Y000739D01*
X019228Y000739D01*
X019183Y000648D02*
X019093Y000648D01*
X019048Y000693D01*
X019048Y000558D02*
X019183Y000558D01*
X019228Y000603D01*
X019183Y000648D01*
X019342Y000603D02*
X019387Y000558D01*
X019477Y000558D01*
X019522Y000603D01*
X019522Y000693D01*
X019477Y000739D01*
X019387Y000739D01*
X019342Y000693D01*
X019342Y000603D01*
X019637Y000603D02*
X019682Y000558D01*
X019817Y000558D01*
X019817Y000739D02*
X019682Y000739D01*
X019637Y000693D01*
X019637Y000603D01*
X019683Y001063D02*
X019496Y001063D01*
X019983Y001683D02*
X019981Y001737D01*
X019976Y001791D01*
X019967Y001844D01*
X019954Y001897D01*
X019938Y001948D01*
X019918Y001998D01*
X019895Y002047D01*
X019869Y002095D01*
X019840Y002140D01*
X019807Y002183D01*
X019772Y002224D01*
X019734Y002263D01*
X019694Y002299D01*
X019651Y002332D01*
X019606Y002362D01*
X019559Y002389D01*
X019983Y001683D02*
X019981Y001629D01*
X019976Y001576D01*
X019967Y001522D01*
X019954Y001470D01*
X019938Y001419D01*
X019918Y001368D01*
X019896Y001319D01*
X019870Y001272D01*
X019840Y001227D01*
X019808Y001184D01*
X019773Y001143D01*
X019735Y001104D01*
X019695Y001068D01*
X020933Y001063D02*
X021121Y001063D01*
X021093Y000829D02*
X021139Y000784D01*
X021139Y000694D01*
X021093Y000648D01*
X020958Y000648D01*
X020958Y000558D02*
X020958Y000829D01*
X021093Y000829D01*
X021253Y000784D02*
X021253Y000739D01*
X021298Y000694D01*
X021388Y000694D01*
X021433Y000648D01*
X021433Y000603D01*
X021388Y000558D01*
X021298Y000558D01*
X021253Y000603D01*
X021139Y000558D02*
X021048Y000648D01*
X021253Y000784D02*
X021298Y000829D01*
X021388Y000829D01*
X021433Y000784D01*
X021548Y000784D02*
X021593Y000829D01*
X021683Y000829D01*
X021728Y000784D01*
X021683Y000694D02*
X021728Y000648D01*
X021728Y000603D01*
X021683Y000558D01*
X021593Y000558D01*
X021548Y000603D01*
X021593Y000694D02*
X021683Y000694D01*
X021593Y000694D02*
X021548Y000739D01*
X021548Y000784D01*
X021842Y000829D02*
X021932Y000829D01*
X021887Y000829D02*
X021887Y000558D01*
X021842Y000558D02*
X021932Y000558D01*
X021933Y001063D02*
X021746Y001063D01*
X021812Y002387D02*
X021762Y002412D01*
X021709Y002434D01*
X021656Y002451D01*
X021601Y002465D01*
X021546Y002475D01*
X021489Y002481D01*
X021433Y002483D01*
X021036Y002378D02*
X020988Y002348D01*
X020943Y002315D01*
X020900Y002279D01*
X020859Y002241D01*
X020822Y002199D01*
X020787Y002155D01*
X020756Y002109D01*
X020727Y002060D01*
X020703Y002010D01*
X020682Y001958D01*
X020664Y001904D01*
X020651Y001850D01*
X020641Y001795D01*
X020635Y001739D01*
X020633Y001683D01*
X021014Y002364D02*
X021062Y002392D01*
X021111Y002416D01*
X021163Y002436D01*
X021215Y002453D01*
X021269Y002466D01*
X021323Y002475D01*
X021378Y002481D01*
X021433Y002483D01*
X020633Y001683D02*
X020635Y001630D01*
X020640Y001576D01*
X020649Y001524D01*
X020661Y001472D01*
X020677Y001421D01*
X020696Y001371D01*
X020719Y001322D01*
X020745Y001275D01*
X020773Y001230D01*
X020805Y001187D01*
X020839Y001147D01*
X020877Y001108D01*
X020916Y001072D01*
X022233Y001683D02*
X022231Y001737D01*
X022226Y001791D01*
X022217Y001844D01*
X022204Y001897D01*
X022188Y001948D01*
X022168Y001998D01*
X022145Y002047D01*
X022119Y002095D01*
X022090Y002140D01*
X022057Y002183D01*
X022022Y002224D01*
X021984Y002263D01*
X021944Y002299D01*
X021901Y002332D01*
X021856Y002362D01*
X021809Y002389D01*
X022233Y001683D02*
X022231Y001629D01*
X022226Y001576D01*
X022217Y001522D01*
X022204Y001470D01*
X022188Y001419D01*
X022168Y001368D01*
X022146Y001319D01*
X022120Y001272D01*
X022090Y001227D01*
X022058Y001184D01*
X022023Y001143D01*
X021985Y001104D01*
X021945Y001068D01*
X023433Y001063D02*
X023621Y001063D01*
X023583Y000829D02*
X023718Y000829D01*
X023764Y000784D01*
X023764Y000693D01*
X023718Y000648D01*
X023583Y000648D01*
X023583Y000558D02*
X023583Y000829D01*
X023673Y000648D02*
X023764Y000558D01*
X023968Y000558D02*
X023968Y000829D01*
X023878Y000829D02*
X024058Y000829D01*
X024173Y000784D02*
X024218Y000829D01*
X024308Y000829D01*
X024353Y000784D01*
X024173Y000784D02*
X024173Y000603D01*
X024218Y000558D01*
X024308Y000558D01*
X024353Y000603D01*
X024433Y001063D02*
X024246Y001063D01*
X024733Y001683D02*
X024731Y001737D01*
X024726Y001791D01*
X024717Y001844D01*
X024704Y001897D01*
X024688Y001948D01*
X024668Y001998D01*
X024645Y002047D01*
X024619Y002095D01*
X024590Y002140D01*
X024557Y002183D01*
X024522Y002224D01*
X024484Y002263D01*
X024444Y002299D01*
X024401Y002332D01*
X024356Y002362D01*
X024309Y002389D01*
X023536Y002378D02*
X023488Y002348D01*
X023443Y002315D01*
X023400Y002279D01*
X023359Y002241D01*
X023322Y002199D01*
X023287Y002155D01*
X023256Y002109D01*
X023227Y002060D01*
X023203Y002010D01*
X023182Y001958D01*
X023164Y001904D01*
X023151Y001850D01*
X023141Y001795D01*
X023135Y001739D01*
X023133Y001683D01*
X023514Y002364D02*
X023562Y002392D01*
X023611Y002416D01*
X023663Y002436D01*
X023715Y002453D01*
X023769Y002466D01*
X023823Y002475D01*
X023878Y002481D01*
X023933Y002483D01*
X023989Y002481D01*
X024046Y002475D01*
X024101Y002465D01*
X024156Y002451D01*
X024209Y002434D01*
X024262Y002412D01*
X024312Y002387D01*
X023133Y001683D02*
X023135Y001630D01*
X023140Y001576D01*
X023149Y001524D01*
X023161Y001472D01*
X023177Y001421D01*
X023196Y001371D01*
X023219Y001322D01*
X023245Y001275D01*
X023273Y001230D01*
X023305Y001187D01*
X023339Y001147D01*
X023377Y001108D01*
X023416Y001072D01*
X024445Y001068D02*
X024485Y001104D01*
X024523Y001143D01*
X024558Y001184D01*
X024590Y001227D01*
X024620Y001272D01*
X024646Y001319D01*
X024668Y001368D01*
X024688Y001419D01*
X024704Y001470D01*
X024717Y001522D01*
X024726Y001576D01*
X024731Y001629D01*
X024733Y001683D01*
X025708Y000784D02*
X025753Y000829D01*
X025843Y000829D01*
X025889Y000784D01*
X025843Y000693D02*
X025889Y000648D01*
X025889Y000603D01*
X025843Y000558D01*
X025753Y000558D01*
X025708Y000603D01*
X025753Y000693D02*
X025843Y000693D01*
X025753Y000693D02*
X025708Y000739D01*
X025708Y000784D01*
X026003Y000739D02*
X026093Y000739D01*
X026048Y000784D02*
X026048Y000603D01*
X026093Y000558D01*
X026199Y000603D02*
X026244Y000648D01*
X026380Y000648D01*
X026380Y000693D02*
X026380Y000558D01*
X026244Y000558D01*
X026199Y000603D01*
X026244Y000739D02*
X026335Y000739D01*
X026380Y000693D01*
X026494Y000739D02*
X026584Y000739D01*
X026539Y000784D02*
X026539Y000603D01*
X026584Y000558D01*
X026691Y000603D02*
X026736Y000558D01*
X026871Y000558D01*
X026871Y000739D01*
X026985Y000693D02*
X027030Y000739D01*
X027165Y000739D01*
X027120Y000648D02*
X027030Y000648D01*
X026985Y000693D01*
X026985Y000558D02*
X027120Y000558D01*
X027165Y000603D01*
X027120Y000648D01*
X026933Y001063D02*
X026746Y001063D01*
X026691Y000739D02*
X026691Y000603D01*
X026121Y001063D02*
X025933Y001063D01*
X026014Y002364D02*
X026062Y002392D01*
X026111Y002416D01*
X026163Y002436D01*
X026215Y002453D01*
X026269Y002466D01*
X026323Y002475D01*
X026378Y002481D01*
X026433Y002483D01*
X026036Y002378D02*
X025988Y002348D01*
X025943Y002315D01*
X025900Y002279D01*
X025859Y002241D01*
X025822Y002199D01*
X025787Y002155D01*
X025756Y002109D01*
X025727Y002060D01*
X025703Y002010D01*
X025682Y001958D01*
X025664Y001904D01*
X025651Y001850D01*
X025641Y001795D01*
X025635Y001739D01*
X025633Y001683D01*
X026433Y002483D02*
X026489Y002481D01*
X026546Y002475D01*
X026601Y002465D01*
X026656Y002451D01*
X026709Y002434D01*
X026762Y002412D01*
X026812Y002387D01*
X025633Y001683D02*
X025635Y001630D01*
X025640Y001576D01*
X025649Y001524D01*
X025661Y001472D01*
X025677Y001421D01*
X025696Y001371D01*
X025719Y001322D01*
X025745Y001275D01*
X025773Y001230D01*
X025805Y001187D01*
X025839Y001147D01*
X025877Y001108D01*
X025916Y001072D01*
X027233Y001683D02*
X027231Y001737D01*
X027226Y001791D01*
X027217Y001844D01*
X027204Y001897D01*
X027188Y001948D01*
X027168Y001998D01*
X027145Y002047D01*
X027119Y002095D01*
X027090Y002140D01*
X027057Y002183D01*
X027022Y002224D01*
X026984Y002263D01*
X026944Y002299D01*
X026901Y002332D01*
X026856Y002362D01*
X026809Y002389D01*
X027233Y001683D02*
X027231Y001629D01*
X027226Y001576D01*
X027217Y001522D01*
X027204Y001470D01*
X027188Y001419D01*
X027168Y001368D01*
X027146Y001319D01*
X027120Y001272D01*
X027090Y001227D01*
X027058Y001184D01*
X027023Y001143D01*
X026985Y001104D01*
X026945Y001068D01*
X027958Y000784D02*
X027958Y000603D01*
X028003Y000558D01*
X028093Y000558D01*
X028139Y000603D01*
X028139Y000693D01*
X028048Y000693D01*
X027958Y000784D02*
X028003Y000829D01*
X028093Y000829D01*
X028139Y000784D01*
X028253Y000829D02*
X028253Y000558D01*
X028253Y000648D02*
X028388Y000648D01*
X028433Y000693D01*
X028433Y000784D01*
X028388Y000829D01*
X028253Y000829D01*
X028433Y001063D02*
X028621Y001063D01*
X028593Y000829D02*
X028548Y000784D01*
X028548Y000739D01*
X028593Y000693D01*
X028683Y000693D01*
X028728Y000648D01*
X028728Y000603D01*
X028683Y000558D01*
X028593Y000558D01*
X028548Y000603D01*
X028593Y000829D02*
X028683Y000829D01*
X028728Y000784D01*
X029137Y000693D02*
X029227Y000693D01*
X029182Y000784D02*
X029227Y000829D01*
X029182Y000784D02*
X029182Y000558D01*
X029333Y000558D02*
X029423Y000558D01*
X029378Y000558D02*
X029378Y000739D01*
X029333Y000739D01*
X029378Y000829D02*
X029378Y000874D01*
X029433Y001063D02*
X029246Y001063D01*
X029530Y000739D02*
X029710Y000558D01*
X029530Y000558D02*
X029710Y000739D01*
X029733Y001683D02*
X029731Y001737D01*
X029726Y001791D01*
X029717Y001844D01*
X029704Y001897D01*
X029688Y001948D01*
X029668Y001998D01*
X029645Y002047D01*
X029619Y002095D01*
X029590Y002140D01*
X029557Y002183D01*
X029522Y002224D01*
X029484Y002263D01*
X029444Y002299D01*
X029401Y002332D01*
X029356Y002362D01*
X029309Y002389D01*
X028536Y002378D02*
X028488Y002348D01*
X028443Y002315D01*
X028400Y002279D01*
X028359Y002241D01*
X028322Y002199D01*
X028287Y002155D01*
X028256Y002109D01*
X028227Y002060D01*
X028203Y002010D01*
X028182Y001958D01*
X028164Y001904D01*
X028151Y001850D01*
X028141Y001795D01*
X028135Y001739D01*
X028133Y001683D01*
X028514Y002364D02*
X028562Y002392D01*
X028611Y002416D01*
X028663Y002436D01*
X028715Y002453D01*
X028769Y002466D01*
X028823Y002475D01*
X028878Y002481D01*
X028933Y002483D01*
X028989Y002481D01*
X029046Y002475D01*
X029101Y002465D01*
X029156Y002451D01*
X029209Y002434D01*
X029262Y002412D01*
X029312Y002387D01*
X028133Y001683D02*
X028135Y001630D01*
X028140Y001576D01*
X028149Y001524D01*
X028161Y001472D01*
X028177Y001421D01*
X028196Y001371D01*
X028219Y001322D01*
X028245Y001275D01*
X028273Y001230D01*
X028305Y001187D01*
X028339Y001147D01*
X028377Y001108D01*
X028416Y001072D01*
X029445Y001068D02*
X029485Y001104D01*
X029523Y001143D01*
X029558Y001184D01*
X029590Y001227D01*
X029620Y001272D01*
X029646Y001319D01*
X029668Y001368D01*
X029688Y001419D01*
X029704Y001470D01*
X029717Y001522D01*
X029726Y001576D01*
X029731Y001629D01*
X029733Y001683D01*
X032783Y001233D02*
X032783Y004233D01*
X033983Y005433D01*
X036383Y005433D01*
X037583Y004233D01*
X037583Y001233D01*
X037562Y001185D01*
X037538Y001139D01*
X037511Y001095D01*
X037480Y001053D01*
X037446Y001013D01*
X037410Y000976D01*
X037371Y000942D01*
X037329Y000911D01*
X037285Y000883D01*
X037239Y000858D01*
X037192Y000837D01*
X037143Y000819D01*
X037093Y000806D01*
X037041Y000795D01*
X036990Y000789D01*
X036938Y000787D01*
X036886Y000789D01*
X036834Y000794D01*
X036783Y000803D01*
X036732Y000817D01*
X036683Y000833D01*
X036496Y000854D02*
X036496Y000673D01*
X036406Y000583D01*
X036316Y000673D01*
X036316Y000854D01*
X036201Y000809D02*
X036201Y000764D01*
X036156Y000718D01*
X036201Y000673D01*
X036201Y000628D01*
X036156Y000583D01*
X036066Y000583D01*
X036021Y000628D01*
X036111Y000718D02*
X036156Y000718D01*
X036201Y000809D02*
X036156Y000854D01*
X036066Y000854D01*
X036021Y000809D01*
X035612Y000809D02*
X035567Y000854D01*
X035477Y000854D01*
X035432Y000809D01*
X035432Y000628D01*
X035612Y000809D01*
X035612Y000628D01*
X035567Y000583D01*
X035477Y000583D01*
X035432Y000628D01*
X035317Y000583D02*
X035137Y000583D01*
X035317Y000764D01*
X035317Y000809D01*
X035272Y000854D01*
X035182Y000854D01*
X035137Y000809D01*
X035022Y000809D02*
X034977Y000854D01*
X034887Y000854D01*
X034842Y000809D01*
X035022Y000809D02*
X035022Y000764D01*
X034842Y000583D01*
X035022Y000583D01*
X034728Y000583D02*
X034548Y000583D01*
X034638Y000583D02*
X034638Y000854D01*
X034548Y000764D01*
X034433Y000809D02*
X034433Y000718D01*
X034388Y000673D01*
X034253Y000673D01*
X034253Y000583D02*
X034253Y000854D01*
X034388Y000854D01*
X034433Y000809D01*
X034343Y000673D02*
X034433Y000583D01*
X034139Y000628D02*
X034093Y000583D01*
X034003Y000583D01*
X033958Y000628D01*
X033958Y000809D01*
X034003Y000854D01*
X034093Y000854D01*
X034139Y000809D01*
X033683Y000833D02*
X033634Y000817D01*
X033583Y000803D01*
X033532Y000794D01*
X033480Y000789D01*
X033428Y000787D01*
X033376Y000789D01*
X033325Y000795D01*
X033273Y000806D01*
X033223Y000819D01*
X033174Y000837D01*
X033127Y000858D01*
X033081Y000883D01*
X033037Y000911D01*
X032995Y000942D01*
X032956Y000976D01*
X032920Y001013D01*
X032886Y001053D01*
X032855Y001095D01*
X032828Y001139D01*
X032804Y001185D01*
X032783Y001233D01*
X033683Y000833D02*
X033756Y000902D01*
X033833Y000969D01*
X033912Y001031D01*
X033994Y001090D01*
X034079Y001144D01*
X034167Y001195D01*
X034256Y001241D01*
X034348Y001283D01*
X034442Y001320D01*
X034537Y001353D01*
X034634Y001382D01*
X034732Y001406D01*
X034831Y001425D01*
X034931Y001439D01*
X035032Y001449D01*
X035133Y001453D01*
X035233Y001453D01*
X035334Y001449D01*
X035435Y001439D01*
X035535Y001425D01*
X035634Y001406D01*
X035732Y001382D01*
X035829Y001353D01*
X035924Y001320D01*
X036018Y001283D01*
X036110Y001241D01*
X036199Y001195D01*
X036287Y001144D01*
X036372Y001090D01*
X036454Y001031D01*
X036533Y000969D01*
X036610Y000902D01*
X036683Y000833D01*
X029686Y005987D02*
X029596Y005987D01*
X029641Y005987D02*
X029641Y006257D01*
X029596Y006257D01*
X029481Y006122D02*
X029481Y005987D01*
X029346Y005987D01*
X029301Y006032D01*
X029346Y006077D01*
X029481Y006077D01*
X029481Y006122D02*
X029436Y006167D01*
X029346Y006167D01*
X029150Y006167D02*
X029150Y005987D01*
X029105Y005987D02*
X029195Y005987D01*
X029150Y006167D02*
X029105Y006167D01*
X029150Y006257D02*
X029150Y006302D01*
X028994Y006167D02*
X028949Y006167D01*
X028859Y006077D01*
X028859Y005987D02*
X028859Y006167D01*
X028745Y006122D02*
X028745Y006077D01*
X028564Y006077D01*
X028564Y006032D02*
X028564Y006122D01*
X028609Y006167D01*
X028700Y006167D01*
X028745Y006122D01*
X028700Y005987D02*
X028609Y005987D01*
X028564Y006032D01*
X028450Y006032D02*
X028405Y005987D01*
X028315Y005987D01*
X028270Y006032D01*
X028315Y006122D02*
X028270Y006167D01*
X028270Y006212D01*
X028315Y006257D01*
X028405Y006257D01*
X028450Y006212D01*
X028405Y006122D02*
X028450Y006077D01*
X028450Y006032D01*
X028405Y006122D02*
X028315Y006122D01*
X027861Y006077D02*
X027861Y006032D01*
X027816Y005987D01*
X027726Y005987D01*
X027681Y006032D01*
X027726Y006122D02*
X027816Y006122D01*
X027861Y006077D01*
X027861Y006212D02*
X027816Y006257D01*
X027726Y006257D01*
X027681Y006212D01*
X027681Y006167D01*
X027726Y006122D01*
X027566Y006122D02*
X027521Y006077D01*
X027386Y006077D01*
X027386Y005987D02*
X027386Y006257D01*
X027521Y006257D01*
X027566Y006212D01*
X027566Y006122D01*
X027271Y006122D02*
X027181Y006122D01*
X027271Y006122D02*
X027271Y006032D01*
X027226Y005987D01*
X027136Y005987D01*
X027091Y006032D01*
X027091Y006212D01*
X027136Y006257D01*
X027226Y006257D01*
X027271Y006212D01*
X025018Y005934D02*
X025018Y005889D01*
X024973Y005843D01*
X024883Y005843D01*
X024838Y005889D01*
X024838Y005934D01*
X024883Y005979D01*
X024973Y005979D01*
X025018Y005934D01*
X024973Y005843D02*
X025018Y005798D01*
X025018Y005753D01*
X024973Y005708D01*
X024883Y005708D01*
X024838Y005753D01*
X024838Y005798D01*
X024883Y005843D01*
X024723Y005798D02*
X024723Y005753D01*
X024678Y005708D01*
X024588Y005708D01*
X024543Y005753D01*
X024429Y005753D02*
X024384Y005708D01*
X024294Y005708D01*
X024249Y005753D01*
X024134Y005708D02*
X023954Y005708D01*
X024044Y005708D02*
X024044Y005979D01*
X023954Y005889D01*
X023839Y005934D02*
X023794Y005979D01*
X023704Y005979D01*
X023659Y005934D01*
X023659Y005889D01*
X023704Y005843D01*
X023794Y005843D01*
X023839Y005798D01*
X023839Y005753D01*
X023794Y005708D01*
X023704Y005708D01*
X023659Y005753D01*
X023545Y005753D02*
X023545Y005934D01*
X023500Y005979D01*
X023365Y005979D01*
X023365Y005708D01*
X023500Y005708D01*
X023545Y005753D01*
X024249Y005934D02*
X024294Y005979D01*
X024384Y005979D01*
X024429Y005934D01*
X024429Y005889D01*
X024384Y005843D01*
X024429Y005798D01*
X024429Y005753D01*
X024384Y005843D02*
X024339Y005843D01*
X024543Y005934D02*
X024588Y005979D01*
X024678Y005979D01*
X024723Y005934D01*
X024723Y005889D01*
X024678Y005843D01*
X024723Y005798D01*
X024678Y005843D02*
X024633Y005843D01*
X022783Y005833D02*
X021583Y005833D01*
X022083Y006078D02*
X022083Y006168D01*
X022128Y006213D01*
X022173Y006213D01*
X022218Y006168D01*
X022263Y006213D01*
X022308Y006213D01*
X022353Y006168D01*
X022353Y006078D01*
X022308Y006033D01*
X022218Y006123D02*
X022218Y006168D01*
X022128Y006033D02*
X022083Y006078D01*
X022128Y006328D02*
X022083Y006373D01*
X022083Y006463D01*
X022128Y006508D01*
X022173Y006508D01*
X022353Y006328D01*
X022353Y006508D01*
X022353Y006623D02*
X022308Y006623D01*
X022308Y006668D01*
X022353Y006668D01*
X022353Y006623D01*
X022353Y006770D02*
X022308Y006770D01*
X022128Y006950D01*
X022083Y006950D01*
X022083Y006770D01*
X022218Y007065D02*
X022218Y007200D01*
X022263Y007245D01*
X022308Y007245D01*
X022353Y007200D01*
X022353Y007110D01*
X022308Y007065D01*
X022218Y007065D01*
X022128Y007155D01*
X022083Y007245D01*
X022128Y007359D02*
X022173Y007359D01*
X022218Y007404D01*
X022218Y007494D01*
X022263Y007539D01*
X022308Y007539D01*
X022353Y007494D01*
X022353Y007404D01*
X022308Y007359D01*
X022263Y007359D01*
X022218Y007404D01*
X022218Y007494D02*
X022173Y007539D01*
X022128Y007539D01*
X022083Y007494D01*
X022083Y007404D01*
X022128Y007359D01*
X022083Y007949D02*
X022353Y007949D01*
X022263Y007949D02*
X022353Y008084D01*
X022353Y008194D02*
X022083Y008194D01*
X022218Y008194D02*
X022218Y008374D01*
X022173Y008489D02*
X022173Y008669D01*
X022353Y008489D01*
X022353Y008669D01*
X022353Y008374D02*
X022083Y008374D01*
X022173Y008084D02*
X022263Y007949D01*
X020429Y009205D02*
X020429Y009385D01*
X020158Y009385D01*
X020158Y009500D02*
X020293Y009500D01*
X020339Y009545D01*
X020339Y009680D01*
X020158Y009680D01*
X020293Y009385D02*
X020293Y009295D01*
X020203Y010089D02*
X020158Y010134D01*
X020158Y010224D01*
X020203Y010269D01*
X020384Y010089D01*
X020203Y010089D01*
X020203Y010269D02*
X020384Y010269D01*
X020429Y010224D01*
X020429Y010134D01*
X020384Y010089D01*
X020384Y010384D02*
X020203Y010564D01*
X020158Y010519D01*
X020158Y010429D01*
X020203Y010384D01*
X020384Y010384D01*
X020429Y010429D01*
X020429Y010519D01*
X020384Y010564D01*
X020203Y010564D01*
X020158Y010678D02*
X020158Y010858D01*
X020158Y010768D02*
X020429Y010768D01*
X020339Y010858D01*
X020183Y012138D02*
X020093Y012138D01*
X020048Y012183D01*
X020048Y012228D01*
X020093Y012273D01*
X020183Y012273D01*
X020228Y012228D01*
X020228Y012183D01*
X020183Y012138D01*
X020183Y012273D02*
X020228Y012319D01*
X020228Y012364D01*
X020183Y012409D01*
X020093Y012409D01*
X020048Y012364D01*
X020048Y012319D01*
X020093Y012273D01*
X020637Y012138D02*
X020637Y012409D01*
X020727Y012319D01*
X020817Y012409D01*
X020817Y012138D01*
X020932Y012138D02*
X020932Y012409D01*
X020932Y012273D02*
X021112Y012273D01*
X021226Y012319D02*
X021406Y012319D01*
X021226Y012138D01*
X021406Y012138D01*
X021112Y012138D02*
X021112Y012409D01*
X018611Y013068D02*
X018611Y013248D01*
X018340Y013248D01*
X018385Y013363D02*
X018340Y013408D01*
X018340Y013543D01*
X018250Y013543D02*
X018521Y013543D01*
X018521Y013408D01*
X018475Y013363D01*
X018385Y013363D01*
X018475Y013248D02*
X018475Y013158D01*
X018521Y013952D02*
X018566Y013952D01*
X018611Y013997D01*
X018611Y014087D01*
X018566Y014132D01*
X018566Y014247D02*
X018611Y014292D01*
X018611Y014382D01*
X018566Y014427D01*
X018566Y014247D02*
X018521Y014247D01*
X018340Y014427D01*
X018340Y014247D01*
X018340Y014132D02*
X018521Y013952D01*
X018340Y013952D02*
X018340Y014132D01*
X018604Y014925D02*
X018604Y015105D01*
X018333Y015105D01*
X018378Y015219D02*
X018333Y015264D01*
X018333Y015399D01*
X018243Y015399D02*
X018514Y015399D01*
X018514Y015264D01*
X018468Y015219D01*
X018378Y015219D01*
X018468Y015105D02*
X018468Y015015D01*
X018514Y015809D02*
X018333Y015989D01*
X018333Y015809D01*
X018514Y015809D02*
X018559Y015809D01*
X018604Y015854D01*
X018604Y015944D01*
X018559Y015989D01*
X018559Y016103D02*
X018604Y016148D01*
X018604Y016238D01*
X018559Y016283D01*
X018559Y016103D02*
X018514Y016103D01*
X018333Y016283D01*
X018333Y016103D01*
X016816Y015343D02*
X016546Y015343D01*
X016546Y015433D02*
X016546Y015253D01*
X016591Y015139D02*
X016771Y014959D01*
X016591Y014959D01*
X016546Y015004D01*
X016546Y015094D01*
X016591Y015139D01*
X016771Y015139D01*
X016816Y015094D01*
X016816Y015004D01*
X016771Y014959D01*
X016771Y014844D02*
X016591Y014844D01*
X016771Y014664D01*
X016591Y014664D01*
X016546Y014709D01*
X016546Y014799D01*
X016591Y014844D01*
X016771Y014844D02*
X016816Y014799D01*
X016816Y014709D01*
X016771Y014664D01*
X016726Y014255D02*
X016726Y014120D01*
X016681Y014075D01*
X016546Y014075D01*
X016546Y013960D02*
X016816Y013960D01*
X016816Y013780D01*
X016681Y013870D02*
X016681Y013960D01*
X016726Y014255D02*
X016546Y014255D01*
X016816Y015343D02*
X016726Y015433D01*
X015354Y015755D02*
X015354Y015935D01*
X015083Y015935D01*
X015083Y016050D02*
X015218Y016050D01*
X015264Y016095D01*
X015264Y016230D01*
X015083Y016230D01*
X015218Y015935D02*
X015218Y015845D01*
X015128Y016639D02*
X015083Y016684D01*
X015083Y016774D01*
X015128Y016819D01*
X015309Y016639D01*
X015128Y016639D01*
X015128Y016819D02*
X015309Y016819D01*
X015354Y016774D01*
X015354Y016684D01*
X015309Y016639D01*
X015309Y016934D02*
X015128Y016934D01*
X015083Y016979D01*
X015083Y017069D01*
X015128Y017114D01*
X015309Y016934D01*
X015354Y016979D01*
X015354Y017069D01*
X015309Y017114D01*
X015128Y017114D01*
X015083Y017228D02*
X015083Y017408D01*
X015083Y017318D02*
X015354Y017318D01*
X015264Y017408D01*
X017147Y017441D02*
X017237Y017532D01*
X017237Y017261D01*
X017147Y017261D02*
X017327Y017261D01*
X017441Y017306D02*
X017621Y017487D01*
X017621Y017306D01*
X017576Y017261D01*
X017486Y017261D01*
X017441Y017306D01*
X017441Y017487D01*
X017486Y017532D01*
X017576Y017532D01*
X017621Y017487D01*
X017736Y017487D02*
X017781Y017532D01*
X017871Y017532D01*
X017916Y017487D01*
X017736Y017306D01*
X017781Y017261D01*
X017871Y017261D01*
X017916Y017306D01*
X017916Y017487D01*
X017736Y017487D02*
X017736Y017306D01*
X018325Y017261D02*
X018325Y017441D01*
X018460Y017441D01*
X018505Y017396D01*
X018505Y017261D01*
X018620Y017261D02*
X018620Y017532D01*
X018800Y017532D01*
X018710Y017396D02*
X018620Y017396D01*
X021341Y019121D02*
X021341Y024830D01*
X004412Y024830D01*
X004412Y019121D01*
X021341Y019121D01*
X026565Y016515D02*
X026655Y016606D01*
X026655Y016335D01*
X026565Y016335D02*
X026745Y016335D01*
X026859Y016380D02*
X027039Y016560D01*
X027039Y016380D01*
X026994Y016335D01*
X026904Y016335D01*
X026859Y016380D01*
X026859Y016560D01*
X026904Y016606D01*
X026994Y016606D01*
X027039Y016560D01*
X027154Y016560D02*
X027154Y016380D01*
X027334Y016560D01*
X027334Y016380D01*
X027289Y016335D01*
X027199Y016335D01*
X027154Y016380D01*
X027154Y016560D02*
X027199Y016606D01*
X027289Y016606D01*
X027334Y016560D01*
X027743Y016515D02*
X027878Y016515D01*
X027923Y016470D01*
X027923Y016335D01*
X028038Y016335D02*
X028038Y016606D01*
X028218Y016606D01*
X028128Y016470D02*
X028038Y016470D01*
X027743Y016515D02*
X027743Y016335D01*
X028273Y015254D02*
X028273Y014983D01*
X028183Y014983D02*
X028364Y014983D01*
X028478Y015028D02*
X028658Y015209D01*
X028658Y015028D01*
X028613Y014983D01*
X028523Y014983D01*
X028478Y015028D01*
X028478Y015209D01*
X028523Y015254D01*
X028613Y015254D01*
X028658Y015209D01*
X028773Y015209D02*
X028773Y015028D01*
X028953Y015209D01*
X028953Y015028D01*
X028908Y014983D01*
X028818Y014983D01*
X028773Y015028D01*
X028773Y015209D02*
X028818Y015254D01*
X028908Y015254D01*
X028953Y015209D01*
X029362Y015164D02*
X029497Y015164D01*
X029542Y015119D01*
X029542Y014983D01*
X029657Y014983D02*
X029657Y015254D01*
X029837Y015254D01*
X029747Y015119D02*
X029657Y015119D01*
X029362Y015164D02*
X029362Y014983D01*
X028273Y015254D02*
X028183Y015164D01*
X030034Y016333D02*
X030208Y016333D01*
X030034Y016333D02*
X030034Y010034D01*
X030208Y010034D01*
X032597Y007611D02*
X032552Y007566D01*
X032552Y007476D01*
X032597Y007431D01*
X032687Y007431D01*
X032732Y007476D01*
X032732Y007521D01*
X032687Y007611D01*
X032822Y007611D01*
X032822Y007431D01*
X032687Y007316D02*
X032687Y007181D01*
X032642Y007136D01*
X032597Y007136D01*
X032552Y007181D01*
X032552Y007271D01*
X032597Y007316D01*
X032687Y007316D01*
X032777Y007226D01*
X032822Y007136D01*
X032777Y007022D02*
X032597Y007022D01*
X032777Y006841D01*
X032597Y006841D01*
X032552Y006887D01*
X032552Y006977D01*
X032597Y007022D01*
X032777Y007022D02*
X032822Y006977D01*
X032822Y006887D01*
X032777Y006841D01*
X032822Y006432D02*
X032552Y006432D01*
X032642Y006432D02*
X032642Y006297D01*
X032687Y006252D01*
X032777Y006252D01*
X032822Y006297D01*
X032822Y006432D01*
X032642Y006342D02*
X032552Y006252D01*
X034253Y008958D02*
X034343Y008958D01*
X034389Y009003D01*
X034389Y009093D01*
X034298Y009093D01*
X034208Y009003D02*
X034253Y008958D01*
X034208Y009003D02*
X034208Y009184D01*
X034253Y009229D01*
X034343Y009229D01*
X034389Y009184D01*
X034503Y009229D02*
X034503Y008958D01*
X034503Y009048D02*
X034638Y009048D01*
X034683Y009093D01*
X034683Y009184D01*
X034638Y009229D01*
X034503Y009229D01*
X034798Y009184D02*
X034798Y009139D01*
X034843Y009093D01*
X034933Y009093D01*
X034978Y009048D01*
X034978Y009003D01*
X034933Y008958D01*
X034843Y008958D01*
X034798Y009003D01*
X034798Y009184D02*
X034843Y009229D01*
X034933Y009229D01*
X034978Y009184D01*
X035387Y009229D02*
X035387Y009003D01*
X035432Y008958D01*
X035522Y008958D01*
X035567Y009003D01*
X035567Y009229D01*
X035682Y009184D02*
X035727Y009229D01*
X035817Y009229D01*
X035862Y009184D01*
X035817Y009093D02*
X035862Y009048D01*
X035862Y009003D01*
X035817Y008958D01*
X035727Y008958D01*
X035682Y009003D01*
X035727Y009093D02*
X035817Y009093D01*
X035727Y009093D02*
X035682Y009139D01*
X035682Y009184D01*
X035976Y009229D02*
X036111Y009229D01*
X036156Y009184D01*
X036156Y009139D01*
X036111Y009093D01*
X035976Y009093D01*
X035976Y008958D02*
X036111Y008958D01*
X036156Y009003D01*
X036156Y009048D01*
X036111Y009093D01*
X035976Y008958D02*
X035976Y009229D01*
X037052Y008705D02*
X037052Y008525D01*
X037052Y008615D02*
X037322Y008615D01*
X037232Y008705D01*
X037277Y008410D02*
X037322Y008365D01*
X037322Y008275D01*
X037277Y008230D01*
X037097Y008410D01*
X037052Y008365D01*
X037052Y008275D01*
X037097Y008230D01*
X037277Y008230D01*
X037277Y008410D02*
X037097Y008410D01*
X037142Y007821D02*
X037052Y007686D01*
X037052Y007821D02*
X037322Y007821D01*
X037232Y007686D02*
X037142Y007821D01*
X036333Y010034D02*
X036159Y010034D01*
X036333Y010034D02*
X036333Y016333D01*
X036159Y016333D01*
X035520Y016333D02*
X030846Y016333D01*
X033962Y017662D02*
X034142Y017662D01*
X034256Y017662D02*
X034346Y017662D01*
X034301Y017662D02*
X034301Y017932D01*
X034256Y017932D02*
X034346Y017932D01*
X034453Y017887D02*
X034498Y017932D01*
X034588Y017932D01*
X034633Y017887D01*
X034588Y017797D02*
X034633Y017752D01*
X034633Y017707D01*
X034588Y017662D01*
X034498Y017662D01*
X034453Y017707D01*
X034498Y017797D02*
X034588Y017797D01*
X034498Y017797D02*
X034453Y017842D01*
X034453Y017887D01*
X034747Y017887D02*
X034792Y017932D01*
X034882Y017932D01*
X034927Y017887D01*
X034927Y017842D01*
X034882Y017797D01*
X034927Y017752D01*
X034927Y017707D01*
X034882Y017662D01*
X034792Y017662D01*
X034747Y017707D01*
X034837Y017797D02*
X034882Y017797D01*
X035042Y017887D02*
X035087Y017932D01*
X035177Y017932D01*
X035222Y017887D01*
X035222Y017842D01*
X035177Y017797D01*
X035222Y017752D01*
X035222Y017707D01*
X035177Y017662D01*
X035087Y017662D01*
X035042Y017707D01*
X035132Y017797D02*
X035177Y017797D01*
X035337Y017842D02*
X035427Y017932D01*
X035427Y017662D01*
X035337Y017662D02*
X035517Y017662D01*
X036521Y018502D02*
X036611Y018592D01*
X036611Y018547D02*
X036611Y018682D01*
X036521Y018682D02*
X036791Y018682D01*
X036791Y018547D01*
X036746Y018502D01*
X036656Y018502D01*
X036611Y018547D01*
X036566Y019091D02*
X036521Y019136D01*
X036521Y019227D01*
X036566Y019272D01*
X036746Y019091D01*
X036566Y019091D01*
X036746Y019091D02*
X036791Y019136D01*
X036791Y019227D01*
X036746Y019272D01*
X036566Y019272D01*
X036566Y019386D02*
X036611Y019386D01*
X036656Y019431D01*
X036656Y019566D01*
X036566Y019566D01*
X036521Y019521D01*
X036521Y019431D01*
X036566Y019386D01*
X036746Y019476D02*
X036656Y019566D01*
X036656Y019681D02*
X036566Y019681D01*
X036521Y019726D01*
X036521Y019816D01*
X036566Y019861D01*
X036656Y019861D02*
X036701Y019771D01*
X036701Y019726D01*
X036656Y019681D01*
X036791Y019681D02*
X036791Y019861D01*
X036656Y019861D01*
X036746Y019476D02*
X036791Y019386D01*
X035531Y020168D02*
X035350Y020168D01*
X035350Y019898D01*
X035236Y019898D02*
X035236Y020033D01*
X035191Y020078D01*
X035056Y020078D01*
X035056Y019898D01*
X035350Y020033D02*
X035440Y020033D01*
X034647Y020123D02*
X034466Y019943D01*
X034511Y019898D01*
X034602Y019898D01*
X034647Y019943D01*
X034647Y020123D01*
X034602Y020168D01*
X034511Y020168D01*
X034466Y020123D01*
X034466Y019943D01*
X034352Y019943D02*
X034307Y019898D01*
X034217Y019898D01*
X034172Y019943D01*
X034352Y020123D01*
X034352Y019943D01*
X034352Y020123D02*
X034307Y020168D01*
X034217Y020168D01*
X034172Y020123D01*
X034172Y019943D01*
X034057Y019898D02*
X033877Y019898D01*
X033967Y019898D02*
X033967Y020168D01*
X033877Y020078D01*
X033824Y020949D02*
X033824Y021185D01*
X033903Y021107D02*
X033905Y021125D01*
X033911Y021141D01*
X033920Y021156D01*
X033933Y021169D01*
X033948Y021178D01*
X033964Y021184D01*
X033982Y021186D01*
X034000Y021184D01*
X034016Y021178D01*
X034031Y021169D01*
X034044Y021156D01*
X034053Y021141D01*
X034059Y021125D01*
X034061Y021107D01*
X034059Y021089D01*
X034053Y021073D01*
X034044Y021058D01*
X034031Y021045D01*
X034016Y021036D01*
X034000Y021030D01*
X033982Y021028D01*
X033964Y021030D01*
X033948Y021036D01*
X033933Y021045D01*
X033920Y021058D01*
X033911Y021073D01*
X033905Y021089D01*
X033903Y021107D01*
X033824Y020949D02*
X034060Y020949D01*
X035556Y020949D02*
X035793Y020949D01*
X035793Y021225D01*
X035793Y022642D02*
X035793Y022918D01*
X035556Y022918D01*
X035553Y023302D02*
X035463Y023302D01*
X035418Y023347D01*
X035418Y023392D01*
X035463Y023437D01*
X035553Y023437D01*
X035598Y023392D01*
X035598Y023347D01*
X035553Y023302D01*
X035553Y023437D02*
X035598Y023482D01*
X035598Y023527D01*
X035553Y023572D01*
X035463Y023572D01*
X035418Y023527D01*
X035418Y023482D01*
X035463Y023437D01*
X035304Y023347D02*
X035259Y023302D01*
X035169Y023302D01*
X035124Y023347D01*
X035304Y023527D01*
X035304Y023347D01*
X035304Y023527D02*
X035259Y023572D01*
X035169Y023572D01*
X035124Y023527D01*
X035124Y023347D01*
X035009Y023437D02*
X034964Y023392D01*
X034829Y023392D01*
X034829Y023302D02*
X034829Y023572D01*
X034964Y023572D01*
X035009Y023527D01*
X035009Y023437D01*
X034714Y023572D02*
X034714Y023302D01*
X034534Y023302D02*
X034534Y023572D01*
X034624Y023482D01*
X034714Y023572D01*
X034420Y023527D02*
X034420Y023482D01*
X034375Y023437D01*
X034240Y023437D01*
X034375Y023437D02*
X034420Y023392D01*
X034420Y023347D01*
X034375Y023302D01*
X034240Y023302D01*
X034240Y023572D01*
X034375Y023572D01*
X034420Y023527D01*
X034060Y022918D02*
X033824Y022918D01*
X033824Y022681D01*
X032683Y023743D02*
X032683Y018887D01*
X032359Y018887D01*
X031433Y018887D02*
X029984Y018887D01*
X029058Y018887D02*
X027172Y018887D01*
X027172Y024081D01*
X028195Y024202D02*
X032014Y024202D01*
X031781Y024583D02*
X031826Y024628D01*
X031826Y024809D01*
X031781Y024854D01*
X031646Y024854D01*
X031646Y024583D01*
X031781Y024583D01*
X031531Y024583D02*
X031441Y024673D01*
X031486Y024673D02*
X031351Y024673D01*
X031351Y024583D02*
X031351Y024854D01*
X031486Y024854D01*
X031531Y024809D01*
X031531Y024718D01*
X031486Y024673D01*
X031237Y024718D02*
X031057Y024718D01*
X031057Y024764D02*
X031147Y024854D01*
X031237Y024764D01*
X031237Y024583D01*
X031057Y024583D02*
X031057Y024764D01*
X030942Y024809D02*
X030897Y024854D01*
X030807Y024854D01*
X030762Y024809D01*
X030762Y024628D01*
X030807Y024583D01*
X030897Y024583D01*
X030942Y024628D01*
X030353Y024628D02*
X030353Y024809D01*
X030308Y024854D01*
X030173Y024854D01*
X030173Y024583D01*
X030308Y024583D01*
X030353Y024628D01*
X030058Y024628D02*
X030013Y024583D01*
X029923Y024583D01*
X029878Y024628D01*
X029923Y024718D02*
X029878Y024764D01*
X029878Y024809D01*
X029923Y024854D01*
X030013Y024854D01*
X030058Y024809D01*
X030013Y024718D02*
X030058Y024673D01*
X030058Y024628D01*
X030013Y024718D02*
X029923Y024718D01*
X029469Y024628D02*
X029469Y024809D01*
X029424Y024854D01*
X029334Y024854D01*
X029289Y024809D01*
X029289Y024628D01*
X029334Y024583D01*
X029424Y024583D01*
X029469Y024628D01*
X029174Y024583D02*
X029084Y024673D01*
X029129Y024673D02*
X028994Y024673D01*
X028994Y024583D02*
X028994Y024854D01*
X029129Y024854D01*
X029174Y024809D01*
X029174Y024718D01*
X029129Y024673D01*
X028880Y024628D02*
X028835Y024583D01*
X028744Y024583D01*
X028699Y024628D01*
X028699Y024809D01*
X028744Y024854D01*
X028835Y024854D01*
X028880Y024809D01*
X028593Y024854D02*
X028503Y024854D01*
X028548Y024854D02*
X028548Y024583D01*
X028503Y024583D02*
X028593Y024583D01*
X028389Y024583D02*
X028389Y024854D01*
X028298Y024764D01*
X028208Y024854D01*
X028208Y024583D01*
X027920Y024697D02*
X027925Y024738D01*
X027934Y024779D01*
X027946Y024818D01*
X027962Y024857D01*
X027981Y024893D01*
X028003Y024928D01*
X028028Y024961D01*
X028055Y024992D01*
X028086Y025020D01*
X028119Y025045D01*
X028153Y025068D01*
X028190Y025087D01*
X028228Y025103D01*
X028267Y025115D01*
X028308Y025124D01*
X028349Y025130D01*
X028390Y025132D01*
X028431Y025130D01*
X028431Y025131D02*
X032053Y025131D01*
X032053Y025485D02*
X032094Y025483D01*
X032135Y025478D01*
X032175Y025469D01*
X032214Y025457D01*
X032252Y025441D01*
X032289Y025422D01*
X032324Y025400D01*
X032356Y025375D01*
X032387Y025347D01*
X032415Y025316D01*
X032440Y025284D01*
X032462Y025249D01*
X032481Y025212D01*
X032497Y025174D01*
X032509Y025135D01*
X032518Y025095D01*
X032523Y025054D01*
X032525Y025013D01*
X032053Y025485D02*
X028431Y025485D01*
X028390Y025487D01*
X028349Y025485D01*
X028308Y025479D01*
X028267Y025470D01*
X028228Y025458D01*
X028190Y025442D01*
X028153Y025423D01*
X028119Y025400D01*
X028086Y025375D01*
X028055Y025347D01*
X028028Y025316D01*
X028003Y025283D01*
X027981Y025248D01*
X027962Y025212D01*
X027946Y025173D01*
X027934Y025134D01*
X027925Y025093D01*
X027920Y025052D01*
X027920Y026548D02*
X027925Y026589D01*
X027934Y026630D01*
X027946Y026669D01*
X027962Y026708D01*
X027981Y026744D01*
X028003Y026779D01*
X028028Y026812D01*
X028055Y026843D01*
X028086Y026871D01*
X028119Y026896D01*
X028153Y026919D01*
X028190Y026938D01*
X028228Y026954D01*
X028267Y026966D01*
X028308Y026975D01*
X028349Y026981D01*
X028390Y026983D01*
X028431Y026981D01*
X032053Y026981D01*
X032094Y026979D01*
X032135Y026974D01*
X032175Y026965D01*
X032214Y026953D01*
X032252Y026937D01*
X032289Y026918D01*
X032324Y026896D01*
X032356Y026871D01*
X032387Y026843D01*
X032415Y026812D01*
X032440Y026780D01*
X032462Y026745D01*
X032481Y026708D01*
X032497Y026670D01*
X032509Y026631D01*
X032518Y026591D01*
X032523Y026550D01*
X032525Y026509D01*
X032053Y025130D02*
X032094Y025128D01*
X032135Y025123D01*
X032175Y025114D01*
X032214Y025102D01*
X032252Y025086D01*
X032289Y025067D01*
X032324Y025045D01*
X032356Y025020D01*
X032387Y024992D01*
X032415Y024961D01*
X032440Y024929D01*
X032462Y024894D01*
X032481Y024857D01*
X032497Y024819D01*
X032509Y024780D01*
X032518Y024740D01*
X032523Y024699D01*
X032525Y024658D01*
X035146Y025021D02*
X035326Y025021D01*
X035236Y025021D02*
X035236Y025291D01*
X035146Y025201D01*
X035441Y025246D02*
X035441Y025066D01*
X035621Y025246D01*
X035621Y025066D01*
X035576Y025021D01*
X035486Y025021D01*
X035441Y025066D01*
X035441Y025246D02*
X035486Y025291D01*
X035576Y025291D01*
X035621Y025246D01*
X035735Y025246D02*
X035780Y025291D01*
X035870Y025291D01*
X035915Y025246D01*
X035735Y025066D01*
X035780Y025021D01*
X035870Y025021D01*
X035915Y025066D01*
X035915Y025246D01*
X035735Y025246D02*
X035735Y025066D01*
X036324Y025021D02*
X036324Y025201D01*
X036460Y025201D01*
X036505Y025156D01*
X036505Y025021D01*
X036619Y025021D02*
X036619Y025291D01*
X036799Y025291D01*
X036709Y025156D02*
X036619Y025156D01*
X035893Y023572D02*
X035713Y023572D01*
X035713Y023437D01*
X035803Y023482D01*
X035848Y023482D01*
X035893Y023437D01*
X035893Y023347D01*
X035848Y023302D01*
X035758Y023302D01*
X035713Y023347D01*
X038303Y020485D02*
X038303Y020305D01*
X038303Y020395D02*
X038574Y020395D01*
X038483Y020485D01*
X038529Y020190D02*
X038574Y020145D01*
X038574Y020055D01*
X038529Y020010D01*
X038348Y020190D01*
X038303Y020145D01*
X038303Y020055D01*
X038348Y020010D01*
X038529Y020010D01*
X038529Y020190D02*
X038348Y020190D01*
X038303Y019601D02*
X038574Y019601D01*
X038483Y019466D02*
X038393Y019601D01*
X038303Y019466D01*
X033962Y017932D02*
X033962Y017662D01*
X038335Y014953D02*
X038335Y014773D01*
X038335Y014863D02*
X038605Y014863D01*
X038515Y014953D01*
X038560Y014659D02*
X038605Y014614D01*
X038605Y014524D01*
X038560Y014479D01*
X038380Y014659D01*
X038335Y014614D01*
X038335Y014524D01*
X038380Y014479D01*
X038560Y014479D01*
X038560Y014659D02*
X038380Y014659D01*
X038425Y014069D02*
X038515Y013934D01*
X038605Y014069D02*
X038335Y014069D01*
X038425Y014069D02*
X038335Y013934D01*
X037354Y013615D02*
X037083Y013615D01*
X037083Y013705D02*
X037083Y013525D01*
X037128Y013410D02*
X037309Y013230D01*
X037128Y013230D01*
X037083Y013275D01*
X037083Y013365D01*
X037128Y013410D01*
X037309Y013410D01*
X037354Y013365D01*
X037354Y013275D01*
X037309Y013230D01*
X037354Y012821D02*
X037083Y012821D01*
X037173Y012821D02*
X037264Y012686D01*
X037173Y012821D02*
X037083Y012686D01*
X037354Y013615D02*
X037264Y013705D01*
X028424Y013184D02*
X028424Y013093D01*
X028379Y013048D01*
X028244Y013048D01*
X028244Y012958D02*
X028244Y013229D01*
X028379Y013229D01*
X028424Y013184D01*
X028130Y013184D02*
X028085Y013229D01*
X027994Y013229D01*
X027949Y013184D01*
X027949Y013139D01*
X027994Y013093D01*
X028085Y013093D01*
X028130Y013048D01*
X028130Y013003D01*
X028085Y012958D01*
X027994Y012958D01*
X027949Y013003D01*
X027835Y013003D02*
X027790Y012958D01*
X027700Y012958D01*
X027655Y013003D01*
X027655Y013184D01*
X027700Y013229D01*
X027790Y013229D01*
X027835Y013184D01*
X027548Y013229D02*
X027458Y013229D01*
X027503Y013229D02*
X027503Y012958D01*
X027458Y012958D02*
X027548Y012958D01*
X019604Y008538D02*
X019468Y008673D01*
X019468Y008493D01*
X019333Y008538D02*
X019604Y008538D01*
X019378Y008379D02*
X019378Y008334D01*
X019333Y008334D01*
X019333Y008379D01*
X019378Y008379D01*
X019378Y008231D02*
X019333Y008231D01*
X019378Y008231D02*
X019559Y008051D01*
X019604Y008051D01*
X019604Y008231D01*
X019604Y007642D02*
X019333Y007642D01*
X019423Y007642D02*
X019514Y007507D01*
X019423Y007642D02*
X019333Y007507D01*
X018354Y007642D02*
X018083Y007642D01*
X018173Y007642D02*
X018263Y007507D01*
X018173Y007642D02*
X018083Y007507D01*
X018309Y008051D02*
X018128Y008231D01*
X018083Y008231D01*
X018083Y008334D02*
X018083Y008379D01*
X018128Y008379D01*
X018128Y008334D01*
X018083Y008334D01*
X018083Y008538D02*
X018354Y008538D01*
X018218Y008673D01*
X018218Y008493D01*
X018354Y008231D02*
X018354Y008051D01*
X018309Y008051D01*
X017074Y008104D02*
X017029Y008059D01*
X016848Y008239D01*
X016803Y008194D01*
X016803Y008104D01*
X016848Y008059D01*
X017029Y008059D01*
X017074Y008104D02*
X017074Y008194D01*
X017029Y008239D01*
X016848Y008239D01*
X016848Y008354D02*
X016893Y008354D01*
X016939Y008399D01*
X016939Y008534D01*
X016848Y008534D01*
X016803Y008489D01*
X016803Y008399D01*
X016848Y008354D01*
X016939Y008534D02*
X017029Y008444D01*
X017074Y008354D01*
X017074Y008648D02*
X017074Y008828D01*
X016939Y008828D01*
X016984Y008738D01*
X016984Y008693D01*
X016939Y008648D01*
X016848Y008648D01*
X016803Y008693D01*
X016803Y008783D01*
X016848Y008828D01*
X015824Y008828D02*
X015824Y008648D01*
X015733Y008693D02*
X015688Y008648D01*
X015598Y008648D01*
X015553Y008693D01*
X015553Y008783D01*
X015598Y008828D01*
X015688Y008828D02*
X015733Y008738D01*
X015733Y008693D01*
X015688Y008828D02*
X015824Y008828D01*
X015688Y008534D02*
X015688Y008399D01*
X015643Y008354D01*
X015598Y008354D01*
X015553Y008399D01*
X015553Y008489D01*
X015598Y008534D01*
X015688Y008534D01*
X015779Y008444D01*
X015824Y008354D01*
X015779Y008239D02*
X015824Y008194D01*
X015824Y008104D01*
X015779Y008059D01*
X015598Y008239D01*
X015553Y008194D01*
X015553Y008104D01*
X015598Y008059D01*
X015779Y008059D01*
X015779Y008239D02*
X015598Y008239D01*
X015553Y007650D02*
X015824Y007650D01*
X015824Y007515D01*
X015779Y007470D01*
X015688Y007470D01*
X015643Y007515D01*
X015643Y007650D01*
X015643Y007560D02*
X015553Y007470D01*
X014636Y007757D02*
X014366Y007757D01*
X014456Y007757D02*
X014546Y007622D01*
X014456Y007757D02*
X014366Y007622D01*
X014411Y008166D02*
X014366Y008211D01*
X014366Y008301D01*
X014411Y008346D01*
X014591Y008166D01*
X014411Y008166D01*
X014591Y008166D02*
X014636Y008211D01*
X014636Y008301D01*
X014591Y008346D01*
X014411Y008346D01*
X014366Y008461D02*
X014366Y008641D01*
X014366Y008551D02*
X014636Y008551D01*
X014546Y008641D01*
X013354Y008708D02*
X013083Y008708D01*
X013083Y008798D02*
X013083Y008618D01*
X013128Y008504D02*
X013309Y008324D01*
X013128Y008324D01*
X013083Y008369D01*
X013083Y008459D01*
X013128Y008504D01*
X013309Y008504D01*
X013354Y008459D01*
X013354Y008369D01*
X013309Y008324D01*
X013309Y008209D02*
X013354Y008164D01*
X013354Y008074D01*
X013309Y008029D01*
X013128Y008209D01*
X013083Y008164D01*
X013083Y008074D01*
X013128Y008029D01*
X013309Y008029D01*
X013309Y008209D02*
X013128Y008209D01*
X013354Y008708D02*
X013264Y008798D01*
X013354Y007620D02*
X013083Y007620D01*
X013173Y007620D02*
X013083Y007485D01*
X013173Y007620D02*
X013264Y007485D01*
X011933Y007688D02*
X011753Y007688D01*
X011933Y007869D01*
X011933Y007914D01*
X011888Y007959D01*
X011798Y007959D01*
X011753Y007914D01*
X011639Y007914D02*
X011458Y007733D01*
X011503Y007688D01*
X011593Y007688D01*
X011639Y007733D01*
X011639Y007914D01*
X011593Y007959D01*
X011503Y007959D01*
X011458Y007914D01*
X011458Y007733D01*
X011344Y007733D02*
X011299Y007688D01*
X011209Y007688D01*
X011164Y007733D01*
X011344Y007914D01*
X011344Y007733D01*
X011164Y007733D02*
X011164Y007914D01*
X011209Y007959D01*
X011299Y007959D01*
X011344Y007914D01*
X011049Y007959D02*
X010869Y007959D01*
X010869Y007823D01*
X010959Y007869D01*
X011004Y007869D01*
X011049Y007823D01*
X011049Y007733D01*
X011004Y007688D01*
X010914Y007688D01*
X010869Y007733D01*
X010664Y007823D02*
X010574Y007823D01*
X010574Y007688D02*
X010574Y007959D01*
X010755Y007959D01*
X010468Y007959D02*
X010378Y007959D01*
X010423Y007959D02*
X010423Y007688D01*
X010378Y007688D02*
X010468Y007688D01*
X010264Y007688D02*
X010264Y007959D01*
X010083Y007959D02*
X010264Y007688D01*
X010083Y007688D02*
X010083Y007959D01*
X007636Y007051D02*
X007366Y007051D01*
X007366Y007141D02*
X007366Y006961D01*
X007411Y006846D02*
X007591Y006666D01*
X007411Y006666D01*
X007366Y006711D01*
X007366Y006801D01*
X007411Y006846D01*
X007591Y006846D01*
X007636Y006801D01*
X007636Y006711D01*
X007591Y006666D01*
X007636Y006257D02*
X007366Y006257D01*
X007456Y006257D02*
X007546Y006122D01*
X007456Y006257D02*
X007366Y006122D01*
X006449Y006257D02*
X006178Y006257D01*
X006268Y006257D02*
X006359Y006122D01*
X006268Y006257D02*
X006178Y006122D01*
X006178Y006666D02*
X006178Y006846D01*
X006359Y006666D01*
X006404Y006666D01*
X006449Y006711D01*
X006449Y006801D01*
X006404Y006846D01*
X006404Y006961D02*
X006449Y007006D01*
X006449Y007096D01*
X006404Y007141D01*
X006404Y006961D02*
X006359Y006961D01*
X006178Y007141D01*
X006178Y006961D01*
X005509Y007636D02*
X005554Y007681D01*
X005554Y007771D01*
X005509Y007816D01*
X005464Y007816D01*
X005418Y007771D01*
X005418Y007636D01*
X005328Y007636D02*
X005509Y007636D01*
X005328Y007636D02*
X005283Y007681D01*
X005283Y007771D01*
X005328Y007816D01*
X005283Y007931D02*
X005283Y008111D01*
X005283Y008021D02*
X005554Y008021D01*
X005464Y008111D01*
X005464Y008226D02*
X005418Y008271D01*
X005418Y008361D01*
X005464Y008406D01*
X005509Y008406D01*
X005554Y008361D01*
X005554Y008271D01*
X005509Y008226D01*
X005464Y008226D01*
X005418Y008271D02*
X005373Y008226D01*
X005328Y008226D01*
X005283Y008271D01*
X005283Y008361D01*
X005328Y008406D01*
X005373Y008406D01*
X005418Y008361D01*
X005418Y008520D02*
X005328Y008520D01*
X005283Y008565D01*
X005283Y008655D01*
X005328Y008700D01*
X005418Y008700D02*
X005464Y008610D01*
X005464Y008565D01*
X005418Y008520D01*
X005554Y008520D02*
X005554Y008700D01*
X005418Y008700D01*
X005283Y008815D02*
X005554Y008815D01*
X005554Y008995D02*
X005283Y008815D01*
X005283Y008995D02*
X005554Y008995D01*
X005554Y009200D02*
X005283Y009200D01*
X005283Y009290D02*
X005283Y009110D01*
X005464Y009290D02*
X005554Y009200D01*
X004020Y009205D02*
X003750Y009205D01*
X003750Y009295D02*
X003750Y009115D01*
X003750Y009001D02*
X004020Y009001D01*
X003750Y008821D01*
X004020Y008821D01*
X004020Y008706D02*
X003885Y008706D01*
X003930Y008616D01*
X003930Y008571D01*
X003885Y008526D01*
X003795Y008526D01*
X003750Y008571D01*
X003750Y008661D01*
X003795Y008706D01*
X004020Y008706D02*
X004020Y008526D01*
X003975Y008411D02*
X004020Y008366D01*
X004020Y008276D01*
X003975Y008231D01*
X003930Y008231D01*
X003885Y008276D01*
X003885Y008366D01*
X003930Y008411D01*
X003975Y008411D01*
X003885Y008366D02*
X003840Y008411D01*
X003795Y008411D01*
X003750Y008366D01*
X003750Y008276D01*
X003795Y008231D01*
X003840Y008231D01*
X003885Y008276D01*
X003930Y008117D02*
X004020Y008027D01*
X003750Y008027D01*
X003750Y008117D02*
X003750Y007937D01*
X003795Y007822D02*
X003750Y007777D01*
X003750Y007687D01*
X003795Y007642D01*
X003975Y007642D01*
X004020Y007687D01*
X004020Y007777D01*
X003975Y007822D01*
X003930Y007822D01*
X003885Y007777D01*
X003885Y007642D01*
X002626Y008337D02*
X002401Y008337D01*
X002356Y008382D01*
X002356Y008427D01*
X002446Y008472D02*
X002446Y008337D01*
X002446Y008472D02*
X002491Y008517D01*
X002626Y008517D01*
X002626Y008628D02*
X002626Y008673D01*
X002536Y008763D01*
X002446Y008763D02*
X002626Y008763D01*
X002581Y008877D02*
X002536Y008877D01*
X002536Y009058D01*
X002581Y009058D02*
X002626Y009013D01*
X002626Y008922D01*
X002581Y008877D01*
X002446Y008922D02*
X002446Y009013D01*
X002491Y009058D01*
X002581Y009058D01*
X002626Y009164D02*
X002626Y009254D01*
X002671Y009209D02*
X002491Y009209D01*
X002446Y009164D01*
X002446Y009360D02*
X002491Y009405D01*
X002671Y009405D01*
X002626Y009450D02*
X002626Y009360D01*
X002581Y009565D02*
X002446Y009565D01*
X002446Y009700D01*
X002491Y009745D01*
X002536Y009700D01*
X002536Y009565D01*
X002581Y009565D02*
X002626Y009610D01*
X002626Y009700D01*
X002626Y009860D02*
X002581Y009905D01*
X002581Y010040D01*
X002716Y010040D02*
X002716Y009905D01*
X002671Y009860D01*
X002626Y009860D01*
X002581Y009905D02*
X002536Y009860D01*
X002491Y009860D01*
X002446Y009905D01*
X002446Y010040D01*
X002716Y010040D01*
X003930Y009295D02*
X004020Y009205D01*
X005583Y011001D02*
X005583Y011271D01*
X005673Y011181D01*
X005764Y011271D01*
X005764Y011001D01*
X005878Y011046D02*
X005923Y011001D01*
X006013Y011001D01*
X006058Y011046D01*
X006173Y011091D02*
X006308Y011091D01*
X006353Y011136D01*
X006353Y011226D01*
X006308Y011271D01*
X006173Y011271D01*
X006173Y011001D01*
X006058Y011226D02*
X006013Y011271D01*
X005923Y011271D01*
X005878Y011226D01*
X005878Y011046D01*
X006467Y011001D02*
X006647Y011001D01*
X006557Y011001D02*
X006557Y011271D01*
X006467Y011181D01*
X006762Y011181D02*
X006762Y011226D01*
X006807Y011271D01*
X006897Y011271D01*
X006942Y011226D01*
X006942Y011181D01*
X006897Y011136D01*
X006807Y011136D01*
X006762Y011181D01*
X006807Y011136D02*
X006762Y011091D01*
X006762Y011046D01*
X006807Y011001D01*
X006897Y011001D01*
X006942Y011046D01*
X006942Y011091D01*
X006897Y011136D01*
X007057Y011226D02*
X007102Y011271D01*
X007192Y011271D01*
X007237Y011226D01*
X007237Y011181D01*
X007057Y011001D01*
X007237Y011001D01*
X007351Y011046D02*
X007396Y011001D01*
X007486Y011001D01*
X007531Y011046D01*
X007531Y011091D01*
X007486Y011136D01*
X007351Y011136D01*
X007351Y011046D01*
X007351Y011136D02*
X007441Y011226D01*
X007531Y011271D01*
X007646Y011226D02*
X007646Y011181D01*
X007691Y011136D01*
X007781Y011136D01*
X007826Y011091D01*
X007826Y011046D01*
X007781Y011001D01*
X007691Y011001D01*
X007646Y011046D01*
X007646Y011226D02*
X007691Y011271D01*
X007781Y011271D01*
X007826Y011226D01*
X006545Y013521D02*
X006410Y013521D01*
X006365Y013566D01*
X006365Y013656D01*
X006410Y013701D01*
X006545Y013701D01*
X006213Y013701D02*
X006213Y013521D01*
X006168Y013521D02*
X006258Y013521D01*
X006213Y013701D02*
X006168Y013701D01*
X006213Y013791D02*
X006213Y013836D01*
X006271Y014021D02*
X006271Y014201D01*
X006361Y014201D02*
X006406Y014201D01*
X006361Y014201D02*
X006271Y014111D01*
X006156Y014111D02*
X005976Y014111D01*
X005976Y014156D02*
X006021Y014201D01*
X006111Y014201D01*
X006156Y014156D01*
X006156Y014111D01*
X006111Y014021D02*
X006021Y014021D01*
X005976Y014066D01*
X005976Y014156D01*
X005862Y014201D02*
X005862Y014066D01*
X005817Y014021D01*
X005772Y014066D01*
X005727Y014021D01*
X005682Y014066D01*
X005682Y014201D01*
X005567Y014156D02*
X005567Y014066D01*
X005522Y014021D01*
X005432Y014021D01*
X005387Y014066D01*
X005387Y014156D01*
X005432Y014201D01*
X005522Y014201D01*
X005567Y014156D01*
X005272Y014156D02*
X005227Y014111D01*
X005092Y014111D01*
X005092Y014021D02*
X005092Y014291D01*
X005227Y014291D01*
X005272Y014246D01*
X005272Y014156D01*
X005378Y014521D02*
X005468Y014521D01*
X005514Y014566D01*
X005628Y014566D02*
X005673Y014611D01*
X005808Y014611D01*
X005808Y014656D02*
X005808Y014521D01*
X005673Y014521D01*
X005628Y014566D01*
X005673Y014701D02*
X005763Y014701D01*
X005808Y014656D01*
X005923Y014701D02*
X006058Y014701D01*
X006103Y014656D01*
X006103Y014566D01*
X006058Y014521D01*
X005923Y014521D01*
X005923Y014791D01*
X006217Y014791D02*
X006262Y014791D01*
X006262Y014521D01*
X006217Y014521D02*
X006307Y014521D01*
X006414Y014566D02*
X006414Y014656D01*
X006459Y014701D01*
X006549Y014701D01*
X006594Y014656D01*
X006594Y014611D01*
X006414Y014611D01*
X006414Y014566D02*
X006459Y014521D01*
X006549Y014521D01*
X006708Y015271D02*
X006889Y015271D01*
X006798Y015271D02*
X006798Y015541D01*
X006708Y015451D01*
X007003Y015496D02*
X007048Y015541D01*
X007138Y015541D01*
X007183Y015496D01*
X007003Y015316D01*
X007048Y015271D01*
X007138Y015271D01*
X007183Y015316D01*
X007183Y015496D01*
X007003Y015496D02*
X007003Y015316D01*
X007592Y015316D02*
X007637Y015271D01*
X007772Y015271D01*
X007772Y015451D01*
X007887Y015406D02*
X007977Y015406D01*
X007887Y015271D02*
X007887Y015541D01*
X008067Y015541D01*
X007592Y015451D02*
X007592Y015316D01*
X005718Y016045D02*
X005538Y016045D01*
X005538Y015775D01*
X005424Y015775D02*
X005424Y015910D01*
X005378Y015955D01*
X005243Y015955D01*
X005243Y015775D01*
X005538Y015910D02*
X005628Y015910D01*
X004834Y016000D02*
X004834Y015820D01*
X004789Y015775D01*
X004699Y015775D01*
X004654Y015820D01*
X004834Y016000D01*
X004789Y016045D01*
X004699Y016045D01*
X004654Y016000D01*
X004654Y015820D01*
X004540Y015820D02*
X004495Y015775D01*
X004404Y015775D01*
X004359Y015820D01*
X004540Y016000D01*
X004540Y015820D01*
X004540Y016000D02*
X004495Y016045D01*
X004404Y016045D01*
X004359Y016000D01*
X004359Y015820D01*
X004245Y015775D02*
X004065Y015775D01*
X004155Y015775D02*
X004155Y016045D01*
X004065Y015955D01*
X004139Y014791D02*
X003958Y014791D01*
X003958Y014521D01*
X003958Y014656D02*
X004048Y014656D01*
X004253Y014791D02*
X004433Y014791D01*
X004343Y014791D02*
X004343Y014521D01*
X004548Y014521D02*
X004548Y014791D01*
X004683Y014791D01*
X004728Y014746D01*
X004728Y014566D01*
X004683Y014521D01*
X004548Y014521D01*
X004503Y014291D02*
X004503Y014111D01*
X004593Y014021D01*
X004683Y014111D01*
X004683Y014291D01*
X004842Y014521D02*
X004932Y014521D01*
X004887Y014521D02*
X004887Y014791D01*
X004842Y014791D02*
X004932Y014791D01*
X005333Y014746D02*
X005333Y014566D01*
X005378Y014521D01*
X005333Y014746D02*
X005378Y014791D01*
X005468Y014791D01*
X005514Y014746D01*
X004389Y014291D02*
X004208Y014291D01*
X004208Y014156D01*
X004298Y014201D01*
X004343Y014201D01*
X004389Y014156D01*
X004389Y014066D01*
X004343Y014021D01*
X004253Y014021D01*
X004208Y014066D01*
X004093Y013791D02*
X004139Y013746D01*
X004139Y013701D01*
X004093Y013656D01*
X004139Y013611D01*
X004139Y013566D01*
X004093Y013521D01*
X004003Y013521D01*
X003958Y013566D01*
X004048Y013656D02*
X004093Y013656D01*
X004093Y013791D02*
X004003Y013791D01*
X003958Y013746D01*
X004253Y013566D02*
X004253Y013521D01*
X004298Y013521D01*
X004298Y013566D01*
X004253Y013566D01*
X004400Y013566D02*
X004445Y013521D01*
X004535Y013521D01*
X004580Y013566D01*
X004580Y013611D01*
X004535Y013656D01*
X004490Y013656D01*
X004535Y013656D02*
X004580Y013701D01*
X004580Y013746D01*
X004535Y013791D01*
X004445Y013791D01*
X004400Y013746D01*
X004695Y013791D02*
X004695Y013611D01*
X004785Y013521D01*
X004875Y013611D01*
X004875Y013791D01*
X005284Y013791D02*
X005284Y013521D01*
X005464Y013521D01*
X005579Y013566D02*
X005624Y013521D01*
X005714Y013521D01*
X005759Y013566D01*
X005759Y013656D01*
X005714Y013701D01*
X005624Y013701D01*
X005579Y013656D01*
X005579Y013566D01*
X005874Y013566D02*
X005919Y013521D01*
X006054Y013521D01*
X006054Y013476D02*
X006054Y013701D01*
X005919Y013701D01*
X005874Y013656D01*
X005874Y013566D01*
X005964Y013431D02*
X006009Y013431D01*
X006054Y013476D01*
X011594Y013555D02*
X011774Y013555D01*
X011729Y013690D02*
X011594Y013555D01*
X011729Y013420D02*
X011729Y013690D01*
X011889Y013690D02*
X012069Y013690D01*
X012069Y013645D01*
X011889Y013465D01*
X011889Y013420D01*
X012478Y013420D02*
X012478Y013690D01*
X012613Y013600D02*
X012478Y013510D01*
X012613Y013420D01*
X012613Y014920D02*
X012478Y015010D01*
X012613Y015100D01*
X012478Y015190D02*
X012478Y014920D01*
X012069Y014965D02*
X012069Y015145D01*
X012024Y015190D01*
X011934Y015190D01*
X011889Y015145D01*
X011889Y015100D01*
X011934Y015055D01*
X012069Y015055D01*
X012069Y014965D02*
X012024Y014920D01*
X011934Y014920D01*
X011889Y014965D01*
X011774Y014965D02*
X011729Y014920D01*
X011639Y014920D01*
X011594Y014965D01*
X011684Y015055D02*
X011729Y015055D01*
X011774Y015010D01*
X011774Y014965D01*
X011729Y015055D02*
X011774Y015100D01*
X011774Y015145D01*
X011729Y015190D01*
X011639Y015190D01*
X011594Y015145D01*
X011624Y016543D02*
X011804Y016543D01*
X011714Y016543D02*
X011714Y016814D01*
X011624Y016724D01*
X011919Y016769D02*
X011964Y016814D01*
X012054Y016814D01*
X012099Y016769D01*
X011919Y016588D01*
X011964Y016543D01*
X012054Y016543D01*
X012099Y016588D01*
X012099Y016769D01*
X011919Y016769D02*
X011919Y016588D01*
X012508Y016543D02*
X012508Y016814D01*
X012643Y016724D02*
X012508Y016633D01*
X012643Y016543D01*
X003406Y021138D02*
X003271Y021138D01*
X003226Y021183D01*
X003271Y021228D01*
X003406Y021228D01*
X003406Y021273D02*
X003406Y021138D01*
X003406Y021273D02*
X003361Y021318D01*
X003271Y021318D01*
X003112Y021273D02*
X003112Y021138D01*
X003112Y021273D02*
X003067Y021318D01*
X002932Y021318D01*
X002932Y021138D01*
X002817Y021138D02*
X002817Y021273D01*
X002772Y021318D01*
X002637Y021318D01*
X002637Y021138D01*
X002522Y021228D02*
X002342Y021228D01*
X002342Y021183D02*
X002342Y021273D01*
X002387Y021318D01*
X002477Y021318D01*
X002522Y021273D01*
X002522Y021228D01*
X002477Y021138D02*
X002387Y021138D01*
X002342Y021183D01*
X002236Y021138D02*
X002191Y021183D01*
X002191Y021364D01*
X002146Y021318D02*
X002236Y021318D01*
X002031Y021273D02*
X002031Y021138D01*
X002031Y021273D02*
X001986Y021318D01*
X001851Y021318D01*
X001851Y021138D01*
X001737Y021138D02*
X001737Y021318D01*
X001647Y021409D01*
X001557Y021318D01*
X001557Y021138D01*
X001557Y021273D02*
X001737Y021273D01*
X016803Y007650D02*
X017074Y007650D01*
X017074Y007515D01*
X017029Y007470D01*
X016939Y007470D01*
X016893Y007515D01*
X016893Y007650D01*
X016893Y007560D02*
X016803Y007470D01*
X011859Y004989D02*
X011859Y004898D01*
X011814Y004853D01*
X011679Y004853D01*
X011679Y004763D02*
X011679Y005034D01*
X011814Y005034D01*
X011859Y004989D01*
X011769Y004853D02*
X011859Y004763D01*
X011270Y004808D02*
X011270Y004989D01*
X011089Y004808D01*
X011134Y004763D01*
X011225Y004763D01*
X011270Y004808D01*
X011089Y004808D02*
X011089Y004989D01*
X011134Y005034D01*
X011225Y005034D01*
X011270Y004989D01*
X010975Y004989D02*
X010795Y004808D01*
X010840Y004763D01*
X010930Y004763D01*
X010975Y004808D01*
X010975Y004989D01*
X010930Y005034D01*
X010840Y005034D01*
X010795Y004989D01*
X010795Y004808D01*
X010680Y004763D02*
X010500Y004763D01*
X010590Y004763D02*
X010590Y005034D01*
X010500Y004944D01*
X007636Y007051D02*
X007546Y007141D01*
X005104Y005693D02*
X004833Y005693D01*
X004833Y005783D02*
X004833Y005603D01*
X004878Y005489D02*
X005059Y005309D01*
X004878Y005309D01*
X004833Y005354D01*
X004833Y005444D01*
X004878Y005489D01*
X005059Y005489D01*
X005104Y005444D01*
X005104Y005354D01*
X005059Y005309D01*
X005059Y005194D02*
X005104Y005149D01*
X005104Y005059D01*
X005059Y005014D01*
X004878Y005194D01*
X004833Y005149D01*
X004833Y005059D01*
X004878Y005014D01*
X005059Y005014D01*
X005059Y005194D02*
X004878Y005194D01*
X005104Y005693D02*
X005014Y005783D01*
X005014Y004605D02*
X004878Y004605D01*
X004833Y004560D01*
X004833Y004425D01*
X005014Y004425D01*
X004968Y004310D02*
X004968Y004220D01*
X004833Y004310D02*
X005104Y004310D01*
X005104Y004130D01*
X005054Y003376D02*
X005099Y003331D01*
X004919Y003151D01*
X004964Y003106D01*
X005054Y003106D01*
X005099Y003151D01*
X005099Y003331D01*
X005054Y003376D02*
X004964Y003376D01*
X004919Y003331D01*
X004919Y003151D01*
X004804Y003106D02*
X004624Y003106D01*
X004714Y003106D02*
X004714Y003376D01*
X004624Y003286D01*
X005508Y003196D02*
X005643Y003286D01*
X005508Y003196D02*
X005643Y003106D01*
X005508Y003106D02*
X005508Y003376D01*
X005383Y002649D02*
X005383Y002604D01*
X011231Y002559D02*
X011231Y002514D01*
X011276Y002468D01*
X011366Y002468D01*
X011411Y002423D01*
X011411Y002378D01*
X011366Y002333D01*
X011276Y002333D01*
X011231Y002378D01*
X011231Y002559D02*
X011276Y002604D01*
X011366Y002604D01*
X011411Y002559D01*
X011525Y002468D02*
X011570Y002514D01*
X011660Y002514D01*
X011705Y002468D01*
X011705Y002423D01*
X011525Y002423D01*
X011525Y002378D02*
X011525Y002468D01*
X011525Y002378D02*
X011570Y002333D01*
X011660Y002333D01*
X011820Y002333D02*
X011820Y002514D01*
X011955Y002514D01*
X012000Y002468D01*
X012000Y002333D01*
X012115Y002333D02*
X012250Y002333D01*
X012295Y002378D01*
X012250Y002423D01*
X012160Y002423D01*
X012115Y002468D01*
X012160Y002514D01*
X012295Y002514D01*
X021250Y003340D02*
X021295Y003295D01*
X021385Y003295D01*
X021430Y003340D01*
X021430Y003430D01*
X021385Y003475D01*
X021340Y003475D01*
X021250Y003430D01*
X021250Y003565D01*
X021430Y003565D01*
X021545Y003430D02*
X021680Y003430D01*
X021725Y003385D01*
X021725Y003340D01*
X021680Y003295D01*
X021590Y003295D01*
X021545Y003340D01*
X021545Y003430D01*
X021635Y003520D01*
X021725Y003565D01*
X021839Y003520D02*
X021884Y003565D01*
X021975Y003565D01*
X022020Y003520D01*
X021839Y003340D01*
X021884Y003295D01*
X021975Y003295D01*
X022020Y003340D01*
X022020Y003520D01*
X021839Y003520D02*
X021839Y003340D01*
X022429Y003385D02*
X022564Y003385D01*
X022609Y003430D01*
X022609Y003520D01*
X022564Y003565D01*
X022429Y003565D01*
X022429Y003295D01*
X022519Y003385D02*
X022609Y003295D01*
X024227Y024243D02*
X024272Y024243D01*
X024317Y024288D01*
X024317Y024514D01*
X024182Y024514D01*
X024137Y024468D01*
X024137Y024378D01*
X024182Y024333D01*
X024317Y024333D01*
X024432Y024378D02*
X024477Y024423D01*
X024612Y024423D01*
X024612Y024468D02*
X024612Y024333D01*
X024477Y024333D01*
X024432Y024378D01*
X024477Y024514D02*
X024567Y024514D01*
X024612Y024468D01*
X024726Y024378D02*
X024771Y024333D01*
X024861Y024333D01*
X024906Y024378D01*
X024906Y024423D01*
X024861Y024468D01*
X024816Y024468D01*
X024861Y024468D02*
X024906Y024514D01*
X024906Y024559D01*
X024861Y024604D01*
X024771Y024604D01*
X024726Y024559D01*
X025021Y024559D02*
X025066Y024604D01*
X025156Y024604D01*
X025201Y024559D01*
X025201Y024514D01*
X025021Y024333D01*
X025201Y024333D01*
X025316Y024378D02*
X025316Y024423D01*
X025361Y024468D01*
X025451Y024468D01*
X025496Y024423D01*
X025496Y024378D01*
X025451Y024333D01*
X025361Y024333D01*
X025316Y024378D01*
X025361Y024468D02*
X025316Y024514D01*
X025316Y024559D01*
X025361Y024604D01*
X025451Y024604D01*
X025496Y024559D01*
X025496Y024514D01*
X025451Y024468D01*
X024022Y024468D02*
X024022Y024423D01*
X023842Y024423D01*
X023842Y024378D02*
X023842Y024468D01*
X023887Y024514D01*
X023977Y024514D01*
X024022Y024468D01*
X023977Y024333D02*
X023887Y024333D01*
X023842Y024378D01*
X023728Y024333D02*
X023728Y024468D01*
X023683Y024514D01*
X023638Y024468D01*
X023638Y024333D01*
X023548Y024333D02*
X023548Y024514D01*
X023593Y024514D01*
X023638Y024468D01*
X023433Y024604D02*
X023253Y024604D01*
X023343Y024604D02*
X023343Y024333D01*
X023139Y024333D02*
X023139Y024514D01*
X023048Y024604D01*
X022958Y024514D01*
X022958Y024333D01*
X022958Y024468D02*
X023139Y024468D01*
D11*
X001828Y001289D02*
X001828Y001048D01*
X001988Y001048D01*
X002086Y001048D02*
X002166Y001048D01*
X002126Y001048D02*
X002126Y001208D01*
X002086Y001208D01*
X002126Y001289D02*
X002126Y001329D01*
X002258Y001168D02*
X002258Y001088D01*
X002298Y001048D01*
X002418Y001048D01*
X002515Y001088D02*
X002555Y001048D01*
X002635Y001048D01*
X002675Y001128D02*
X002515Y001128D01*
X002515Y001088D02*
X002515Y001168D01*
X002555Y001208D01*
X002635Y001208D01*
X002675Y001168D01*
X002675Y001128D01*
X002773Y001048D02*
X002773Y001208D01*
X002893Y001208D01*
X002933Y001168D01*
X002933Y001048D01*
X003031Y001048D02*
X003151Y001048D01*
X003191Y001088D01*
X003151Y001128D01*
X003071Y001128D01*
X003031Y001168D01*
X003071Y001208D01*
X003191Y001208D01*
X003289Y001168D02*
X003329Y001208D01*
X003409Y001208D01*
X003449Y001168D01*
X003449Y001128D01*
X003289Y001128D01*
X003289Y001088D02*
X003289Y001168D01*
X003289Y001088D02*
X003329Y001048D01*
X003409Y001048D01*
X003547Y001088D02*
X003587Y001048D01*
X003707Y001048D01*
X003707Y001289D01*
X003707Y001208D02*
X003587Y001208D01*
X003547Y001168D01*
X003547Y001088D01*
X004062Y001088D02*
X004102Y001048D01*
X004222Y001048D01*
X004222Y001208D01*
X004320Y001208D02*
X004440Y001208D01*
X004480Y001168D01*
X004480Y001048D01*
X004578Y001088D02*
X004618Y001048D01*
X004738Y001048D01*
X004738Y001289D01*
X004738Y001208D02*
X004618Y001208D01*
X004578Y001168D01*
X004578Y001088D01*
X004836Y001088D02*
X004876Y001048D01*
X004956Y001048D01*
X004996Y001128D02*
X004836Y001128D01*
X004836Y001088D02*
X004836Y001168D01*
X004876Y001208D01*
X004956Y001208D01*
X004996Y001168D01*
X004996Y001128D01*
X005093Y001128D02*
X005173Y001208D01*
X005213Y001208D01*
X005093Y001208D02*
X005093Y001048D01*
X005566Y001208D02*
X005646Y001208D01*
X005606Y001249D02*
X005606Y001088D01*
X005646Y001048D01*
X005738Y001048D02*
X005738Y001289D01*
X005778Y001208D02*
X005858Y001208D01*
X005898Y001168D01*
X005898Y001048D01*
X005996Y001088D02*
X005996Y001168D01*
X006036Y001208D01*
X006116Y001208D01*
X006156Y001168D01*
X006156Y001128D01*
X005996Y001128D01*
X005996Y001088D02*
X006036Y001048D01*
X006116Y001048D01*
X005778Y001208D02*
X005738Y001168D01*
X006511Y001088D02*
X006551Y001048D01*
X006631Y001048D01*
X006671Y001088D01*
X006769Y001048D02*
X006769Y001289D01*
X006929Y001289D01*
X007027Y001289D02*
X007147Y001289D01*
X007187Y001249D01*
X007187Y001168D01*
X007147Y001128D01*
X007027Y001128D01*
X007027Y001048D02*
X007027Y001289D01*
X007107Y001128D02*
X007187Y001048D01*
X007285Y001048D02*
X007285Y001289D01*
X007445Y001048D01*
X007445Y001289D01*
X007800Y001249D02*
X007800Y001088D01*
X007840Y001048D01*
X007920Y001048D01*
X007960Y001088D01*
X007960Y001249D01*
X007920Y001289D01*
X007840Y001289D01*
X007800Y001249D01*
X008058Y001208D02*
X008058Y000968D01*
X008058Y001048D02*
X008178Y001048D01*
X008218Y001088D01*
X008218Y001168D01*
X008178Y001208D01*
X008058Y001208D01*
X008316Y001168D02*
X008356Y001208D01*
X008436Y001208D01*
X008476Y001168D01*
X008476Y001128D01*
X008316Y001128D01*
X008316Y001088D02*
X008316Y001168D01*
X008316Y001088D02*
X008356Y001048D01*
X008436Y001048D01*
X008574Y001048D02*
X008574Y001208D01*
X008694Y001208D01*
X008734Y001168D01*
X008734Y001048D01*
X009089Y001048D02*
X009089Y001289D01*
X009089Y001168D02*
X009249Y001168D01*
X009249Y001048D02*
X009249Y001289D01*
X009387Y001208D02*
X009467Y001208D01*
X009507Y001168D01*
X009507Y001048D01*
X009387Y001048D01*
X009347Y001088D01*
X009387Y001128D01*
X009507Y001128D01*
X009605Y001128D02*
X009685Y001208D01*
X009725Y001208D01*
X009820Y001168D02*
X009860Y001208D01*
X009980Y001208D01*
X009980Y001289D02*
X009980Y001048D01*
X009860Y001048D01*
X009820Y001088D01*
X009820Y001168D01*
X009605Y001208D02*
X009605Y001048D01*
X010077Y001088D02*
X010117Y001048D01*
X010157Y001088D01*
X010197Y001048D01*
X010237Y001088D01*
X010237Y001208D01*
X010375Y001208D02*
X010455Y001208D01*
X010495Y001168D01*
X010495Y001048D01*
X010375Y001048D01*
X010335Y001088D01*
X010375Y001128D01*
X010495Y001128D01*
X010593Y001128D02*
X010673Y001208D01*
X010713Y001208D01*
X010808Y001168D02*
X010848Y001208D01*
X010928Y001208D01*
X010968Y001168D01*
X010968Y001128D01*
X010808Y001128D01*
X010808Y001088D02*
X010808Y001168D01*
X010808Y001088D02*
X010848Y001048D01*
X010928Y001048D01*
X010593Y001048D02*
X010593Y001208D01*
X010077Y001208D02*
X010077Y001088D01*
X011323Y001048D02*
X011484Y001048D01*
X011581Y001048D02*
X011661Y001048D01*
X011621Y001048D02*
X011621Y001208D01*
X011581Y001208D01*
X011621Y001289D02*
X011621Y001329D01*
X011753Y001168D02*
X011753Y001088D01*
X011793Y001048D01*
X011913Y001048D01*
X012011Y001088D02*
X012011Y001168D01*
X012051Y001208D01*
X012131Y001208D01*
X012171Y001168D01*
X012171Y001128D01*
X012011Y001128D01*
X012011Y001088D02*
X012051Y001048D01*
X012131Y001048D01*
X012269Y001048D02*
X012269Y001208D01*
X012389Y001208D01*
X012429Y001168D01*
X012429Y001048D01*
X012526Y001048D02*
X012646Y001048D01*
X012687Y001088D01*
X012646Y001128D01*
X012566Y001128D01*
X012526Y001168D01*
X012566Y001208D01*
X012687Y001208D01*
X012784Y001168D02*
X012824Y001208D01*
X012904Y001208D01*
X012944Y001168D01*
X012944Y001128D01*
X012784Y001128D01*
X012784Y001088D02*
X012784Y001168D01*
X012784Y001088D02*
X012824Y001048D01*
X012904Y001048D01*
X013300Y001128D02*
X013300Y001208D01*
X013380Y001289D01*
X013472Y001208D02*
X013472Y001088D01*
X013512Y001048D01*
X013552Y001088D01*
X013592Y001048D01*
X013632Y001088D01*
X013632Y001208D01*
X013729Y001208D02*
X013729Y001088D01*
X013769Y001048D01*
X013809Y001088D01*
X013850Y001048D01*
X013890Y001088D01*
X013890Y001208D01*
X013987Y001208D02*
X013987Y001088D01*
X014027Y001048D01*
X014067Y001088D01*
X014107Y001048D01*
X014147Y001088D01*
X014147Y001208D01*
X014245Y001088D02*
X014285Y001088D01*
X014285Y001048D01*
X014245Y001048D01*
X014245Y001088D01*
X014374Y001088D02*
X014414Y001048D01*
X014494Y001048D01*
X014534Y001088D01*
X014534Y001168D01*
X014494Y001208D01*
X014414Y001208D01*
X014374Y001168D01*
X014374Y001088D01*
X014632Y001048D02*
X014632Y001289D01*
X014672Y001208D02*
X014752Y001208D01*
X014792Y001168D01*
X014792Y001048D01*
X014890Y001088D02*
X014930Y001048D01*
X014970Y001088D01*
X015010Y001048D01*
X015050Y001088D01*
X015050Y001208D01*
X015147Y001208D02*
X015147Y001048D01*
X015147Y001128D02*
X015227Y001208D01*
X015267Y001208D01*
X015362Y001088D02*
X015402Y001088D01*
X015402Y001048D01*
X015362Y001048D01*
X015362Y001088D01*
X015491Y001088D02*
X015531Y001048D01*
X015611Y001048D01*
X015651Y001088D01*
X015651Y001168D01*
X015611Y001208D01*
X015531Y001208D01*
X015491Y001168D01*
X015491Y001088D01*
X015749Y001048D02*
X015749Y001208D01*
X015749Y001128D02*
X015829Y001208D01*
X015869Y001208D01*
X015964Y001168D02*
X015964Y001088D01*
X016004Y001048D01*
X016124Y001048D01*
X016124Y001008D02*
X016124Y001208D01*
X016004Y001208D01*
X015964Y001168D01*
X016044Y000968D02*
X016084Y000968D01*
X016124Y001008D01*
X016221Y001048D02*
X016382Y001289D01*
X016479Y001168D02*
X016479Y001088D01*
X016519Y001048D01*
X016639Y001048D01*
X016737Y001088D02*
X016737Y001168D01*
X016777Y001208D01*
X016857Y001208D01*
X016897Y001168D01*
X016897Y001128D01*
X016737Y001128D01*
X016737Y001088D02*
X016777Y001048D01*
X016857Y001048D01*
X016995Y001048D02*
X016995Y001208D01*
X016995Y001128D02*
X017075Y001208D01*
X017115Y001208D01*
X017210Y001208D02*
X017210Y001048D01*
X017370Y001048D02*
X017370Y001168D01*
X017330Y001208D01*
X017210Y001208D01*
X017468Y001168D02*
X017468Y001088D01*
X017508Y001048D01*
X017588Y001048D01*
X017628Y001088D01*
X017628Y001168D01*
X017588Y001208D01*
X017508Y001208D01*
X017468Y001168D01*
X017725Y001168D02*
X017765Y001208D01*
X017845Y001208D01*
X017885Y001168D01*
X017885Y001048D01*
X017983Y001048D02*
X018063Y001048D01*
X018023Y001048D02*
X018023Y001289D01*
X017983Y001289D01*
X018155Y001289D02*
X018235Y001208D01*
X018235Y001128D01*
X018155Y001048D01*
X017725Y001048D02*
X017725Y001289D01*
X016639Y001208D02*
X016519Y001208D01*
X016479Y001168D01*
X014890Y001208D02*
X014890Y001088D01*
X014672Y001208D02*
X014632Y001168D01*
X013380Y001048D02*
X013300Y001128D01*
X011913Y001208D02*
X011793Y001208D01*
X011753Y001168D01*
X011323Y001289D02*
X011323Y001048D01*
X006929Y001048D02*
X006769Y001048D01*
X006769Y001168D02*
X006849Y001168D01*
X006671Y001249D02*
X006631Y001289D01*
X006551Y001289D01*
X006511Y001249D01*
X006511Y001088D01*
X004320Y001048D02*
X004320Y001208D01*
X004062Y001208D02*
X004062Y001088D01*
X002418Y001208D02*
X002298Y001208D01*
X002258Y001168D01*
X005953Y015828D02*
X005953Y015962D01*
X006020Y016029D01*
X006087Y015962D01*
X006087Y015828D01*
X006174Y015862D02*
X006208Y015828D01*
X006308Y015828D01*
X006308Y015962D01*
X006395Y015962D02*
X006462Y015962D01*
X006429Y015995D02*
X006429Y015862D01*
X006462Y015828D01*
X006543Y015862D02*
X006576Y015828D01*
X006643Y015828D01*
X006676Y015862D01*
X006676Y015928D01*
X006643Y015962D01*
X006576Y015962D01*
X006543Y015928D01*
X006543Y015862D01*
X006764Y015928D02*
X006897Y015928D01*
X006985Y015895D02*
X007051Y015962D01*
X007085Y015962D01*
X007169Y015928D02*
X007202Y015962D01*
X007269Y015962D01*
X007302Y015928D01*
X007302Y015895D01*
X007169Y015895D01*
X007169Y015862D02*
X007169Y015928D01*
X007169Y015862D02*
X007202Y015828D01*
X007269Y015828D01*
X007390Y015828D02*
X007490Y015828D01*
X007523Y015862D01*
X007490Y015895D01*
X007423Y015895D01*
X007390Y015928D01*
X007423Y015962D01*
X007523Y015962D01*
X007611Y015928D02*
X007644Y015962D01*
X007711Y015962D01*
X007744Y015928D01*
X007744Y015895D01*
X007611Y015895D01*
X007611Y015862D02*
X007611Y015928D01*
X007611Y015862D02*
X007644Y015828D01*
X007711Y015828D01*
X007865Y015862D02*
X007898Y015828D01*
X007865Y015862D02*
X007865Y015995D01*
X007832Y015962D02*
X007898Y015962D01*
X006985Y015962D02*
X006985Y015828D01*
X006174Y015862D02*
X006174Y015962D01*
X006087Y015928D02*
X005953Y015928D01*
X033235Y008245D02*
X033235Y008112D01*
X033268Y008078D01*
X033335Y008078D01*
X033368Y008112D01*
X033368Y008178D01*
X033301Y008178D01*
X033235Y008245D02*
X033268Y008279D01*
X033335Y008279D01*
X033368Y008245D01*
X033456Y008279D02*
X033589Y008078D01*
X033589Y008279D01*
X033677Y008279D02*
X033777Y008279D01*
X033810Y008245D01*
X033810Y008112D01*
X033777Y008078D01*
X033677Y008078D01*
X033677Y008279D01*
X033456Y008279D02*
X033456Y008078D01*
X033453Y007279D02*
X033553Y007279D01*
X033587Y007245D01*
X033587Y007112D01*
X033553Y007078D01*
X033453Y007078D01*
X033453Y007279D01*
X033674Y007178D02*
X033808Y007178D01*
X033553Y006279D02*
X033453Y006279D01*
X033453Y006078D01*
X033553Y006078D01*
X033587Y006112D01*
X033587Y006245D01*
X033553Y006279D01*
X033674Y006178D02*
X033808Y006178D01*
X033741Y006245D02*
X033741Y006112D01*
D12*
X033133Y005933D02*
X033083Y005983D01*
X033083Y007883D01*
X033133Y007933D01*
X033133Y008083D01*
X033131Y008100D01*
X033127Y008117D01*
X033120Y008133D01*
X033110Y008147D01*
X033097Y008160D01*
X033083Y008170D01*
X033067Y008177D01*
X033050Y008181D01*
X033033Y008183D01*
X032333Y008183D01*
X032316Y008181D01*
X032299Y008177D01*
X032283Y008170D01*
X032269Y008160D01*
X032256Y008147D01*
X032246Y008133D01*
X032239Y008117D01*
X032235Y008100D01*
X032233Y008083D01*
X032233Y007933D01*
X032283Y007883D01*
X032283Y005983D01*
X032233Y005933D01*
X032233Y005783D01*
X032235Y005766D01*
X032239Y005749D01*
X032246Y005733D01*
X032256Y005719D01*
X032269Y005706D01*
X032283Y005696D01*
X032299Y005689D01*
X032316Y005685D01*
X032333Y005683D01*
X033033Y005683D01*
X033050Y005685D01*
X033067Y005689D01*
X033083Y005696D01*
X033097Y005706D01*
X033110Y005719D01*
X033120Y005733D01*
X033127Y005749D01*
X033131Y005766D01*
X033133Y005783D01*
X033133Y005933D01*
X029933Y006433D02*
X029933Y006883D01*
X029933Y006433D02*
X026933Y006433D01*
X026933Y006883D01*
X026933Y007483D02*
X026933Y007883D01*
X026933Y008483D02*
X026933Y008933D01*
X029933Y008933D01*
X029933Y008483D01*
X029933Y007883D02*
X029933Y007483D01*
X026083Y006733D02*
X026083Y005633D01*
X026081Y005616D01*
X026077Y005599D01*
X026070Y005583D01*
X026060Y005569D01*
X026047Y005556D01*
X026033Y005546D01*
X026017Y005539D01*
X026000Y005535D01*
X025983Y005533D01*
X025383Y005533D01*
X025366Y005535D01*
X025349Y005539D01*
X025333Y005546D01*
X025319Y005556D01*
X025306Y005569D01*
X025296Y005583D01*
X025289Y005599D01*
X025285Y005616D01*
X025283Y005633D01*
X025283Y006733D01*
X025285Y006750D01*
X025289Y006767D01*
X025296Y006783D01*
X025306Y006797D01*
X025319Y006810D01*
X025333Y006820D01*
X025349Y006827D01*
X025366Y006831D01*
X025383Y006833D01*
X025983Y006833D01*
X026000Y006831D01*
X026017Y006827D01*
X026033Y006820D01*
X026047Y006810D01*
X026060Y006797D01*
X026070Y006783D01*
X026077Y006767D01*
X026081Y006750D01*
X026083Y006733D01*
X025113Y006206D02*
X025113Y005161D01*
X023253Y005161D02*
X023253Y006206D01*
X022783Y005833D02*
X022783Y008983D01*
X022781Y009000D01*
X022777Y009017D01*
X022770Y009033D01*
X022760Y009047D01*
X022747Y009060D01*
X022733Y009070D01*
X022717Y009077D01*
X022700Y009081D01*
X022683Y009083D01*
X021683Y009083D01*
X021666Y009081D01*
X021649Y009077D01*
X021633Y009070D01*
X021619Y009060D01*
X021606Y009047D01*
X021596Y009033D01*
X021589Y009017D01*
X021585Y009000D01*
X021583Y008983D01*
X021583Y005833D01*
X019883Y007033D02*
X019883Y007183D01*
X019833Y007233D01*
X019833Y009133D01*
X019883Y009183D01*
X019883Y009333D01*
X019881Y009350D01*
X019877Y009367D01*
X019870Y009383D01*
X019860Y009397D01*
X019847Y009410D01*
X019833Y009420D01*
X019817Y009427D01*
X019800Y009431D01*
X019783Y009433D01*
X019083Y009433D01*
X019066Y009431D01*
X019049Y009427D01*
X019033Y009420D01*
X019019Y009410D01*
X019006Y009397D01*
X018996Y009383D01*
X018989Y009367D01*
X018985Y009350D01*
X018983Y009333D01*
X018983Y009183D01*
X019033Y009133D01*
X019033Y007233D01*
X018983Y007183D01*
X018983Y007033D01*
X018985Y007016D01*
X018989Y006999D01*
X018996Y006983D01*
X019006Y006969D01*
X019019Y006956D01*
X019033Y006946D01*
X019049Y006939D01*
X019066Y006935D01*
X019083Y006933D01*
X019783Y006933D01*
X019800Y006935D01*
X019817Y006939D01*
X019833Y006946D01*
X019847Y006956D01*
X019860Y006969D01*
X019870Y006983D01*
X019877Y006999D01*
X019881Y007016D01*
X019883Y007033D01*
X020233Y007533D02*
X020233Y008833D01*
X020235Y008859D01*
X020240Y008885D01*
X020248Y008910D01*
X020260Y008933D01*
X020274Y008955D01*
X020292Y008974D01*
X020311Y008992D01*
X020333Y009006D01*
X020356Y009018D01*
X020381Y009026D01*
X020407Y009031D01*
X020433Y009033D01*
X020933Y009033D01*
X020959Y009031D01*
X020985Y009026D01*
X021010Y009018D01*
X021033Y009006D01*
X021055Y008992D01*
X021074Y008974D01*
X021092Y008955D01*
X021106Y008933D01*
X021118Y008910D01*
X021126Y008885D01*
X021131Y008859D01*
X021133Y008833D01*
X021133Y007533D01*
X021131Y007507D01*
X021126Y007481D01*
X021118Y007456D01*
X021106Y007433D01*
X021092Y007411D01*
X021074Y007392D01*
X021055Y007374D01*
X021033Y007360D01*
X021010Y007348D01*
X020985Y007340D01*
X020959Y007335D01*
X020933Y007333D01*
X020433Y007333D01*
X020407Y007335D01*
X020381Y007340D01*
X020356Y007348D01*
X020333Y007360D01*
X020311Y007374D01*
X020292Y007392D01*
X020274Y007411D01*
X020260Y007433D01*
X020248Y007456D01*
X020240Y007481D01*
X020235Y007507D01*
X020233Y007533D01*
X018633Y007183D02*
X018633Y007033D01*
X018631Y007016D01*
X018627Y006999D01*
X018620Y006983D01*
X018610Y006969D01*
X018597Y006956D01*
X018583Y006946D01*
X018567Y006939D01*
X018550Y006935D01*
X018533Y006933D01*
X017833Y006933D01*
X017816Y006935D01*
X017799Y006939D01*
X017783Y006946D01*
X017769Y006956D01*
X017756Y006969D01*
X017746Y006983D01*
X017739Y006999D01*
X017735Y007016D01*
X017733Y007033D01*
X017733Y007183D01*
X017783Y007233D01*
X017783Y009133D01*
X017733Y009183D01*
X017733Y009333D01*
X017735Y009350D01*
X017739Y009367D01*
X017746Y009383D01*
X017756Y009397D01*
X017769Y009410D01*
X017783Y009420D01*
X017799Y009427D01*
X017816Y009431D01*
X017833Y009433D01*
X018533Y009433D01*
X018550Y009431D01*
X018567Y009427D01*
X018583Y009420D01*
X018597Y009410D01*
X018610Y009397D01*
X018620Y009383D01*
X018627Y009367D01*
X018631Y009350D01*
X018633Y009333D01*
X018633Y009183D01*
X018583Y009133D01*
X018583Y007233D01*
X018633Y007183D01*
X017383Y007183D02*
X017383Y007033D01*
X017381Y007016D01*
X017377Y006999D01*
X017370Y006983D01*
X017360Y006969D01*
X017347Y006956D01*
X017333Y006946D01*
X017317Y006939D01*
X017300Y006935D01*
X017283Y006933D01*
X016583Y006933D01*
X016566Y006935D01*
X016549Y006939D01*
X016533Y006946D01*
X016519Y006956D01*
X016506Y006969D01*
X016496Y006983D01*
X016489Y006999D01*
X016485Y007016D01*
X016483Y007033D01*
X016483Y007183D01*
X016533Y007233D01*
X016533Y009133D01*
X016483Y009183D01*
X016483Y009333D01*
X016485Y009350D01*
X016489Y009367D01*
X016496Y009383D01*
X016506Y009397D01*
X016519Y009410D01*
X016533Y009420D01*
X016549Y009427D01*
X016566Y009431D01*
X016583Y009433D01*
X017283Y009433D01*
X017300Y009431D01*
X017317Y009427D01*
X017333Y009420D01*
X017347Y009410D01*
X017360Y009397D01*
X017370Y009383D01*
X017377Y009367D01*
X017381Y009350D01*
X017383Y009333D01*
X017383Y009183D01*
X017333Y009133D01*
X017333Y007233D01*
X017383Y007183D01*
X016133Y007183D02*
X016133Y007033D01*
X016131Y007016D01*
X016127Y006999D01*
X016120Y006983D01*
X016110Y006969D01*
X016097Y006956D01*
X016083Y006946D01*
X016067Y006939D01*
X016050Y006935D01*
X016033Y006933D01*
X015333Y006933D01*
X015316Y006935D01*
X015299Y006939D01*
X015283Y006946D01*
X015269Y006956D01*
X015256Y006969D01*
X015246Y006983D01*
X015239Y006999D01*
X015235Y007016D01*
X015233Y007033D01*
X015233Y007183D01*
X015283Y007233D01*
X015283Y009133D01*
X015233Y009183D01*
X015233Y009333D01*
X015235Y009350D01*
X015239Y009367D01*
X015246Y009383D01*
X015256Y009397D01*
X015269Y009410D01*
X015283Y009420D01*
X015299Y009427D01*
X015316Y009431D01*
X015333Y009433D01*
X016033Y009433D01*
X016050Y009431D01*
X016067Y009427D01*
X016083Y009420D01*
X016097Y009410D01*
X016110Y009397D01*
X016120Y009383D01*
X016127Y009367D01*
X016131Y009350D01*
X016133Y009333D01*
X016133Y009183D01*
X016083Y009133D01*
X016083Y007233D01*
X016133Y007183D01*
X014883Y007183D02*
X014883Y007033D01*
X014881Y007016D01*
X014877Y006999D01*
X014870Y006983D01*
X014860Y006969D01*
X014847Y006956D01*
X014833Y006946D01*
X014817Y006939D01*
X014800Y006935D01*
X014783Y006933D01*
X014083Y006933D01*
X014066Y006935D01*
X014049Y006939D01*
X014033Y006946D01*
X014019Y006956D01*
X014006Y006969D01*
X013996Y006983D01*
X013989Y006999D01*
X013985Y007016D01*
X013983Y007033D01*
X013983Y007183D01*
X014033Y007233D01*
X014033Y009133D01*
X013983Y009183D01*
X013983Y009333D01*
X013985Y009350D01*
X013989Y009367D01*
X013996Y009383D01*
X014006Y009397D01*
X014019Y009410D01*
X014033Y009420D01*
X014049Y009427D01*
X014066Y009431D01*
X014083Y009433D01*
X014783Y009433D01*
X014800Y009431D01*
X014817Y009427D01*
X014833Y009420D01*
X014847Y009410D01*
X014860Y009397D01*
X014870Y009383D01*
X014877Y009367D01*
X014881Y009350D01*
X014883Y009333D01*
X014883Y009183D01*
X014833Y009133D01*
X014833Y007233D01*
X014883Y007183D01*
X013633Y007183D02*
X013633Y007033D01*
X013631Y007016D01*
X013627Y006999D01*
X013620Y006983D01*
X013610Y006969D01*
X013597Y006956D01*
X013583Y006946D01*
X013567Y006939D01*
X013550Y006935D01*
X013533Y006933D01*
X012833Y006933D01*
X012816Y006935D01*
X012799Y006939D01*
X012783Y006946D01*
X012769Y006956D01*
X012756Y006969D01*
X012746Y006983D01*
X012739Y006999D01*
X012735Y007016D01*
X012733Y007033D01*
X012733Y007183D01*
X012783Y007233D01*
X012783Y009133D01*
X012733Y009183D01*
X012733Y009333D01*
X012735Y009350D01*
X012739Y009367D01*
X012746Y009383D01*
X012756Y009397D01*
X012769Y009410D01*
X012783Y009420D01*
X012799Y009427D01*
X012816Y009431D01*
X012833Y009433D01*
X013533Y009433D01*
X013550Y009431D01*
X013567Y009427D01*
X013583Y009420D01*
X013597Y009410D01*
X013610Y009397D01*
X013620Y009383D01*
X013627Y009367D01*
X013631Y009350D01*
X013633Y009333D01*
X013633Y009183D01*
X013583Y009133D01*
X013583Y007233D01*
X013633Y007183D01*
X012333Y005383D02*
X012183Y005383D01*
X012133Y005333D01*
X010233Y005333D01*
X010183Y005383D01*
X010033Y005383D01*
X010016Y005381D01*
X009999Y005377D01*
X009983Y005370D01*
X009969Y005360D01*
X009956Y005347D01*
X009946Y005333D01*
X009939Y005317D01*
X009935Y005300D01*
X009933Y005283D01*
X009933Y004583D01*
X009935Y004566D01*
X009939Y004549D01*
X009946Y004533D01*
X009956Y004519D01*
X009969Y004506D01*
X009983Y004496D01*
X009999Y004489D01*
X010016Y004485D01*
X010033Y004483D01*
X010183Y004483D01*
X010233Y004533D01*
X012133Y004533D01*
X012183Y004483D01*
X012333Y004483D01*
X012350Y004485D01*
X012367Y004489D01*
X012383Y004496D01*
X012397Y004506D01*
X012410Y004519D01*
X012420Y004533D01*
X012427Y004549D01*
X012431Y004566D01*
X012433Y004583D01*
X012433Y005283D01*
X012431Y005300D01*
X012427Y005317D01*
X012420Y005333D01*
X012410Y005347D01*
X012397Y005360D01*
X012383Y005370D01*
X012367Y005377D01*
X012350Y005381D01*
X012333Y005383D01*
X007883Y005533D02*
X007883Y005683D01*
X007833Y005733D01*
X007833Y007633D01*
X007883Y007683D01*
X007883Y007833D01*
X007881Y007850D01*
X007877Y007867D01*
X007870Y007883D01*
X007860Y007897D01*
X007847Y007910D01*
X007833Y007920D01*
X007817Y007927D01*
X007800Y007931D01*
X007783Y007933D01*
X007083Y007933D01*
X007066Y007931D01*
X007049Y007927D01*
X007033Y007920D01*
X007019Y007910D01*
X007006Y007897D01*
X006996Y007883D01*
X006989Y007867D01*
X006985Y007850D01*
X006983Y007833D01*
X006983Y007683D01*
X007033Y007633D01*
X007033Y005733D01*
X006983Y005683D01*
X006983Y005533D01*
X006985Y005516D01*
X006989Y005499D01*
X006996Y005483D01*
X007006Y005469D01*
X007019Y005456D01*
X007033Y005446D01*
X007049Y005439D01*
X007066Y005435D01*
X007083Y005433D01*
X007783Y005433D01*
X007800Y005435D01*
X007817Y005439D01*
X007833Y005446D01*
X007847Y005456D01*
X007860Y005469D01*
X007870Y005483D01*
X007877Y005499D01*
X007881Y005516D01*
X007883Y005533D01*
X006696Y005533D02*
X006696Y005683D01*
X006646Y005733D01*
X006646Y007633D01*
X006696Y007683D01*
X006696Y007833D01*
X006694Y007850D01*
X006690Y007867D01*
X006683Y007883D01*
X006673Y007897D01*
X006660Y007910D01*
X006646Y007920D01*
X006630Y007927D01*
X006613Y007931D01*
X006596Y007933D01*
X005896Y007933D01*
X005879Y007931D01*
X005862Y007927D01*
X005846Y007920D01*
X005832Y007910D01*
X005819Y007897D01*
X005809Y007883D01*
X005802Y007867D01*
X005798Y007850D01*
X005796Y007833D01*
X005796Y007683D01*
X005846Y007633D01*
X005846Y005733D01*
X005796Y005683D01*
X005796Y005533D01*
X005798Y005516D01*
X005802Y005499D01*
X005809Y005483D01*
X005819Y005469D01*
X005832Y005456D01*
X005846Y005446D01*
X005862Y005439D01*
X005879Y005435D01*
X005896Y005433D01*
X006596Y005433D01*
X006613Y005435D01*
X006630Y005439D01*
X006646Y005446D01*
X006660Y005456D01*
X006673Y005469D01*
X006683Y005483D01*
X006690Y005499D01*
X006694Y005516D01*
X006696Y005533D01*
X006333Y003696D02*
X006183Y003696D01*
X006133Y003646D01*
X004233Y003646D01*
X004183Y003696D01*
X004033Y003696D01*
X004016Y003694D01*
X003999Y003690D01*
X003983Y003683D01*
X003969Y003673D01*
X003956Y003660D01*
X003946Y003646D01*
X003939Y003630D01*
X003935Y003613D01*
X003933Y003596D01*
X003933Y002896D01*
X003935Y002879D01*
X003939Y002862D01*
X003946Y002846D01*
X003956Y002832D01*
X003969Y002819D01*
X003983Y002809D01*
X003999Y002802D01*
X004016Y002798D01*
X004033Y002796D01*
X004183Y002796D01*
X004233Y002846D01*
X006133Y002846D01*
X006183Y002796D01*
X006333Y002796D01*
X006350Y002798D01*
X006367Y002802D01*
X006383Y002809D01*
X006397Y002819D01*
X006410Y002832D01*
X006420Y002846D01*
X006427Y002862D01*
X006431Y002879D01*
X006433Y002896D01*
X006433Y003596D01*
X006431Y003613D01*
X006427Y003630D01*
X006420Y003646D01*
X006410Y003660D01*
X006397Y003673D01*
X006383Y003683D01*
X006367Y003690D01*
X006350Y003694D01*
X006333Y003696D01*
X002689Y004939D02*
X002691Y005002D01*
X002697Y005064D01*
X002707Y005126D01*
X002720Y005188D01*
X002738Y005248D01*
X002759Y005307D01*
X002784Y005365D01*
X002813Y005421D01*
X002845Y005475D01*
X002880Y005527D01*
X002918Y005576D01*
X002960Y005624D01*
X003004Y005668D01*
X003052Y005710D01*
X003101Y005748D01*
X003153Y005783D01*
X003207Y005815D01*
X003263Y005844D01*
X003321Y005869D01*
X003380Y005890D01*
X003440Y005908D01*
X003502Y005921D01*
X003564Y005931D01*
X003626Y005937D01*
X003689Y005939D01*
X003752Y005937D01*
X003814Y005931D01*
X003876Y005921D01*
X003938Y005908D01*
X003998Y005890D01*
X004057Y005869D01*
X004115Y005844D01*
X004171Y005815D01*
X004225Y005783D01*
X004277Y005748D01*
X004326Y005710D01*
X004374Y005668D01*
X004418Y005624D01*
X004460Y005576D01*
X004498Y005527D01*
X004533Y005475D01*
X004565Y005421D01*
X004594Y005365D01*
X004619Y005307D01*
X004640Y005248D01*
X004658Y005188D01*
X004671Y005126D01*
X004681Y005064D01*
X004687Y005002D01*
X004689Y004939D01*
X004687Y004876D01*
X004681Y004814D01*
X004671Y004752D01*
X004658Y004690D01*
X004640Y004630D01*
X004619Y004571D01*
X004594Y004513D01*
X004565Y004457D01*
X004533Y004403D01*
X004498Y004351D01*
X004460Y004302D01*
X004418Y004254D01*
X004374Y004210D01*
X004326Y004168D01*
X004277Y004130D01*
X004225Y004095D01*
X004171Y004063D01*
X004115Y004034D01*
X004057Y004009D01*
X003998Y003988D01*
X003938Y003970D01*
X003876Y003957D01*
X003814Y003947D01*
X003752Y003941D01*
X003689Y003939D01*
X003626Y003941D01*
X003564Y003947D01*
X003502Y003957D01*
X003440Y003970D01*
X003380Y003988D01*
X003321Y004009D01*
X003263Y004034D01*
X003207Y004063D01*
X003153Y004095D01*
X003101Y004130D01*
X003052Y004168D01*
X003004Y004210D01*
X002960Y004254D01*
X002918Y004302D01*
X002880Y004351D01*
X002845Y004403D01*
X002813Y004457D01*
X002784Y004513D01*
X002759Y004571D01*
X002738Y004630D01*
X002720Y004690D01*
X002707Y004752D01*
X002697Y004814D01*
X002691Y004876D01*
X002689Y004939D01*
X003139Y005339D02*
X003139Y005439D01*
X003139Y005539D01*
X003139Y005439D02*
X003239Y005439D01*
X003139Y005439D02*
X003039Y005439D01*
X002867Y007780D02*
X003467Y007780D01*
X003484Y007782D01*
X003501Y007786D01*
X003517Y007793D01*
X003531Y007803D01*
X003544Y007816D01*
X003554Y007830D01*
X003561Y007846D01*
X003565Y007863D01*
X003567Y007880D01*
X003567Y009480D01*
X003565Y009497D01*
X003561Y009514D01*
X003554Y009530D01*
X003544Y009544D01*
X003531Y009557D01*
X003517Y009567D01*
X003501Y009574D01*
X003484Y009578D01*
X003467Y009580D01*
X002867Y009580D01*
X002850Y009578D01*
X002833Y009574D01*
X002817Y009567D01*
X002803Y009557D01*
X002790Y009544D01*
X002780Y009530D01*
X002773Y009514D01*
X002769Y009497D01*
X002767Y009480D01*
X002767Y007880D01*
X002769Y007863D01*
X002773Y007846D01*
X002780Y007830D01*
X002790Y007816D01*
X002803Y007803D01*
X002817Y007793D01*
X002833Y007786D01*
X002850Y007782D01*
X002867Y007780D01*
X004283Y007883D02*
X004283Y009483D01*
X004285Y009500D01*
X004289Y009517D01*
X004296Y009533D01*
X004306Y009547D01*
X004319Y009560D01*
X004333Y009570D01*
X004349Y009577D01*
X004366Y009581D01*
X004383Y009583D01*
X004983Y009583D01*
X005000Y009581D01*
X005017Y009577D01*
X005033Y009570D01*
X005047Y009560D01*
X005060Y009547D01*
X005070Y009533D01*
X005077Y009517D01*
X005081Y009500D01*
X005083Y009483D01*
X005083Y007883D01*
X005081Y007866D01*
X005077Y007849D01*
X005070Y007833D01*
X005060Y007819D01*
X005047Y007806D01*
X005033Y007796D01*
X005017Y007789D01*
X005000Y007785D01*
X004983Y007783D01*
X004383Y007783D01*
X004366Y007785D01*
X004349Y007789D01*
X004333Y007796D01*
X004319Y007806D01*
X004306Y007819D01*
X004296Y007833D01*
X004289Y007849D01*
X004285Y007866D01*
X004283Y007883D01*
X003265Y011563D02*
X003095Y011563D01*
X003095Y011904D01*
X003265Y011904D01*
X003322Y011847D01*
X003322Y011620D01*
X003265Y011563D01*
X002954Y011563D02*
X002954Y011904D01*
X002727Y011904D02*
X002727Y011563D01*
X002585Y011620D02*
X002585Y011733D01*
X002472Y011733D01*
X002585Y011620D02*
X002529Y011563D01*
X002415Y011563D01*
X002358Y011620D01*
X002358Y011847D01*
X002415Y011904D01*
X002529Y011904D01*
X002585Y011847D01*
X002727Y011904D02*
X002954Y011563D01*
X002954Y012563D02*
X002954Y012904D01*
X003095Y012904D02*
X003265Y012904D01*
X003322Y012847D01*
X003322Y012620D01*
X003265Y012563D01*
X003095Y012563D01*
X003095Y012904D01*
X002727Y012904D02*
X002727Y012563D01*
X002585Y012620D02*
X002585Y012733D01*
X002472Y012733D01*
X002585Y012620D02*
X002529Y012563D01*
X002415Y012563D01*
X002358Y012620D01*
X002358Y012847D01*
X002415Y012904D01*
X002529Y012904D01*
X002585Y012847D01*
X002727Y012904D02*
X002954Y012563D01*
X002897Y013563D02*
X002783Y013563D01*
X002727Y013620D01*
X002727Y013733D02*
X002840Y013790D01*
X002897Y013790D01*
X002954Y013733D01*
X002954Y013620D01*
X002897Y013563D01*
X003095Y013677D02*
X003209Y013563D01*
X003322Y013677D01*
X003322Y013904D01*
X003095Y013904D02*
X003095Y013677D01*
X002954Y013904D02*
X002727Y013904D01*
X002727Y013733D01*
X002585Y013733D02*
X002358Y013733D01*
X002472Y013620D02*
X002472Y013847D01*
X002585Y014438D02*
X002472Y014552D01*
X002529Y014552D02*
X002358Y014552D01*
X002358Y014438D02*
X002358Y014779D01*
X002529Y014779D01*
X002585Y014722D01*
X002585Y014608D01*
X002529Y014552D01*
X002727Y014438D02*
X002954Y014779D01*
X003095Y014779D02*
X003265Y014779D01*
X003322Y014722D01*
X003322Y014495D01*
X003265Y014438D01*
X003095Y014438D01*
X003095Y014779D01*
X002727Y014779D02*
X002954Y014438D01*
X002954Y015563D02*
X002727Y015904D01*
X002585Y015904D02*
X002358Y015904D01*
X002472Y015904D02*
X002472Y015563D01*
X002727Y015563D02*
X002954Y015904D01*
X003095Y015904D02*
X003265Y015904D01*
X003322Y015847D01*
X003322Y015620D01*
X003265Y015563D01*
X003095Y015563D01*
X003095Y015904D01*
X003095Y016563D02*
X003095Y016904D01*
X003265Y016904D01*
X003322Y016847D01*
X003322Y016733D01*
X003265Y016677D01*
X003095Y016677D01*
X003209Y016677D02*
X003322Y016563D01*
X002840Y016563D02*
X002840Y016904D01*
X002727Y016904D02*
X002954Y016904D01*
X002585Y016847D02*
X002585Y016620D01*
X002529Y016563D01*
X002358Y016563D01*
X002358Y016904D01*
X002529Y016904D01*
X002585Y016847D01*
X004083Y016932D02*
X004083Y016432D01*
X004085Y016406D01*
X004090Y016380D01*
X004098Y016355D01*
X004110Y016332D01*
X004124Y016310D01*
X004142Y016291D01*
X004161Y016273D01*
X004183Y016259D01*
X004206Y016247D01*
X004231Y016239D01*
X004257Y016234D01*
X004283Y016232D01*
X005583Y016232D01*
X005609Y016234D01*
X005635Y016239D01*
X005660Y016247D01*
X005683Y016259D01*
X005705Y016273D01*
X005724Y016291D01*
X005742Y016310D01*
X005756Y016332D01*
X005768Y016355D01*
X005776Y016380D01*
X005781Y016406D01*
X005783Y016432D01*
X005783Y016932D01*
X005781Y016958D01*
X005776Y016984D01*
X005768Y017009D01*
X005756Y017032D01*
X005742Y017054D01*
X005724Y017073D01*
X005705Y017091D01*
X005683Y017105D01*
X005660Y017117D01*
X005635Y017125D01*
X005609Y017130D01*
X005583Y017132D01*
X004283Y017132D01*
X004257Y017130D01*
X004231Y017125D01*
X004206Y017117D01*
X004183Y017105D01*
X004161Y017091D01*
X004142Y017073D01*
X004124Y017054D01*
X004110Y017032D01*
X004098Y017009D01*
X004090Y016984D01*
X004085Y016958D01*
X004083Y016932D01*
X006033Y016983D02*
X006033Y016383D01*
X006035Y016366D01*
X006039Y016349D01*
X006046Y016333D01*
X006056Y016319D01*
X006069Y016306D01*
X006083Y016296D01*
X006099Y016289D01*
X006116Y016285D01*
X006133Y016283D01*
X007233Y016283D01*
X007250Y016285D01*
X007267Y016289D01*
X007283Y016296D01*
X007297Y016306D01*
X007310Y016319D01*
X007320Y016333D01*
X007327Y016349D01*
X007331Y016366D01*
X007333Y016383D01*
X007333Y016983D01*
X007331Y017000D01*
X007327Y017017D01*
X007320Y017033D01*
X007310Y017047D01*
X007297Y017060D01*
X007283Y017070D01*
X007267Y017077D01*
X007250Y017081D01*
X007233Y017083D01*
X006133Y017083D01*
X006116Y017081D01*
X006099Y017077D01*
X006083Y017070D01*
X006069Y017060D01*
X006056Y017047D01*
X006046Y017033D01*
X006039Y017017D01*
X006035Y017000D01*
X006033Y016983D01*
X007633Y014721D02*
X007633Y014621D01*
X007733Y014621D01*
X007633Y014621D02*
X007633Y014521D01*
X007633Y014621D02*
X007533Y014621D01*
X007183Y014121D02*
X007185Y014184D01*
X007191Y014246D01*
X007201Y014308D01*
X007214Y014370D01*
X007232Y014430D01*
X007253Y014489D01*
X007278Y014547D01*
X007307Y014603D01*
X007339Y014657D01*
X007374Y014709D01*
X007412Y014758D01*
X007454Y014806D01*
X007498Y014850D01*
X007546Y014892D01*
X007595Y014930D01*
X007647Y014965D01*
X007701Y014997D01*
X007757Y015026D01*
X007815Y015051D01*
X007874Y015072D01*
X007934Y015090D01*
X007996Y015103D01*
X008058Y015113D01*
X008120Y015119D01*
X008183Y015121D01*
X008246Y015119D01*
X008308Y015113D01*
X008370Y015103D01*
X008432Y015090D01*
X008492Y015072D01*
X008551Y015051D01*
X008609Y015026D01*
X008665Y014997D01*
X008719Y014965D01*
X008771Y014930D01*
X008820Y014892D01*
X008868Y014850D01*
X008912Y014806D01*
X008954Y014758D01*
X008992Y014709D01*
X009027Y014657D01*
X009059Y014603D01*
X009088Y014547D01*
X009113Y014489D01*
X009134Y014430D01*
X009152Y014370D01*
X009165Y014308D01*
X009175Y014246D01*
X009181Y014184D01*
X009183Y014121D01*
X009181Y014058D01*
X009175Y013996D01*
X009165Y013934D01*
X009152Y013872D01*
X009134Y013812D01*
X009113Y013753D01*
X009088Y013695D01*
X009059Y013639D01*
X009027Y013585D01*
X008992Y013533D01*
X008954Y013484D01*
X008912Y013436D01*
X008868Y013392D01*
X008820Y013350D01*
X008771Y013312D01*
X008719Y013277D01*
X008665Y013245D01*
X008609Y013216D01*
X008551Y013191D01*
X008492Y013170D01*
X008432Y013152D01*
X008370Y013139D01*
X008308Y013129D01*
X008246Y013123D01*
X008183Y013121D01*
X008120Y013123D01*
X008058Y013129D01*
X007996Y013139D01*
X007934Y013152D01*
X007874Y013170D01*
X007815Y013191D01*
X007757Y013216D01*
X007701Y013245D01*
X007647Y013277D01*
X007595Y013312D01*
X007546Y013350D01*
X007498Y013392D01*
X007454Y013436D01*
X007412Y013484D01*
X007374Y013533D01*
X007339Y013585D01*
X007307Y013639D01*
X007278Y013695D01*
X007253Y013753D01*
X007232Y013812D01*
X007214Y013872D01*
X007201Y013934D01*
X007191Y013996D01*
X007185Y014058D01*
X007183Y014121D01*
X010933Y014033D02*
X010933Y013333D01*
X010935Y013316D01*
X010939Y013299D01*
X010946Y013283D01*
X010956Y013269D01*
X010969Y013256D01*
X010983Y013246D01*
X010999Y013239D01*
X011016Y013235D01*
X011033Y013233D01*
X011183Y013233D01*
X011233Y013283D01*
X013133Y013283D01*
X013183Y013233D01*
X013333Y013233D01*
X013350Y013235D01*
X013367Y013239D01*
X013383Y013246D01*
X013397Y013256D01*
X013410Y013269D01*
X013420Y013283D01*
X013427Y013299D01*
X013431Y013316D01*
X013433Y013333D01*
X013433Y014033D01*
X013431Y014050D01*
X013427Y014067D01*
X013420Y014083D01*
X013410Y014097D01*
X013397Y014110D01*
X013383Y014120D01*
X013367Y014127D01*
X013350Y014131D01*
X013333Y014133D01*
X013183Y014133D01*
X013133Y014083D01*
X011233Y014083D01*
X011183Y014133D01*
X011033Y014133D01*
X011016Y014131D01*
X010999Y014127D01*
X010983Y014120D01*
X010969Y014110D01*
X010956Y014097D01*
X010946Y014083D01*
X010939Y014067D01*
X010935Y014050D01*
X010933Y014033D01*
X011033Y014733D02*
X011183Y014733D01*
X011233Y014783D01*
X013133Y014783D01*
X013183Y014733D01*
X013333Y014733D01*
X013350Y014735D01*
X013367Y014739D01*
X013383Y014746D01*
X013397Y014756D01*
X013410Y014769D01*
X013420Y014783D01*
X013427Y014799D01*
X013431Y014816D01*
X013433Y014833D01*
X013433Y015533D01*
X013431Y015550D01*
X013427Y015567D01*
X013420Y015583D01*
X013410Y015597D01*
X013397Y015610D01*
X013383Y015620D01*
X013367Y015627D01*
X013350Y015631D01*
X013333Y015633D01*
X013183Y015633D01*
X013133Y015583D01*
X011233Y015583D01*
X011183Y015633D01*
X011033Y015633D01*
X011016Y015631D01*
X010999Y015627D01*
X010983Y015620D01*
X010969Y015610D01*
X010956Y015597D01*
X010946Y015583D01*
X010939Y015567D01*
X010935Y015550D01*
X010933Y015533D01*
X010933Y014833D01*
X010935Y014816D01*
X010939Y014799D01*
X010946Y014783D01*
X010956Y014769D01*
X010969Y014756D01*
X010983Y014746D01*
X010999Y014739D01*
X011016Y014735D01*
X011033Y014733D01*
X011033Y016296D02*
X011183Y016296D01*
X011233Y016346D01*
X013133Y016346D01*
X013183Y016296D01*
X013333Y016296D01*
X013350Y016298D01*
X013367Y016302D01*
X013383Y016309D01*
X013397Y016319D01*
X013410Y016332D01*
X013420Y016346D01*
X013427Y016362D01*
X013431Y016379D01*
X013433Y016396D01*
X013433Y017096D01*
X013431Y017113D01*
X013427Y017130D01*
X013420Y017146D01*
X013410Y017160D01*
X013397Y017173D01*
X013383Y017183D01*
X013367Y017190D01*
X013350Y017194D01*
X013333Y017196D01*
X013183Y017196D01*
X013133Y017146D01*
X011233Y017146D01*
X011183Y017196D01*
X011033Y017196D01*
X011016Y017194D01*
X010999Y017190D01*
X010983Y017183D01*
X010969Y017173D01*
X010956Y017160D01*
X010946Y017146D01*
X010939Y017130D01*
X010935Y017113D01*
X010933Y017096D01*
X010933Y016396D01*
X010935Y016379D01*
X010939Y016362D01*
X010946Y016346D01*
X010956Y016332D01*
X010969Y016319D01*
X010983Y016309D01*
X010999Y016302D01*
X011016Y016298D01*
X011033Y016296D01*
X015483Y016033D02*
X015483Y017333D01*
X015485Y017359D01*
X015490Y017385D01*
X015498Y017410D01*
X015510Y017433D01*
X015524Y017455D01*
X015542Y017474D01*
X015561Y017492D01*
X015583Y017506D01*
X015606Y017518D01*
X015631Y017526D01*
X015657Y017531D01*
X015683Y017533D01*
X016183Y017533D01*
X016209Y017531D01*
X016235Y017526D01*
X016260Y017518D01*
X016283Y017506D01*
X016305Y017492D01*
X016324Y017474D01*
X016342Y017455D01*
X016356Y017433D01*
X016368Y017410D01*
X016376Y017385D01*
X016381Y017359D01*
X016383Y017333D01*
X016383Y016033D01*
X016381Y016007D01*
X016376Y015981D01*
X016368Y015956D01*
X016356Y015933D01*
X016342Y015911D01*
X016324Y015892D01*
X016305Y015874D01*
X016283Y015860D01*
X016260Y015848D01*
X016235Y015840D01*
X016209Y015835D01*
X016183Y015833D01*
X015683Y015833D01*
X015657Y015835D01*
X015631Y015840D01*
X015606Y015848D01*
X015583Y015860D01*
X015561Y015874D01*
X015542Y015892D01*
X015524Y015911D01*
X015510Y015933D01*
X015498Y015956D01*
X015490Y015981D01*
X015485Y016007D01*
X015483Y016033D01*
X016921Y015208D02*
X016921Y013908D01*
X016923Y013882D01*
X016928Y013856D01*
X016936Y013831D01*
X016948Y013808D01*
X016962Y013786D01*
X016980Y013767D01*
X016999Y013749D01*
X017021Y013735D01*
X017044Y013723D01*
X017069Y013715D01*
X017095Y013710D01*
X017121Y013708D01*
X017621Y013708D01*
X017647Y013710D01*
X017673Y013715D01*
X017698Y013723D01*
X017721Y013735D01*
X017743Y013749D01*
X017762Y013767D01*
X017780Y013786D01*
X017794Y013808D01*
X017806Y013831D01*
X017814Y013856D01*
X017819Y013882D01*
X017821Y013908D01*
X017821Y015208D01*
X017819Y015234D01*
X017814Y015260D01*
X017806Y015285D01*
X017794Y015308D01*
X017780Y015330D01*
X017762Y015349D01*
X017743Y015367D01*
X017721Y015381D01*
X017698Y015393D01*
X017673Y015401D01*
X017647Y015406D01*
X017621Y015408D01*
X017121Y015408D01*
X017095Y015406D01*
X017069Y015401D01*
X017044Y015393D01*
X017021Y015381D01*
X016999Y015367D01*
X016980Y015349D01*
X016962Y015330D01*
X016948Y015308D01*
X016936Y015285D01*
X016928Y015260D01*
X016923Y015234D01*
X016921Y015208D01*
X018728Y015033D02*
X018728Y016333D01*
X018730Y016359D01*
X018735Y016385D01*
X018743Y016410D01*
X018755Y016433D01*
X018769Y016455D01*
X018787Y016474D01*
X018806Y016492D01*
X018828Y016506D01*
X018851Y016518D01*
X018876Y016526D01*
X018902Y016531D01*
X018928Y016533D01*
X019428Y016533D01*
X019454Y016531D01*
X019480Y016526D01*
X019505Y016518D01*
X019528Y016506D01*
X019550Y016492D01*
X019569Y016474D01*
X019587Y016455D01*
X019601Y016433D01*
X019613Y016410D01*
X019621Y016385D01*
X019626Y016359D01*
X019628Y016333D01*
X019628Y015033D01*
X019626Y015007D01*
X019621Y014981D01*
X019613Y014956D01*
X019601Y014933D01*
X019587Y014911D01*
X019569Y014892D01*
X019550Y014874D01*
X019528Y014860D01*
X019505Y014848D01*
X019480Y014840D01*
X019454Y014835D01*
X019428Y014833D01*
X018928Y014833D01*
X018902Y014835D01*
X018876Y014840D01*
X018851Y014848D01*
X018828Y014860D01*
X018806Y014874D01*
X018787Y014892D01*
X018769Y014911D01*
X018755Y014933D01*
X018743Y014956D01*
X018735Y014981D01*
X018730Y015007D01*
X018728Y015033D01*
X018928Y014533D02*
X019428Y014533D01*
X019454Y014531D01*
X019480Y014526D01*
X019505Y014518D01*
X019528Y014506D01*
X019550Y014492D01*
X019569Y014474D01*
X019587Y014455D01*
X019601Y014433D01*
X019613Y014410D01*
X019621Y014385D01*
X019626Y014359D01*
X019628Y014333D01*
X019628Y013033D01*
X019626Y013007D01*
X019621Y012981D01*
X019613Y012956D01*
X019601Y012933D01*
X019587Y012911D01*
X019569Y012892D01*
X019550Y012874D01*
X019528Y012860D01*
X019505Y012848D01*
X019480Y012840D01*
X019454Y012835D01*
X019428Y012833D01*
X018928Y012833D01*
X018902Y012835D01*
X018876Y012840D01*
X018851Y012848D01*
X018828Y012860D01*
X018806Y012874D01*
X018787Y012892D01*
X018769Y012911D01*
X018755Y012933D01*
X018743Y012956D01*
X018735Y012981D01*
X018730Y013007D01*
X018728Y013033D01*
X018728Y014333D01*
X018730Y014359D01*
X018735Y014385D01*
X018743Y014410D01*
X018755Y014433D01*
X018769Y014455D01*
X018787Y014474D01*
X018806Y014492D01*
X018828Y014506D01*
X018851Y014518D01*
X018876Y014526D01*
X018902Y014531D01*
X018928Y014533D01*
X019158Y017046D02*
X020458Y017046D01*
X020484Y017048D01*
X020510Y017053D01*
X020535Y017061D01*
X020558Y017073D01*
X020580Y017087D01*
X020599Y017105D01*
X020617Y017124D01*
X020631Y017146D01*
X020643Y017169D01*
X020651Y017194D01*
X020656Y017220D01*
X020658Y017246D01*
X020658Y017746D01*
X020656Y017772D01*
X020651Y017798D01*
X020643Y017823D01*
X020631Y017846D01*
X020617Y017868D01*
X020599Y017887D01*
X020580Y017905D01*
X020558Y017919D01*
X020535Y017931D01*
X020510Y017939D01*
X020484Y017944D01*
X020458Y017946D01*
X019158Y017946D01*
X019132Y017944D01*
X019106Y017939D01*
X019081Y017931D01*
X019058Y017919D01*
X019036Y017905D01*
X019017Y017887D01*
X018999Y017868D01*
X018985Y017846D01*
X018973Y017823D01*
X018965Y017798D01*
X018960Y017772D01*
X018958Y017746D01*
X018958Y017246D01*
X018960Y017220D01*
X018965Y017194D01*
X018973Y017169D01*
X018985Y017146D01*
X018999Y017124D01*
X019017Y017105D01*
X019036Y017087D01*
X019058Y017073D01*
X019081Y017061D01*
X019106Y017053D01*
X019132Y017048D01*
X019158Y017046D01*
X023083Y016858D02*
X023083Y016508D01*
X023083Y015858D02*
X023083Y015508D01*
X023083Y014858D02*
X023083Y014508D01*
X023083Y013858D02*
X023083Y013508D01*
X023083Y012858D02*
X023083Y012508D01*
X023083Y011858D02*
X023083Y011508D01*
X023083Y010858D02*
X023083Y010508D01*
X023083Y009858D02*
X023083Y009383D01*
X025283Y009383D01*
X025283Y009858D01*
X025283Y010508D02*
X025283Y010858D01*
X025283Y011508D02*
X025283Y011858D01*
X025283Y012508D02*
X025283Y012858D01*
X025283Y013508D02*
X025283Y013858D01*
X025283Y014508D02*
X025283Y014858D01*
X025283Y015508D02*
X025283Y015858D01*
X025283Y016508D02*
X025283Y016858D01*
X025283Y017508D02*
X025283Y017858D01*
X025283Y018508D02*
X025283Y018858D01*
X025283Y019508D02*
X025283Y019858D01*
X025283Y020508D02*
X025283Y020858D01*
X025283Y021508D02*
X025283Y021858D01*
X025283Y022508D02*
X025283Y022858D01*
X025283Y023508D02*
X025283Y023983D01*
X024433Y023983D01*
X024431Y023953D01*
X024426Y023923D01*
X024417Y023894D01*
X024404Y023867D01*
X024389Y023841D01*
X024370Y023817D01*
X024349Y023796D01*
X024325Y023777D01*
X024299Y023762D01*
X024272Y023749D01*
X024243Y023740D01*
X024213Y023735D01*
X024183Y023733D01*
X024153Y023735D01*
X024123Y023740D01*
X024094Y023749D01*
X024067Y023762D01*
X024041Y023777D01*
X024017Y023796D01*
X023996Y023817D01*
X023977Y023841D01*
X023962Y023867D01*
X023949Y023894D01*
X023940Y023923D01*
X023935Y023953D01*
X023933Y023983D01*
X023083Y023983D01*
X023083Y023508D01*
X023083Y022858D02*
X023083Y022508D01*
X023083Y021858D02*
X023083Y021508D01*
X023083Y020858D02*
X023083Y020508D01*
X023083Y019858D02*
X023083Y019508D01*
X023083Y018858D02*
X023083Y018508D01*
X023083Y017858D02*
X023083Y017508D01*
X026608Y017033D02*
X026608Y018333D01*
X026610Y018359D01*
X026615Y018385D01*
X026623Y018410D01*
X026635Y018433D01*
X026649Y018455D01*
X026667Y018474D01*
X026686Y018492D01*
X026708Y018506D01*
X026731Y018518D01*
X026756Y018526D01*
X026782Y018531D01*
X026808Y018533D01*
X027308Y018533D01*
X027334Y018531D01*
X027360Y018526D01*
X027385Y018518D01*
X027408Y018506D01*
X027430Y018492D01*
X027449Y018474D01*
X027467Y018455D01*
X027481Y018433D01*
X027493Y018410D01*
X027501Y018385D01*
X027506Y018359D01*
X027508Y018333D01*
X027508Y017033D01*
X027506Y017007D01*
X027501Y016981D01*
X027493Y016956D01*
X027481Y016933D01*
X027467Y016911D01*
X027449Y016892D01*
X027430Y016874D01*
X027408Y016860D01*
X027385Y016848D01*
X027360Y016840D01*
X027334Y016835D01*
X027308Y016833D01*
X026808Y016833D01*
X026782Y016835D01*
X026756Y016840D01*
X026731Y016848D01*
X026708Y016860D01*
X026686Y016874D01*
X026667Y016892D01*
X026649Y016911D01*
X026635Y016933D01*
X026623Y016956D01*
X026615Y016981D01*
X026610Y017007D01*
X026608Y017033D01*
X028996Y014783D02*
X029496Y014783D01*
X029522Y014781D01*
X029548Y014776D01*
X029573Y014768D01*
X029596Y014756D01*
X029618Y014742D01*
X029637Y014724D01*
X029655Y014705D01*
X029669Y014683D01*
X029681Y014660D01*
X029689Y014635D01*
X029694Y014609D01*
X029696Y014583D01*
X029696Y013283D01*
X029694Y013257D01*
X029689Y013231D01*
X029681Y013206D01*
X029669Y013183D01*
X029655Y013161D01*
X029637Y013142D01*
X029618Y013124D01*
X029596Y013110D01*
X029573Y013098D01*
X029548Y013090D01*
X029522Y013085D01*
X029496Y013083D01*
X028996Y013083D01*
X028970Y013085D01*
X028944Y013090D01*
X028919Y013098D01*
X028896Y013110D01*
X028874Y013124D01*
X028855Y013142D01*
X028837Y013161D01*
X028823Y013183D01*
X028811Y013206D01*
X028803Y013231D01*
X028798Y013257D01*
X028796Y013283D01*
X028796Y014583D01*
X028798Y014609D01*
X028803Y014635D01*
X028811Y014660D01*
X028823Y014683D01*
X028837Y014705D01*
X028855Y014724D01*
X028874Y014742D01*
X028896Y014756D01*
X028919Y014768D01*
X028944Y014776D01*
X028970Y014781D01*
X028996Y014783D01*
X032996Y019771D02*
X033496Y019771D01*
X033522Y019773D01*
X033548Y019778D01*
X033573Y019786D01*
X033596Y019798D01*
X033618Y019812D01*
X033637Y019830D01*
X033655Y019849D01*
X033669Y019871D01*
X033681Y019894D01*
X033689Y019919D01*
X033694Y019945D01*
X033696Y019971D01*
X033696Y021271D01*
X033694Y021297D01*
X033689Y021323D01*
X033681Y021348D01*
X033669Y021371D01*
X033655Y021393D01*
X033637Y021412D01*
X033618Y021430D01*
X033596Y021444D01*
X033573Y021456D01*
X033548Y021464D01*
X033522Y021469D01*
X033496Y021471D01*
X032996Y021471D01*
X032970Y021469D01*
X032944Y021464D01*
X032919Y021456D01*
X032896Y021444D01*
X032874Y021430D01*
X032855Y021412D01*
X032837Y021393D01*
X032823Y021371D01*
X032811Y021348D01*
X032803Y021323D01*
X032798Y021297D01*
X032796Y021271D01*
X032796Y019971D01*
X032798Y019945D01*
X032803Y019919D01*
X032811Y019894D01*
X032823Y019871D01*
X032837Y019849D01*
X032855Y019830D01*
X032874Y019812D01*
X032896Y019798D01*
X032919Y019786D01*
X032944Y019778D01*
X032970Y019773D01*
X032996Y019771D01*
X036233Y020183D02*
X036233Y020333D01*
X036235Y020350D01*
X036239Y020367D01*
X036246Y020383D01*
X036256Y020397D01*
X036269Y020410D01*
X036283Y020420D01*
X036299Y020427D01*
X036316Y020431D01*
X036333Y020433D01*
X037033Y020433D01*
X037050Y020431D01*
X037067Y020427D01*
X037083Y020420D01*
X037097Y020410D01*
X037110Y020397D01*
X037120Y020383D01*
X037127Y020367D01*
X037131Y020350D01*
X037133Y020333D01*
X037133Y020183D01*
X037083Y020133D01*
X037083Y018233D01*
X037133Y018183D01*
X037133Y018033D01*
X037131Y018016D01*
X037127Y017999D01*
X037120Y017983D01*
X037110Y017969D01*
X037097Y017956D01*
X037083Y017946D01*
X037067Y017939D01*
X037050Y017935D01*
X037033Y017933D01*
X036333Y017933D01*
X036316Y017935D01*
X036299Y017939D01*
X036283Y017946D01*
X036269Y017956D01*
X036256Y017969D01*
X036246Y017983D01*
X036239Y017999D01*
X036235Y018016D01*
X036233Y018033D01*
X036233Y018183D01*
X036283Y018233D01*
X036283Y020133D01*
X036233Y020183D01*
X037983Y020996D02*
X037983Y021146D01*
X037985Y021163D01*
X037989Y021180D01*
X037996Y021196D01*
X038006Y021210D01*
X038019Y021223D01*
X038033Y021233D01*
X038049Y021240D01*
X038066Y021244D01*
X038083Y021246D01*
X038783Y021246D01*
X038800Y021244D01*
X038817Y021240D01*
X038833Y021233D01*
X038847Y021223D01*
X038860Y021210D01*
X038870Y021196D01*
X038877Y021180D01*
X038881Y021163D01*
X038883Y021146D01*
X038883Y020996D01*
X038833Y020946D01*
X038833Y019046D01*
X038883Y018996D01*
X038883Y018846D01*
X038881Y018829D01*
X038877Y018812D01*
X038870Y018796D01*
X038860Y018782D01*
X038847Y018769D01*
X038833Y018759D01*
X038817Y018752D01*
X038800Y018748D01*
X038783Y018746D01*
X038083Y018746D01*
X038066Y018748D01*
X038049Y018752D01*
X038033Y018759D01*
X038019Y018769D01*
X038006Y018782D01*
X037996Y018796D01*
X037989Y018812D01*
X037985Y018829D01*
X037983Y018846D01*
X037983Y018996D01*
X038033Y019046D01*
X038033Y020946D01*
X037983Y020996D01*
X036583Y023983D02*
X035283Y023983D01*
X035257Y023985D01*
X035231Y023990D01*
X035206Y023998D01*
X035183Y024010D01*
X035161Y024024D01*
X035142Y024042D01*
X035124Y024061D01*
X035110Y024083D01*
X035098Y024106D01*
X035090Y024131D01*
X035085Y024157D01*
X035083Y024183D01*
X035083Y024683D01*
X035085Y024709D01*
X035090Y024735D01*
X035098Y024760D01*
X035110Y024783D01*
X035124Y024805D01*
X035142Y024824D01*
X035161Y024842D01*
X035183Y024856D01*
X035206Y024868D01*
X035231Y024876D01*
X035257Y024881D01*
X035283Y024883D01*
X036583Y024883D01*
X036609Y024881D01*
X036635Y024876D01*
X036660Y024868D01*
X036683Y024856D01*
X036705Y024842D01*
X036724Y024824D01*
X036742Y024805D01*
X036756Y024783D01*
X036768Y024760D01*
X036776Y024735D01*
X036781Y024709D01*
X036783Y024683D01*
X036783Y024183D01*
X036781Y024157D01*
X036776Y024131D01*
X036768Y024106D01*
X036756Y024083D01*
X036742Y024061D01*
X036724Y024042D01*
X036705Y024024D01*
X036683Y024010D01*
X036660Y023998D01*
X036635Y023990D01*
X036609Y023985D01*
X036583Y023983D01*
X038083Y015683D02*
X038783Y015683D01*
X038800Y015681D01*
X038817Y015677D01*
X038833Y015670D01*
X038847Y015660D01*
X038860Y015647D01*
X038870Y015633D01*
X038877Y015617D01*
X038881Y015600D01*
X038883Y015583D01*
X038883Y015433D01*
X038833Y015383D01*
X038833Y013483D01*
X038883Y013433D01*
X038883Y013283D01*
X038881Y013266D01*
X038877Y013249D01*
X038870Y013233D01*
X038860Y013219D01*
X038847Y013206D01*
X038833Y013196D01*
X038817Y013189D01*
X038800Y013185D01*
X038783Y013183D01*
X038083Y013183D01*
X038066Y013185D01*
X038049Y013189D01*
X038033Y013196D01*
X038019Y013206D01*
X038006Y013219D01*
X037996Y013233D01*
X037989Y013249D01*
X037985Y013266D01*
X037983Y013283D01*
X037983Y013433D01*
X038033Y013483D01*
X038033Y015383D01*
X037983Y015433D01*
X037983Y015583D01*
X037985Y015600D01*
X037989Y015617D01*
X037996Y015633D01*
X038006Y015647D01*
X038019Y015660D01*
X038033Y015670D01*
X038049Y015677D01*
X038066Y015681D01*
X038083Y015683D01*
X037533Y014433D02*
X036833Y014433D01*
X036816Y014431D01*
X036799Y014427D01*
X036783Y014420D01*
X036769Y014410D01*
X036756Y014397D01*
X036746Y014383D01*
X036739Y014367D01*
X036735Y014350D01*
X036733Y014333D01*
X036733Y014183D01*
X036783Y014133D01*
X036783Y012233D01*
X036733Y012183D01*
X036733Y012033D01*
X036735Y012016D01*
X036739Y011999D01*
X036746Y011983D01*
X036756Y011969D01*
X036769Y011956D01*
X036783Y011946D01*
X036799Y011939D01*
X036816Y011935D01*
X036833Y011933D01*
X037533Y011933D01*
X037550Y011935D01*
X037567Y011939D01*
X037583Y011946D01*
X037597Y011956D01*
X037610Y011969D01*
X037620Y011983D01*
X037627Y011999D01*
X037631Y012016D01*
X037633Y012033D01*
X037633Y012183D01*
X037583Y012233D01*
X037583Y014133D01*
X037633Y014183D01*
X037633Y014333D01*
X037631Y014350D01*
X037627Y014367D01*
X037620Y014383D01*
X037610Y014397D01*
X037597Y014410D01*
X037583Y014420D01*
X037567Y014427D01*
X037550Y014431D01*
X037533Y014433D01*
X037533Y009433D02*
X036833Y009433D01*
X036816Y009431D01*
X036799Y009427D01*
X036783Y009420D01*
X036769Y009410D01*
X036756Y009397D01*
X036746Y009383D01*
X036739Y009367D01*
X036735Y009350D01*
X036733Y009333D01*
X036733Y009183D01*
X036783Y009133D01*
X036783Y007233D01*
X036733Y007183D01*
X036733Y007033D01*
X036735Y007016D01*
X036739Y006999D01*
X036746Y006983D01*
X036756Y006969D01*
X036769Y006956D01*
X036783Y006946D01*
X036799Y006939D01*
X036816Y006935D01*
X036833Y006933D01*
X037533Y006933D01*
X037550Y006935D01*
X037567Y006939D01*
X037583Y006946D01*
X037597Y006956D01*
X037610Y006969D01*
X037620Y006983D01*
X037627Y006999D01*
X037631Y007016D01*
X037633Y007033D01*
X037633Y007183D01*
X037583Y007233D01*
X037583Y009133D01*
X037633Y009183D01*
X037633Y009333D01*
X037631Y009350D01*
X037627Y009367D01*
X037620Y009383D01*
X037610Y009397D01*
X037597Y009410D01*
X037583Y009420D01*
X037567Y009427D01*
X037550Y009431D01*
X037533Y009433D01*
X023183Y003783D02*
X023183Y003083D01*
X023181Y003066D01*
X023177Y003049D01*
X023170Y003033D01*
X023160Y003019D01*
X023147Y003006D01*
X023133Y002996D01*
X023117Y002989D01*
X023100Y002985D01*
X023083Y002983D01*
X022933Y002983D01*
X022883Y003033D01*
X020983Y003033D01*
X020933Y002983D01*
X020783Y002983D01*
X020766Y002985D01*
X020749Y002989D01*
X020733Y002996D01*
X020719Y003006D01*
X020706Y003019D01*
X020696Y003033D01*
X020689Y003049D01*
X020685Y003066D01*
X020683Y003083D01*
X020683Y003783D01*
X020685Y003800D01*
X020689Y003817D01*
X020696Y003833D01*
X020706Y003847D01*
X020719Y003860D01*
X020733Y003870D01*
X020749Y003877D01*
X020766Y003881D01*
X020783Y003883D01*
X020933Y003883D01*
X020983Y003833D01*
X022883Y003833D01*
X022933Y003883D01*
X023083Y003883D01*
X023100Y003881D01*
X023117Y003877D01*
X023133Y003870D01*
X023147Y003860D01*
X023160Y003847D01*
X023170Y003833D01*
X023177Y003817D01*
X023181Y003800D01*
X023183Y003783D01*
X019156Y025151D02*
X019099Y025151D01*
X019099Y025208D01*
X019156Y025208D01*
X019156Y025151D01*
X018958Y025151D02*
X018788Y025151D01*
X018731Y025208D01*
X018731Y025321D01*
X018788Y025378D01*
X018958Y025378D01*
X018599Y025378D02*
X018486Y025378D01*
X018542Y025434D02*
X018542Y025208D01*
X018599Y025151D01*
X018344Y025264D02*
X018117Y025264D01*
X018117Y025208D02*
X018117Y025321D01*
X018174Y025378D01*
X018287Y025378D01*
X018344Y025321D01*
X018344Y025264D01*
X018287Y025151D02*
X018174Y025151D01*
X018117Y025208D01*
X017617Y025208D02*
X017560Y025208D01*
X017560Y025151D01*
X017617Y025151D01*
X017617Y025208D01*
X017617Y025151D02*
X017504Y025037D01*
X017305Y025151D02*
X017192Y025151D01*
X017135Y025208D01*
X017135Y025321D01*
X017192Y025378D01*
X017305Y025378D01*
X017362Y025321D01*
X017362Y025264D01*
X017135Y025264D01*
X017003Y025151D02*
X016890Y025151D01*
X016946Y025151D02*
X016946Y025491D01*
X016890Y025491D01*
X016748Y025378D02*
X016748Y025151D01*
X016578Y025151D01*
X016521Y025208D01*
X016521Y025378D01*
X016380Y025378D02*
X016210Y025378D01*
X016153Y025321D01*
X016153Y025208D01*
X016210Y025151D01*
X016380Y025151D01*
X016380Y025491D01*
X016012Y025321D02*
X016012Y025208D01*
X015955Y025151D01*
X015841Y025151D01*
X015785Y025208D01*
X015785Y025321D01*
X015841Y025378D01*
X015955Y025378D01*
X016012Y025321D01*
X015643Y025491D02*
X015643Y025151D01*
X015416Y025151D02*
X015416Y025491D01*
X015530Y025378D01*
X015643Y025491D01*
X014907Y025491D02*
X014680Y025491D01*
X014680Y025151D01*
X014538Y025151D02*
X014425Y025264D01*
X014482Y025264D02*
X014312Y025264D01*
X014312Y025151D02*
X014312Y025491D01*
X014482Y025491D01*
X014538Y025434D01*
X014538Y025321D01*
X014482Y025264D01*
X014680Y025321D02*
X014793Y025321D01*
X013802Y025378D02*
X013575Y025151D01*
X013802Y025151D01*
X013802Y025378D02*
X013802Y025434D01*
X013745Y025491D01*
X013632Y025491D01*
X013575Y025434D01*
X013433Y025491D02*
X013207Y025151D01*
X013433Y025151D02*
X013207Y025491D01*
X013065Y025491D02*
X012838Y025491D01*
X012952Y025491D02*
X012952Y025151D01*
X012697Y025151D02*
X012697Y025491D01*
X012470Y025491D02*
X012697Y025151D01*
X012470Y025151D02*
X012470Y025491D01*
X011965Y025378D02*
X011908Y025378D01*
X011795Y025264D01*
X011795Y025151D02*
X011795Y025378D01*
X011653Y025321D02*
X011597Y025378D01*
X011483Y025378D01*
X011426Y025321D01*
X011426Y025208D01*
X011483Y025151D01*
X011597Y025151D01*
X011653Y025208D01*
X011653Y025321D01*
X010917Y025151D02*
X010690Y025151D01*
X010803Y025151D02*
X010803Y025491D01*
X010690Y025378D01*
X010548Y025491D02*
X010322Y025151D01*
X010180Y025151D02*
X010180Y025491D01*
X010322Y025491D02*
X010548Y025151D01*
X010180Y025321D02*
X009953Y025321D01*
X009953Y025151D02*
X009953Y025491D01*
X009444Y025378D02*
X009217Y025151D01*
X009085Y025151D02*
X008971Y025151D01*
X009028Y025151D02*
X009028Y025378D01*
X008971Y025378D01*
X009028Y025491D02*
X009028Y025548D01*
X009217Y025378D02*
X009444Y025151D01*
X008834Y025378D02*
X008778Y025378D01*
X008664Y025264D01*
X008664Y025151D02*
X008664Y025378D01*
X008532Y025378D02*
X008419Y025378D01*
X008475Y025434D02*
X008475Y025208D01*
X008532Y025151D01*
X008277Y025264D02*
X008050Y025264D01*
X008050Y025208D02*
X008050Y025321D01*
X008107Y025378D01*
X008221Y025378D01*
X008277Y025321D01*
X008277Y025264D01*
X008221Y025151D02*
X008107Y025151D01*
X008050Y025208D01*
X007909Y025151D02*
X007909Y025491D01*
X007796Y025378D01*
X007682Y025491D01*
X007682Y025151D01*
X007541Y025208D02*
X007541Y025321D01*
X007484Y025378D01*
X007371Y025378D01*
X007314Y025321D01*
X007314Y025208D01*
X007371Y025151D01*
X007484Y025151D01*
X007541Y025208D01*
X007182Y025151D02*
X007068Y025151D01*
X007125Y025151D02*
X007125Y025378D01*
X007068Y025378D01*
X007125Y025491D02*
X007125Y025548D01*
X006927Y025491D02*
X006927Y025151D01*
X006757Y025151D01*
X006700Y025208D01*
X006700Y025321D01*
X006757Y025378D01*
X006927Y025378D01*
X006559Y025321D02*
X006559Y025151D01*
X006388Y025151D01*
X006332Y025208D01*
X006388Y025264D01*
X006559Y025264D01*
X006559Y025321D02*
X006502Y025378D01*
X006388Y025378D01*
X006190Y025434D02*
X006134Y025491D01*
X005963Y025491D01*
X005963Y025151D01*
X005963Y025264D02*
X006134Y025264D01*
X006190Y025321D01*
X006190Y025434D01*
X006077Y025264D02*
X006190Y025151D01*
D13*
X005053Y016982D02*
X005053Y016382D01*
X004803Y016382D02*
X004803Y016982D01*
X015633Y016813D02*
X016233Y016813D01*
X016233Y016563D02*
X015633Y016563D01*
X017071Y014678D02*
X017671Y014678D01*
X017671Y014428D02*
X017071Y014428D01*
X018878Y013803D02*
X019478Y013803D01*
X019478Y013553D02*
X018878Y013553D01*
X018878Y015563D02*
X019478Y015563D01*
X019478Y015813D02*
X018878Y015813D01*
X019678Y017196D02*
X019678Y017796D01*
X019928Y017796D02*
X019928Y017196D01*
X026758Y017553D02*
X027358Y017553D01*
X027358Y017803D02*
X026758Y017803D01*
X028946Y014053D02*
X029546Y014053D01*
X029546Y013803D02*
X028946Y013803D01*
X029183Y009683D02*
X029183Y009433D01*
X027183Y009433D01*
X027183Y009683D01*
X020983Y008313D02*
X020383Y008313D01*
X020383Y008063D02*
X020983Y008063D01*
X032946Y020501D02*
X033546Y020501D01*
X033546Y020751D02*
X032946Y020751D01*
X035803Y024133D02*
X035803Y024733D01*
X036053Y024733D02*
X036053Y024133D01*
D14*
X029685Y010079D02*
X029685Y009488D01*
X029488Y009488D02*
X029882Y009488D01*
X029488Y009882D02*
X029685Y010079D01*
D15*
X029315Y009933D02*
X029315Y010433D01*
X029183Y010433D02*
X029183Y009933D01*
X028933Y009683D01*
X027433Y009683D01*
X027183Y009933D01*
X027183Y010433D01*
X027433Y010683D01*
X028933Y010683D01*
X029183Y010933D01*
X029183Y011433D01*
X028933Y011683D01*
X027433Y011683D01*
X027183Y011933D01*
X027183Y012433D01*
X027433Y012683D01*
X028933Y012683D01*
X029183Y012433D01*
X029183Y011933D01*
X028933Y011683D01*
X028933Y010683D02*
X029183Y010433D01*
X027433Y010683D02*
X027183Y010933D01*
X027183Y011433D01*
X027433Y011683D01*
X021708Y013533D02*
X021708Y015833D01*
X021706Y015892D01*
X021700Y015950D01*
X021691Y016009D01*
X021677Y016066D01*
X021660Y016122D01*
X021639Y016177D01*
X021615Y016231D01*
X021587Y016283D01*
X021556Y016333D01*
X021522Y016381D01*
X021485Y016426D01*
X021444Y016469D01*
X021401Y016510D01*
X021356Y016547D01*
X021308Y016581D01*
X021258Y016612D01*
X021206Y016640D01*
X021152Y016664D01*
X021097Y016685D01*
X021041Y016702D01*
X020984Y016716D01*
X020925Y016725D01*
X020867Y016731D01*
X020808Y016733D01*
X020749Y016731D01*
X020691Y016725D01*
X020632Y016716D01*
X020575Y016702D01*
X020519Y016685D01*
X020464Y016664D01*
X020410Y016640D01*
X020358Y016612D01*
X020308Y016581D01*
X020260Y016547D01*
X020215Y016510D01*
X020172Y016469D01*
X020131Y016426D01*
X020094Y016381D01*
X020060Y016333D01*
X020029Y016283D01*
X020001Y016231D01*
X019977Y016177D01*
X019956Y016122D01*
X019939Y016066D01*
X019925Y016009D01*
X019916Y015950D01*
X019910Y015892D01*
X019908Y015833D01*
X019908Y013533D01*
X019910Y013474D01*
X019916Y013416D01*
X019925Y013357D01*
X019939Y013300D01*
X019956Y013244D01*
X019977Y013189D01*
X020001Y013135D01*
X020029Y013083D01*
X020060Y013033D01*
X020094Y012985D01*
X020131Y012940D01*
X020172Y012897D01*
X020215Y012856D01*
X020260Y012819D01*
X020308Y012785D01*
X020358Y012754D01*
X020410Y012726D01*
X020464Y012702D01*
X020519Y012681D01*
X020575Y012664D01*
X020632Y012650D01*
X020691Y012641D01*
X020749Y012635D01*
X020808Y012633D01*
X020867Y012635D01*
X020925Y012641D01*
X020984Y012650D01*
X021041Y012664D01*
X021097Y012681D01*
X021152Y012702D01*
X021206Y012726D01*
X021258Y012754D01*
X021308Y012785D01*
X021356Y012819D01*
X021401Y012856D01*
X021444Y012897D01*
X021485Y012940D01*
X021522Y012985D01*
X021556Y013033D01*
X021587Y013083D01*
X021615Y013135D01*
X021639Y013189D01*
X021660Y013244D01*
X021677Y013300D01*
X021691Y013357D01*
X021700Y013416D01*
X021706Y013474D01*
X021708Y013533D01*
X012224Y010633D02*
X012224Y009233D01*
X009643Y009233D01*
X009643Y010633D01*
X012224Y010633D01*
X009204Y010573D02*
X008723Y010893D01*
X008723Y010573D02*
X009204Y010893D01*
X009204Y010378D02*
X008723Y010378D01*
X008723Y010138D01*
X008803Y010058D01*
X008884Y010058D01*
X008964Y010138D01*
X008964Y010378D01*
X009204Y010378D02*
X009204Y010138D01*
X009124Y010058D01*
X009044Y010058D01*
X008964Y010138D01*
X008964Y009862D02*
X009044Y009782D01*
X009044Y009622D01*
X008964Y009542D01*
X008884Y009542D01*
X008884Y009862D01*
X008964Y009862D02*
X008803Y009862D01*
X008723Y009782D01*
X008723Y009622D01*
X008803Y009346D02*
X008723Y009266D01*
X008723Y009106D01*
X008884Y009026D02*
X008884Y009346D01*
X008964Y009346D02*
X009044Y009266D01*
X009044Y009106D01*
X008964Y009026D01*
X008884Y009026D01*
X008964Y009346D02*
X008803Y009346D01*
X008723Y008315D02*
X009204Y008315D01*
X009044Y008155D01*
X009204Y007995D01*
X008723Y007995D01*
X008803Y007800D02*
X008723Y007720D01*
X008723Y007559D01*
X008803Y007479D01*
X008964Y007479D01*
X009044Y007559D01*
X009044Y007720D01*
X008964Y007800D01*
X008803Y007800D01*
X008803Y007284D02*
X008723Y007204D01*
X008723Y006964D01*
X009204Y006964D01*
X009044Y006964D02*
X009044Y007204D01*
X008964Y007284D01*
X008803Y007284D01*
X008803Y006768D02*
X008723Y006688D01*
X008723Y006448D01*
X009044Y006448D01*
X009204Y006253D02*
X009204Y006173D01*
X008723Y006173D01*
X008723Y006253D02*
X008723Y006093D01*
X008803Y005909D02*
X008723Y005829D01*
X008723Y005669D01*
X008884Y005589D02*
X008884Y005909D01*
X008964Y005909D02*
X009044Y005829D01*
X009044Y005669D01*
X008964Y005589D01*
X008884Y005589D01*
X008964Y005909D02*
X008803Y005909D01*
X008803Y006768D02*
X009044Y006768D01*
X007973Y010483D02*
X005393Y010483D01*
X005393Y011883D01*
X007973Y011883D01*
X007973Y010483D01*
X001696Y011183D02*
X001196Y011183D01*
X001403Y010761D02*
X001403Y010481D01*
X001263Y010621D02*
X001543Y010621D01*
X001543Y007871D02*
X001263Y007871D01*
X001196Y017183D02*
X001696Y017183D01*
X002000Y018160D02*
X002866Y018160D01*
X003644Y018938D02*
X003644Y019804D01*
X002866Y020581D02*
X002000Y020581D01*
X001223Y019804D02*
X001223Y018938D01*
X001764Y019371D02*
X001766Y019422D01*
X001772Y019473D01*
X001782Y019523D01*
X001795Y019573D01*
X001813Y019621D01*
X001833Y019668D01*
X001858Y019713D01*
X001886Y019756D01*
X001917Y019797D01*
X001951Y019835D01*
X001988Y019870D01*
X002027Y019903D01*
X002069Y019933D01*
X002113Y019959D01*
X002159Y019981D01*
X002207Y020001D01*
X002256Y020016D01*
X002306Y020028D01*
X002356Y020036D01*
X002407Y020040D01*
X002459Y020040D01*
X002510Y020036D01*
X002560Y020028D01*
X002610Y020016D01*
X002659Y020001D01*
X002707Y019981D01*
X002753Y019959D01*
X002797Y019933D01*
X002839Y019903D01*
X002878Y019870D01*
X002915Y019835D01*
X002949Y019797D01*
X002980Y019756D01*
X003008Y019713D01*
X003033Y019668D01*
X003053Y019621D01*
X003071Y019573D01*
X003084Y019523D01*
X003094Y019473D01*
X003100Y019422D01*
X003102Y019371D01*
X003100Y019320D01*
X003094Y019269D01*
X003084Y019219D01*
X003071Y019169D01*
X003053Y019121D01*
X003033Y019074D01*
X003008Y019029D01*
X002980Y018986D01*
X002949Y018945D01*
X002915Y018907D01*
X002878Y018872D01*
X002839Y018839D01*
X002797Y018809D01*
X002753Y018783D01*
X002707Y018761D01*
X002659Y018741D01*
X002610Y018726D01*
X002560Y018714D01*
X002510Y018706D01*
X002459Y018702D01*
X002407Y018702D01*
X002356Y018706D01*
X002306Y018714D01*
X002256Y018726D01*
X002207Y018741D01*
X002159Y018761D01*
X002113Y018783D01*
X002069Y018809D01*
X002027Y018839D01*
X001988Y018872D01*
X001951Y018907D01*
X001917Y018945D01*
X001886Y018986D01*
X001858Y019029D01*
X001833Y019074D01*
X001813Y019121D01*
X001795Y019169D01*
X001782Y019219D01*
X001772Y019269D01*
X001766Y019320D01*
X001764Y019371D01*
X021983Y005815D02*
X021983Y005483D01*
X021901Y005401D01*
X022383Y005483D02*
X022383Y005818D01*
X022383Y005483D02*
X022466Y005401D01*
X023416Y005293D02*
X023418Y005308D01*
X023424Y005321D01*
X023433Y005333D01*
X023444Y005342D01*
X023458Y005348D01*
X023473Y005350D01*
X023488Y005348D01*
X023501Y005342D01*
X023513Y005333D01*
X023522Y005322D01*
X023528Y005308D01*
X023530Y005293D01*
X023528Y005278D01*
X023522Y005265D01*
X023513Y005253D01*
X023502Y005244D01*
X023488Y005238D01*
X023473Y005236D01*
X023458Y005238D01*
X023445Y005244D01*
X023433Y005253D01*
X023424Y005264D01*
X023418Y005278D01*
X023416Y005293D01*
X034043Y018220D02*
X034043Y018331D01*
X034043Y018220D02*
X034243Y018220D01*
X035123Y018220D02*
X035323Y018220D01*
X035323Y018331D01*
X035323Y019410D02*
X035323Y019520D01*
X035123Y019520D01*
X034143Y019550D02*
X034003Y019410D01*
D16*
X033933Y008683D02*
X034683Y008683D01*
X034683Y008558D01*
X034683Y008683D02*
X036433Y008683D01*
X036433Y005683D01*
X034683Y005683D01*
X034683Y005808D01*
X034683Y005683D02*
X033933Y005683D01*
X033933Y008683D01*
X034683Y007808D02*
X034683Y007558D01*
X034683Y006808D02*
X034683Y006558D01*
X028933Y006933D02*
X028183Y006933D01*
X028183Y007433D01*
X028063Y007433D01*
X027933Y007433D01*
X027933Y006933D01*
X028063Y006933D01*
X028183Y006933D01*
X028063Y006933D02*
X028063Y007433D01*
X028183Y007433D02*
X028933Y007433D01*
X028933Y006933D01*
X028933Y007933D02*
X028183Y007933D01*
X028183Y008433D01*
X028063Y008433D01*
X027933Y008433D01*
X027933Y007933D01*
X028063Y007933D01*
X028183Y007933D01*
X028063Y007933D02*
X028063Y008433D01*
X028183Y008433D02*
X028933Y008433D01*
X028933Y007933D01*
X008777Y014652D02*
X008590Y014652D01*
X007715Y014621D02*
X007527Y014621D01*
X007621Y014715D02*
X007621Y014527D01*
X002254Y010235D02*
X000613Y010235D01*
X000613Y008132D01*
X002254Y008132D01*
X002254Y010235D01*
X003152Y005527D02*
X003152Y005340D01*
X003058Y005433D02*
X003246Y005433D01*
X004090Y005433D02*
X004277Y005433D01*
X002254Y003735D02*
X000613Y003735D01*
X000613Y001632D01*
X002254Y001632D01*
X002254Y003735D01*
D17*
X003167Y008030D03*
X004683Y008033D03*
D18*
X004683Y007508D03*
X003167Y007505D03*
X003167Y009855D03*
X004683Y009858D03*
D19*
X006246Y008103D03*
X007433Y008103D03*
X007433Y005263D03*
X006246Y005263D03*
X013183Y006763D03*
X014433Y006763D03*
X015683Y006763D03*
X016933Y006763D03*
X018183Y006763D03*
X019433Y006763D03*
X019433Y009603D03*
X018183Y009603D03*
X016933Y009603D03*
X015683Y009603D03*
X014433Y009603D03*
X013183Y009603D03*
X032683Y008353D03*
X032683Y005513D03*
X037183Y006763D03*
X037183Y009603D03*
X037183Y011763D03*
X038433Y013013D03*
X037183Y014603D03*
X038433Y015853D03*
X036683Y017763D03*
X038433Y018576D03*
X036683Y020603D03*
X038433Y021416D03*
D20*
X013603Y016746D03*
X013603Y015183D03*
X013603Y013683D03*
X010763Y013683D03*
X010763Y015183D03*
X010763Y016746D03*
X009763Y004933D03*
X012603Y004933D03*
X006603Y003246D03*
X003763Y003246D03*
X020513Y003433D03*
X023353Y003433D03*
D21*
X021267Y006204D02*
X021267Y010038D01*
X018383Y012921D01*
X008297Y012921D01*
X008297Y003321D01*
X018383Y003321D01*
X021267Y006204D01*
M02*
