G75*
G70*
%OFA0B0*%
%FSLAX24Y24*%
%IPPOS*%
%LPD*%
%AMOC8*
5,1,8,0,0,1.08239X$1,22.5*
%
%ADD10C,0.1162*%
%ADD11C,0.0620*%
%ADD12OC8,0.0540*%
%ADD13C,0.0800*%
%ADD14OC8,0.0800*%
%ADD15C,0.0690*%
%ADD16R,0.0611X0.0808*%
%ADD17R,0.0769X0.0611*%
%ADD18R,0.0336X0.0651*%
%ADD19C,0.0540*%
%ADD20R,0.1044X0.0375*%
%ADD21R,0.0717X0.0375*%
%ADD22R,0.0375X0.0717*%
%ADD23R,0.0535X0.0535*%
%ADD24OC8,0.0720*%
%ADD25R,0.0480X0.0480*%
%ADD26C,0.0480*%
%ADD27C,0.0926*%
%ADD28C,0.0510*%
%ADD29R,0.1620X0.1620*%
%ADD30R,0.1310X0.1310*%
%ADD31R,0.0300X0.0930*%
%ADD32C,0.0496*%
%ADD33R,0.0336X0.0170*%
%ADD34R,0.0170X0.0336*%
%ADD35R,0.0540X0.0940*%
%ADD36R,0.1477X0.0926*%
%ADD37C,0.0692*%
%ADD38C,0.0614*%
%ADD39R,0.0540X0.0940*%
%ADD40R,0.0690X0.0520*%
%ADD41R,0.0720X0.0060*%
%ADD42R,0.0520X0.0690*%
%ADD43R,0.0060X0.0720*%
%ADD44R,0.0454X0.0847*%
%ADD45C,0.0337*%
%ADD46C,0.0376*%
D10*
X001683Y005083D03*
X001683Y023683D03*
X038183Y023683D03*
X038183Y005083D03*
D11*
X020808Y013733D03*
X020808Y015633D03*
D12*
X019178Y015183D03*
X019178Y014183D03*
X019178Y013183D03*
X017371Y014058D03*
X017371Y015058D03*
X015933Y016183D03*
X015933Y017183D03*
X019308Y017496D03*
X020308Y017496D03*
X019178Y016183D03*
X027058Y017183D03*
X027058Y018183D03*
X029246Y014433D03*
X029246Y013433D03*
X020683Y008683D03*
X020683Y007683D03*
X005433Y016682D03*
X004433Y016682D03*
X033246Y020121D03*
X033246Y021121D03*
X035433Y024433D03*
X036433Y024433D03*
D13*
X001816Y016683D02*
X001076Y016683D01*
X001076Y015683D02*
X001816Y015683D01*
X001816Y014683D02*
X001076Y014683D01*
X001076Y013683D02*
X001816Y013683D01*
X001816Y012683D02*
X001076Y012683D01*
X001076Y011683D02*
X001816Y011683D01*
D14*
X027683Y011183D03*
X028683Y011183D03*
X028683Y012183D03*
X027683Y012183D03*
X027683Y010183D03*
X028683Y010183D03*
D15*
X008683Y014121D03*
X007683Y014121D03*
X004189Y004939D03*
X003189Y004939D03*
D16*
X027329Y024556D03*
X032526Y024202D03*
D17*
X031896Y019044D03*
X029534Y019044D03*
D18*
X029573Y022902D03*
X029140Y023060D03*
X030006Y023060D03*
X030439Y023217D03*
X030872Y023060D03*
X031305Y023217D03*
X031739Y023060D03*
X032172Y023060D03*
D19*
X025923Y023183D02*
X025443Y023183D01*
X025443Y022183D02*
X025923Y022183D01*
X025923Y021183D02*
X025443Y021183D01*
X025443Y020183D02*
X025923Y020183D01*
X025923Y019183D02*
X025443Y019183D01*
X025443Y018183D02*
X025923Y018183D01*
X025923Y017183D02*
X025443Y017183D01*
X025443Y016183D02*
X025923Y016183D01*
X025923Y015183D02*
X025443Y015183D01*
X025443Y014183D02*
X025923Y014183D01*
X025923Y013183D02*
X025443Y013183D01*
X025443Y012183D02*
X025923Y012183D01*
X025923Y011183D02*
X025443Y011183D01*
X025443Y010183D02*
X025923Y010183D01*
X026693Y008183D02*
X027173Y008183D01*
X027173Y007183D02*
X026693Y007183D01*
X029693Y007183D02*
X030173Y007183D01*
X030173Y008183D02*
X029693Y008183D01*
X022923Y010183D02*
X022443Y010183D01*
X022443Y011183D02*
X022923Y011183D01*
X022923Y012183D02*
X022443Y012183D01*
X022443Y013183D02*
X022923Y013183D01*
X022923Y014183D02*
X022443Y014183D01*
X022443Y015183D02*
X022923Y015183D01*
X022923Y016183D02*
X022443Y016183D01*
X022443Y017183D02*
X022923Y017183D01*
X022923Y018183D02*
X022443Y018183D01*
X022443Y019183D02*
X022923Y019183D01*
X022923Y020183D02*
X022443Y020183D01*
X022443Y021183D02*
X022923Y021183D01*
X022923Y022183D02*
X022443Y022183D01*
X022443Y023183D02*
X022923Y023183D01*
X004683Y010923D02*
X004683Y010443D01*
X003167Y010440D02*
X003167Y010920D01*
X003167Y006920D02*
X003167Y006440D01*
X004683Y006443D02*
X004683Y006923D01*
D20*
X034159Y021933D03*
D21*
X035621Y021933D03*
D22*
X035308Y021120D03*
X034808Y021120D03*
X034308Y021120D03*
X034308Y022746D03*
X034808Y022746D03*
X035308Y022746D03*
D23*
X017183Y018121D03*
X016183Y018121D03*
X015183Y018121D03*
X014183Y018121D03*
X008183Y018121D03*
X007183Y018121D03*
X006183Y018121D03*
D24*
X010183Y016746D03*
X010183Y015183D03*
X010183Y013683D03*
X014183Y013683D03*
X014183Y015183D03*
X014183Y016746D03*
X014433Y010183D03*
X013183Y010183D03*
X015683Y010183D03*
X016933Y010183D03*
X018183Y010183D03*
X019433Y010183D03*
X019433Y006183D03*
X018183Y006183D03*
X016933Y006183D03*
X015683Y006183D03*
X014433Y006183D03*
X013183Y006183D03*
X013183Y004933D03*
X009183Y004933D03*
X007433Y004683D03*
X006246Y004683D03*
X007183Y003246D03*
X003183Y003246D03*
X006246Y008683D03*
X007433Y008683D03*
X019933Y003433D03*
X023933Y003433D03*
X032683Y004933D03*
X037183Y006183D03*
X032683Y008933D03*
X037183Y010183D03*
X037183Y011183D03*
X038433Y012433D03*
X037183Y015183D03*
X038433Y016433D03*
X036683Y017183D03*
X038433Y017996D03*
X036683Y021183D03*
X038433Y021996D03*
D25*
X018227Y012452D03*
D26*
X017439Y012452D03*
X016652Y012452D03*
X015864Y012452D03*
X015077Y012452D03*
X014290Y012452D03*
X013502Y012452D03*
X012715Y012452D03*
X011927Y012452D03*
X011140Y012452D03*
X011140Y003790D03*
X011927Y003790D03*
X012715Y003790D03*
X013502Y003790D03*
X014290Y003790D03*
X015077Y003790D03*
X015864Y003790D03*
X016652Y003790D03*
X017439Y003790D03*
X018227Y003790D03*
D27*
X003433Y018371D03*
X002433Y019371D03*
X001433Y020371D03*
X003433Y020371D03*
X001433Y018371D03*
D28*
X019183Y002183D03*
X019183Y001183D03*
X021433Y001183D03*
X021433Y002183D03*
X023933Y002183D03*
X023933Y001183D03*
X026433Y001183D03*
X026433Y002183D03*
X028933Y002183D03*
X028933Y001183D03*
D29*
X035183Y002933D03*
D30*
X032083Y002933D03*
X038283Y002933D03*
D31*
X024933Y004653D03*
X024433Y004653D03*
X023933Y004653D03*
X023433Y004653D03*
X023433Y006713D03*
X023933Y006713D03*
X024433Y006713D03*
X024933Y006713D03*
D32*
X022683Y005183D03*
X021683Y005183D03*
D33*
X034132Y018477D03*
X034132Y018674D03*
X034132Y018871D03*
X034132Y019068D03*
X034132Y019265D03*
X035235Y019265D03*
X035235Y019068D03*
X035235Y018871D03*
X035235Y018674D03*
X035235Y018477D03*
D34*
X034880Y018320D03*
X034683Y018320D03*
X034487Y018320D03*
X034487Y019422D03*
X034683Y019422D03*
X034880Y019422D03*
D35*
X007593Y009963D03*
X006683Y009963D03*
X005773Y009963D03*
D36*
X006683Y012403D03*
X010933Y011153D03*
D37*
X001750Y002183D02*
X001117Y002183D01*
X001117Y003183D02*
X001750Y003183D01*
X001750Y008683D02*
X001117Y008683D01*
X001117Y009683D02*
X001750Y009683D01*
D38*
X034907Y008183D02*
X035460Y008183D01*
X035460Y007183D02*
X034907Y007183D01*
X034907Y006183D02*
X035460Y006183D01*
D39*
X011843Y008713D03*
X010933Y008713D03*
X010024Y008713D03*
D40*
X025683Y006483D03*
X025683Y005883D03*
D41*
X025683Y006183D03*
D42*
X006983Y016683D03*
X006383Y016683D03*
D43*
X006683Y016683D03*
D44*
X030526Y016333D03*
X035841Y016333D03*
X035841Y010034D03*
X035250Y010034D03*
X034660Y010034D03*
X034069Y010034D03*
X033479Y010034D03*
X032888Y010034D03*
X032298Y010034D03*
X031707Y010034D03*
X031116Y010034D03*
X030526Y010034D03*
D45*
X030526Y008996D03*
X031683Y008808D03*
X031683Y006683D03*
X025683Y007058D03*
X024183Y008433D03*
X023683Y008183D03*
X023183Y008183D03*
X028433Y013933D03*
X028871Y017246D03*
X029683Y017246D03*
X030683Y018183D03*
X031683Y019683D03*
X032183Y020433D03*
X032902Y019058D03*
X033433Y019183D03*
X032871Y018558D03*
X033652Y018371D03*
X035933Y018683D03*
X036933Y022058D03*
X035183Y013808D03*
X035183Y012558D03*
X034683Y011933D03*
X034433Y011496D03*
X034996Y010933D03*
X035433Y011183D03*
X021058Y018683D03*
X017808Y017808D03*
X015183Y018808D03*
X011433Y019433D03*
X011433Y020808D03*
X009933Y015933D03*
X008558Y015590D03*
X006933Y014683D03*
X013058Y013683D03*
X014683Y014433D03*
X014933Y011683D03*
X004683Y009058D03*
X020558Y022058D03*
X021058Y022683D03*
X020433Y023183D03*
D46*
X030183Y020933D03*
X031183Y020683D03*
X033933Y023683D03*
X034433Y024183D03*
X003683Y016058D03*
M02*
