G75*
G70*
%OFA0B0*%
%FSLAX24Y24*%
%IPPOS*%
%LPD*%
%AMOC8*
5,1,8,0,0,1.08239X$1,22.5*
%
%ADD10C,0.0000*%
%ADD11C,0.0560*%
%ADD12OC8,0.0480*%
%ADD13C,0.0740*%
%ADD14OC8,0.0740*%
%ADD15C,0.0630*%
%ADD16R,0.0551X0.0748*%
%ADD17R,0.0709X0.0551*%
%ADD18R,0.0276X0.0591*%
%ADD19C,0.0480*%
%ADD20R,0.0984X0.0315*%
%ADD21R,0.0657X0.0315*%
%ADD22R,0.0315X0.0657*%
%ADD23R,0.0475X0.0475*%
%ADD24OC8,0.0660*%
%ADD25R,0.0420X0.0420*%
%ADD26C,0.0420*%
%ADD27C,0.0866*%
%ADD28C,0.0450*%
%ADD29R,0.1560X0.1560*%
%ADD30R,0.1250X0.1250*%
%ADD31R,0.0240X0.0870*%
%ADD32C,0.0436*%
%ADD33R,0.0276X0.0110*%
%ADD34R,0.0110X0.0276*%
%ADD35R,0.0480X0.0880*%
%ADD36R,0.1417X0.0866*%
%ADD37C,0.0632*%
%ADD38C,0.0554*%
%ADD39R,0.0480X0.0880*%
%ADD40R,0.0630X0.0460*%
%ADD41R,0.0460X0.0630*%
%ADD42R,0.0394X0.0787*%
%ADD43C,0.0160*%
%ADD44C,0.0100*%
%ADD45C,0.0277*%
%ADD46C,0.0320*%
%ADD47C,0.0120*%
%ADD48C,0.0316*%
%ADD49C,0.0240*%
%ADD50C,0.0860*%
D10*
X001433Y000433D02*
X037933Y000433D01*
X039433Y001433D02*
X039433Y024683D01*
X039425Y024755D01*
X039413Y024826D01*
X039397Y024897D01*
X039377Y024966D01*
X039354Y025035D01*
X039327Y025102D01*
X039297Y025168D01*
X039264Y025232D01*
X039227Y025294D01*
X039187Y025354D01*
X039143Y025412D01*
X039097Y025468D01*
X039048Y025521D01*
X038996Y025571D01*
X038942Y025619D01*
X038885Y025664D01*
X038826Y025706D01*
X038765Y025744D01*
X038702Y025780D01*
X038637Y025812D01*
X038571Y025840D01*
X038503Y025865D01*
X038434Y025887D01*
X038364Y025905D01*
X038293Y025919D01*
X038222Y025929D01*
X038150Y025936D01*
X038077Y025939D01*
X038005Y025938D01*
X037933Y025933D01*
X001433Y025933D01*
X001373Y025931D01*
X001312Y025926D01*
X001253Y025917D01*
X001194Y025904D01*
X001135Y025888D01*
X001078Y025868D01*
X001023Y025845D01*
X000968Y025818D01*
X000916Y025789D01*
X000865Y025756D01*
X000816Y025720D01*
X000770Y025682D01*
X000726Y025640D01*
X000684Y025596D01*
X000646Y025550D01*
X000610Y025501D01*
X000577Y025450D01*
X000548Y025398D01*
X000521Y025343D01*
X000498Y025288D01*
X000478Y025231D01*
X000462Y025172D01*
X000449Y025113D01*
X000440Y025054D01*
X000435Y024993D01*
X000433Y024933D01*
X000433Y001433D01*
X000435Y001373D01*
X000440Y001312D01*
X000449Y001253D01*
X000462Y001194D01*
X000478Y001135D01*
X000498Y001078D01*
X000521Y001023D01*
X000548Y000968D01*
X000577Y000916D01*
X000610Y000865D01*
X000646Y000816D01*
X000684Y000770D01*
X000726Y000726D01*
X000770Y000684D01*
X000816Y000646D01*
X000865Y000610D01*
X000916Y000577D01*
X000968Y000548D01*
X001023Y000521D01*
X001078Y000498D01*
X001135Y000478D01*
X001194Y000462D01*
X001253Y000449D01*
X001312Y000440D01*
X001373Y000435D01*
X001433Y000433D01*
X001373Y000435D01*
X001312Y000440D01*
X001253Y000449D01*
X001194Y000462D01*
X001135Y000478D01*
X001078Y000498D01*
X001023Y000521D01*
X000968Y000548D01*
X000916Y000577D01*
X000865Y000610D01*
X000816Y000646D01*
X000770Y000684D01*
X000726Y000726D01*
X000684Y000770D01*
X000646Y000816D01*
X000610Y000865D01*
X000577Y000916D01*
X000548Y000968D01*
X000521Y001023D01*
X000498Y001078D01*
X000478Y001135D01*
X000462Y001194D01*
X000449Y001253D01*
X000440Y001312D01*
X000435Y001373D01*
X000433Y001433D01*
X001132Y005083D02*
X001134Y005130D01*
X001140Y005176D01*
X001150Y005222D01*
X001163Y005267D01*
X001181Y005310D01*
X001202Y005352D01*
X001226Y005392D01*
X001254Y005429D01*
X001285Y005464D01*
X001319Y005497D01*
X001355Y005526D01*
X001394Y005552D01*
X001435Y005575D01*
X001478Y005594D01*
X001522Y005610D01*
X001567Y005622D01*
X001613Y005630D01*
X001660Y005634D01*
X001706Y005634D01*
X001753Y005630D01*
X001799Y005622D01*
X001844Y005610D01*
X001888Y005594D01*
X001931Y005575D01*
X001972Y005552D01*
X002011Y005526D01*
X002047Y005497D01*
X002081Y005464D01*
X002112Y005429D01*
X002140Y005392D01*
X002164Y005352D01*
X002185Y005310D01*
X002203Y005267D01*
X002216Y005222D01*
X002226Y005176D01*
X002232Y005130D01*
X002234Y005083D01*
X002232Y005036D01*
X002226Y004990D01*
X002216Y004944D01*
X002203Y004899D01*
X002185Y004856D01*
X002164Y004814D01*
X002140Y004774D01*
X002112Y004737D01*
X002081Y004702D01*
X002047Y004669D01*
X002011Y004640D01*
X001972Y004614D01*
X001931Y004591D01*
X001888Y004572D01*
X001844Y004556D01*
X001799Y004544D01*
X001753Y004536D01*
X001706Y004532D01*
X001660Y004532D01*
X001613Y004536D01*
X001567Y004544D01*
X001522Y004556D01*
X001478Y004572D01*
X001435Y004591D01*
X001394Y004614D01*
X001355Y004640D01*
X001319Y004669D01*
X001285Y004702D01*
X001254Y004737D01*
X001226Y004774D01*
X001202Y004814D01*
X001181Y004856D01*
X001163Y004899D01*
X001150Y004944D01*
X001140Y004990D01*
X001134Y005036D01*
X001132Y005083D01*
X001132Y023683D02*
X001134Y023730D01*
X001140Y023776D01*
X001150Y023822D01*
X001163Y023867D01*
X001181Y023910D01*
X001202Y023952D01*
X001226Y023992D01*
X001254Y024029D01*
X001285Y024064D01*
X001319Y024097D01*
X001355Y024126D01*
X001394Y024152D01*
X001435Y024175D01*
X001478Y024194D01*
X001522Y024210D01*
X001567Y024222D01*
X001613Y024230D01*
X001660Y024234D01*
X001706Y024234D01*
X001753Y024230D01*
X001799Y024222D01*
X001844Y024210D01*
X001888Y024194D01*
X001931Y024175D01*
X001972Y024152D01*
X002011Y024126D01*
X002047Y024097D01*
X002081Y024064D01*
X002112Y024029D01*
X002140Y023992D01*
X002164Y023952D01*
X002185Y023910D01*
X002203Y023867D01*
X002216Y023822D01*
X002226Y023776D01*
X002232Y023730D01*
X002234Y023683D01*
X002232Y023636D01*
X002226Y023590D01*
X002216Y023544D01*
X002203Y023499D01*
X002185Y023456D01*
X002164Y023414D01*
X002140Y023374D01*
X002112Y023337D01*
X002081Y023302D01*
X002047Y023269D01*
X002011Y023240D01*
X001972Y023214D01*
X001931Y023191D01*
X001888Y023172D01*
X001844Y023156D01*
X001799Y023144D01*
X001753Y023136D01*
X001706Y023132D01*
X001660Y023132D01*
X001613Y023136D01*
X001567Y023144D01*
X001522Y023156D01*
X001478Y023172D01*
X001435Y023191D01*
X001394Y023214D01*
X001355Y023240D01*
X001319Y023269D01*
X001285Y023302D01*
X001254Y023337D01*
X001226Y023374D01*
X001202Y023414D01*
X001181Y023456D01*
X001163Y023499D01*
X001150Y023544D01*
X001140Y023590D01*
X001134Y023636D01*
X001132Y023683D01*
X000433Y024933D02*
X000435Y024993D01*
X000440Y025054D01*
X000449Y025113D01*
X000462Y025172D01*
X000478Y025231D01*
X000498Y025288D01*
X000521Y025343D01*
X000548Y025398D01*
X000577Y025450D01*
X000610Y025501D01*
X000646Y025550D01*
X000684Y025596D01*
X000726Y025640D01*
X000770Y025682D01*
X000816Y025720D01*
X000865Y025756D01*
X000916Y025789D01*
X000968Y025818D01*
X001023Y025845D01*
X001078Y025868D01*
X001135Y025888D01*
X001194Y025904D01*
X001253Y025917D01*
X001312Y025926D01*
X001373Y025931D01*
X001433Y025933D01*
X037632Y023683D02*
X037634Y023730D01*
X037640Y023776D01*
X037650Y023822D01*
X037663Y023867D01*
X037681Y023910D01*
X037702Y023952D01*
X037726Y023992D01*
X037754Y024029D01*
X037785Y024064D01*
X037819Y024097D01*
X037855Y024126D01*
X037894Y024152D01*
X037935Y024175D01*
X037978Y024194D01*
X038022Y024210D01*
X038067Y024222D01*
X038113Y024230D01*
X038160Y024234D01*
X038206Y024234D01*
X038253Y024230D01*
X038299Y024222D01*
X038344Y024210D01*
X038388Y024194D01*
X038431Y024175D01*
X038472Y024152D01*
X038511Y024126D01*
X038547Y024097D01*
X038581Y024064D01*
X038612Y024029D01*
X038640Y023992D01*
X038664Y023952D01*
X038685Y023910D01*
X038703Y023867D01*
X038716Y023822D01*
X038726Y023776D01*
X038732Y023730D01*
X038734Y023683D01*
X038732Y023636D01*
X038726Y023590D01*
X038716Y023544D01*
X038703Y023499D01*
X038685Y023456D01*
X038664Y023414D01*
X038640Y023374D01*
X038612Y023337D01*
X038581Y023302D01*
X038547Y023269D01*
X038511Y023240D01*
X038472Y023214D01*
X038431Y023191D01*
X038388Y023172D01*
X038344Y023156D01*
X038299Y023144D01*
X038253Y023136D01*
X038206Y023132D01*
X038160Y023132D01*
X038113Y023136D01*
X038067Y023144D01*
X038022Y023156D01*
X037978Y023172D01*
X037935Y023191D01*
X037894Y023214D01*
X037855Y023240D01*
X037819Y023269D01*
X037785Y023302D01*
X037754Y023337D01*
X037726Y023374D01*
X037702Y023414D01*
X037681Y023456D01*
X037663Y023499D01*
X037650Y023544D01*
X037640Y023590D01*
X037634Y023636D01*
X037632Y023683D01*
X037632Y005083D02*
X037634Y005130D01*
X037640Y005176D01*
X037650Y005222D01*
X037663Y005267D01*
X037681Y005310D01*
X037702Y005352D01*
X037726Y005392D01*
X037754Y005429D01*
X037785Y005464D01*
X037819Y005497D01*
X037855Y005526D01*
X037894Y005552D01*
X037935Y005575D01*
X037978Y005594D01*
X038022Y005610D01*
X038067Y005622D01*
X038113Y005630D01*
X038160Y005634D01*
X038206Y005634D01*
X038253Y005630D01*
X038299Y005622D01*
X038344Y005610D01*
X038388Y005594D01*
X038431Y005575D01*
X038472Y005552D01*
X038511Y005526D01*
X038547Y005497D01*
X038581Y005464D01*
X038612Y005429D01*
X038640Y005392D01*
X038664Y005352D01*
X038685Y005310D01*
X038703Y005267D01*
X038716Y005222D01*
X038726Y005176D01*
X038732Y005130D01*
X038734Y005083D01*
X038732Y005036D01*
X038726Y004990D01*
X038716Y004944D01*
X038703Y004899D01*
X038685Y004856D01*
X038664Y004814D01*
X038640Y004774D01*
X038612Y004737D01*
X038581Y004702D01*
X038547Y004669D01*
X038511Y004640D01*
X038472Y004614D01*
X038431Y004591D01*
X038388Y004572D01*
X038344Y004556D01*
X038299Y004544D01*
X038253Y004536D01*
X038206Y004532D01*
X038160Y004532D01*
X038113Y004536D01*
X038067Y004544D01*
X038022Y004556D01*
X037978Y004572D01*
X037935Y004591D01*
X037894Y004614D01*
X037855Y004640D01*
X037819Y004669D01*
X037785Y004702D01*
X037754Y004737D01*
X037726Y004774D01*
X037702Y004814D01*
X037681Y004856D01*
X037663Y004899D01*
X037650Y004944D01*
X037640Y004990D01*
X037634Y005036D01*
X037632Y005083D01*
X039433Y001433D02*
X039418Y001366D01*
X039399Y001299D01*
X039376Y001234D01*
X039350Y001170D01*
X039321Y001108D01*
X039288Y001047D01*
X039252Y000988D01*
X039213Y000931D01*
X039170Y000876D01*
X039125Y000824D01*
X039077Y000774D01*
X039027Y000727D01*
X038974Y000683D01*
X038919Y000642D01*
X038861Y000603D01*
X038802Y000568D01*
X038741Y000536D01*
X038678Y000508D01*
X038613Y000483D01*
X038548Y000461D01*
X038481Y000443D01*
X038413Y000429D01*
X038345Y000418D01*
X038277Y000411D01*
X038208Y000408D01*
X038139Y000409D01*
X038070Y000413D01*
X038001Y000421D01*
X037933Y000433D01*
D11*
X020808Y013733D03*
X020808Y015633D03*
D12*
X019178Y015183D03*
X019178Y014183D03*
X019178Y013183D03*
X017371Y014058D03*
X017371Y015058D03*
X015933Y016183D03*
X015933Y017183D03*
X019308Y017496D03*
X020308Y017496D03*
X019178Y016183D03*
X027058Y017183D03*
X027058Y018183D03*
X029246Y014433D03*
X029246Y013433D03*
X020683Y008683D03*
X020683Y007683D03*
X005433Y016682D03*
X004433Y016682D03*
X033246Y020121D03*
X033246Y021121D03*
X035433Y024433D03*
X036433Y024433D03*
D13*
X001816Y016683D02*
X001076Y016683D01*
X001076Y015683D02*
X001816Y015683D01*
X001816Y014683D02*
X001076Y014683D01*
X001076Y013683D02*
X001816Y013683D01*
X001816Y012683D02*
X001076Y012683D01*
X001076Y011683D02*
X001816Y011683D01*
D14*
X027683Y011183D03*
X028683Y011183D03*
X028683Y012183D03*
X027683Y012183D03*
X027683Y010183D03*
X028683Y010183D03*
D15*
X008683Y014121D03*
X007683Y014121D03*
X004189Y004939D03*
X003189Y004939D03*
D16*
X027329Y024556D03*
X032526Y024202D03*
D17*
X031896Y019044D03*
X029534Y019044D03*
D18*
X029573Y022902D03*
X029140Y023060D03*
X030006Y023060D03*
X030439Y023217D03*
X030872Y023060D03*
X031305Y023217D03*
X031739Y023060D03*
X032172Y023060D03*
D19*
X025923Y023183D02*
X025443Y023183D01*
X025443Y022183D02*
X025923Y022183D01*
X025923Y021183D02*
X025443Y021183D01*
X025443Y020183D02*
X025923Y020183D01*
X025923Y019183D02*
X025443Y019183D01*
X025443Y018183D02*
X025923Y018183D01*
X025923Y017183D02*
X025443Y017183D01*
X025443Y016183D02*
X025923Y016183D01*
X025923Y015183D02*
X025443Y015183D01*
X025443Y014183D02*
X025923Y014183D01*
X025923Y013183D02*
X025443Y013183D01*
X025443Y012183D02*
X025923Y012183D01*
X025923Y011183D02*
X025443Y011183D01*
X025443Y010183D02*
X025923Y010183D01*
X026693Y008183D02*
X027173Y008183D01*
X027173Y007183D02*
X026693Y007183D01*
X029693Y007183D02*
X030173Y007183D01*
X030173Y008183D02*
X029693Y008183D01*
X022923Y010183D02*
X022443Y010183D01*
X022443Y011183D02*
X022923Y011183D01*
X022923Y012183D02*
X022443Y012183D01*
X022443Y013183D02*
X022923Y013183D01*
X022923Y014183D02*
X022443Y014183D01*
X022443Y015183D02*
X022923Y015183D01*
X022923Y016183D02*
X022443Y016183D01*
X022443Y017183D02*
X022923Y017183D01*
X022923Y018183D02*
X022443Y018183D01*
X022443Y019183D02*
X022923Y019183D01*
X022923Y020183D02*
X022443Y020183D01*
X022443Y021183D02*
X022923Y021183D01*
X022923Y022183D02*
X022443Y022183D01*
X022443Y023183D02*
X022923Y023183D01*
X004683Y010923D02*
X004683Y010443D01*
X003167Y010440D02*
X003167Y010920D01*
X003167Y006920D02*
X003167Y006440D01*
X004683Y006443D02*
X004683Y006923D01*
D20*
X034159Y021933D03*
D21*
X035621Y021933D03*
D22*
X035308Y021120D03*
X034808Y021120D03*
X034308Y021120D03*
X034308Y022746D03*
X034808Y022746D03*
X035308Y022746D03*
D23*
X017183Y018121D03*
X016183Y018121D03*
X015183Y018121D03*
X014183Y018121D03*
X008183Y018121D03*
X007183Y018121D03*
X006183Y018121D03*
D24*
X010183Y016746D03*
X010183Y015183D03*
X010183Y013683D03*
X014183Y013683D03*
X014183Y015183D03*
X014183Y016746D03*
X014433Y010183D03*
X013183Y010183D03*
X015683Y010183D03*
X016933Y010183D03*
X018183Y010183D03*
X019433Y010183D03*
X019433Y006183D03*
X018183Y006183D03*
X016933Y006183D03*
X015683Y006183D03*
X014433Y006183D03*
X013183Y006183D03*
X013183Y004933D03*
X009183Y004933D03*
X007433Y004683D03*
X006246Y004683D03*
X007183Y003246D03*
X003183Y003246D03*
X006246Y008683D03*
X007433Y008683D03*
X019933Y003433D03*
X023933Y003433D03*
X032683Y004933D03*
X037183Y006183D03*
X032683Y008933D03*
X037183Y010183D03*
X037183Y011183D03*
X038433Y012433D03*
X037183Y015183D03*
X038433Y016433D03*
X036683Y017183D03*
X038433Y017996D03*
X036683Y021183D03*
X038433Y021996D03*
D25*
X018227Y012452D03*
D26*
X017439Y012452D03*
X016652Y012452D03*
X015864Y012452D03*
X015077Y012452D03*
X014290Y012452D03*
X013502Y012452D03*
X012715Y012452D03*
X011927Y012452D03*
X011140Y012452D03*
X011140Y003790D03*
X011927Y003790D03*
X012715Y003790D03*
X013502Y003790D03*
X014290Y003790D03*
X015077Y003790D03*
X015864Y003790D03*
X016652Y003790D03*
X017439Y003790D03*
X018227Y003790D03*
D27*
X003433Y018371D03*
X002433Y019371D03*
X001433Y020371D03*
X003433Y020371D03*
X001433Y018371D03*
D28*
X019183Y002183D03*
X019183Y001183D03*
X021433Y001183D03*
X021433Y002183D03*
X023933Y002183D03*
X023933Y001183D03*
X026433Y001183D03*
X026433Y002183D03*
X028933Y002183D03*
X028933Y001183D03*
D29*
X035183Y002933D03*
D30*
X032083Y002933D03*
X038283Y002933D03*
D31*
X024933Y004653D03*
X024433Y004653D03*
X023933Y004653D03*
X023433Y004653D03*
X023433Y006713D03*
X023933Y006713D03*
X024433Y006713D03*
X024933Y006713D03*
D32*
X022683Y005183D03*
X021683Y005183D03*
D33*
X034132Y018477D03*
X034132Y018674D03*
X034132Y018871D03*
X034132Y019068D03*
X034132Y019265D03*
X035235Y019265D03*
X035235Y019068D03*
X035235Y018871D03*
X035235Y018674D03*
X035235Y018477D03*
D34*
X034880Y018320D03*
X034683Y018320D03*
X034487Y018320D03*
X034487Y019422D03*
X034683Y019422D03*
X034880Y019422D03*
D35*
X007593Y009963D03*
X006683Y009963D03*
X005773Y009963D03*
D36*
X006683Y012403D03*
X010933Y011153D03*
D37*
X001750Y009683D02*
X001117Y009683D01*
X001117Y008683D02*
X001750Y008683D01*
X001750Y003183D02*
X001117Y003183D01*
X001117Y002183D02*
X001750Y002183D01*
D38*
X034907Y006183D02*
X035460Y006183D01*
X035460Y007183D02*
X034907Y007183D01*
X034907Y008183D02*
X035460Y008183D01*
D39*
X011843Y008713D03*
X010933Y008713D03*
X010024Y008713D03*
D40*
X025683Y006483D03*
X025683Y005883D03*
D41*
X006983Y016683D03*
X006383Y016683D03*
D42*
X030526Y016333D03*
X035841Y016333D03*
X035841Y010034D03*
X035250Y010034D03*
X034660Y010034D03*
X034069Y010034D03*
X033479Y010034D03*
X032888Y010034D03*
X032298Y010034D03*
X031707Y010034D03*
X031116Y010034D03*
X030526Y010034D03*
D43*
X001106Y000792D02*
X000924Y000924D01*
X000792Y001106D01*
X000722Y001321D01*
X000713Y001433D01*
X000713Y001801D01*
X000802Y001712D01*
X001006Y001627D01*
X001860Y001627D01*
X002065Y001712D01*
X002136Y001783D01*
X007604Y001783D01*
X007763Y001783D01*
X007910Y001844D01*
X008660Y002594D01*
X008772Y002707D01*
X008833Y002854D01*
X008833Y004477D01*
X008947Y004363D01*
X009419Y004363D01*
X009753Y004697D01*
X009753Y004994D01*
X010173Y005414D01*
X011702Y005414D01*
X011845Y005414D01*
X011977Y005468D01*
X012332Y005823D01*
X012737Y005823D01*
X012947Y005613D01*
X013411Y005613D01*
X013301Y005503D01*
X012947Y005503D01*
X012613Y005169D01*
X012613Y004697D01*
X012947Y004363D01*
X013419Y004363D01*
X013753Y004697D01*
X013753Y005051D01*
X013990Y005287D01*
X014080Y005377D01*
X014128Y005495D01*
X014128Y005796D01*
X014230Y005693D01*
X014433Y005693D01*
X014433Y006183D01*
X014434Y006183D01*
X014434Y005693D01*
X014519Y005693D01*
X014120Y005294D01*
X014120Y005294D01*
X014035Y005210D01*
X013990Y005099D01*
X013990Y004126D01*
X013908Y004045D01*
X013896Y004015D01*
X013884Y004045D01*
X013757Y004172D01*
X013592Y004240D01*
X013413Y004240D01*
X013247Y004172D01*
X013121Y004045D01*
X013109Y004015D01*
X013096Y004045D01*
X012970Y004172D01*
X012804Y004240D01*
X012625Y004240D01*
X012460Y004172D01*
X012333Y004045D01*
X012321Y004015D01*
X012309Y004045D01*
X012182Y004172D01*
X012017Y004240D01*
X011838Y004240D01*
X011673Y004172D01*
X011546Y004045D01*
X011534Y004015D01*
X011522Y004045D01*
X011395Y004172D01*
X011230Y004240D01*
X011051Y004240D01*
X010885Y004172D01*
X010759Y004045D01*
X010690Y003880D01*
X010690Y003701D01*
X010759Y003535D01*
X010885Y003409D01*
X011051Y003340D01*
X011230Y003340D01*
X011395Y003409D01*
X011522Y003535D01*
X011534Y003565D01*
X011546Y003535D01*
X011673Y003409D01*
X011838Y003340D01*
X012017Y003340D01*
X012182Y003409D01*
X012309Y003535D01*
X012321Y003565D01*
X012333Y003535D01*
X012460Y003409D01*
X012625Y003340D01*
X012804Y003340D01*
X012970Y003409D01*
X013096Y003535D01*
X013109Y003565D01*
X013121Y003535D01*
X013247Y003409D01*
X013413Y003340D01*
X013592Y003340D01*
X013757Y003409D01*
X013884Y003535D01*
X013896Y003565D01*
X013908Y003535D01*
X014035Y003409D01*
X014200Y003340D01*
X014379Y003340D01*
X014545Y003409D01*
X014671Y003535D01*
X014683Y003565D01*
X014696Y003535D01*
X014822Y003409D01*
X014988Y003340D01*
X015167Y003340D01*
X015332Y003409D01*
X015459Y003535D01*
X015471Y003565D01*
X015483Y003535D01*
X015610Y003409D01*
X015775Y003340D01*
X015954Y003340D01*
X016119Y003409D01*
X016246Y003535D01*
X016258Y003565D01*
X016270Y003535D01*
X016397Y003409D01*
X016562Y003340D01*
X016741Y003340D01*
X016907Y003409D01*
X017033Y003535D01*
X017046Y003565D01*
X017058Y003535D01*
X017184Y003409D01*
X017350Y003340D01*
X017529Y003340D01*
X017694Y003409D01*
X017821Y003535D01*
X017833Y003565D01*
X017845Y003535D01*
X017972Y003409D01*
X018137Y003340D01*
X018316Y003340D01*
X018482Y003409D01*
X018608Y003535D01*
X018677Y003701D01*
X018677Y003880D01*
X018608Y004045D01*
X018482Y004172D01*
X018316Y004240D01*
X018137Y004240D01*
X017972Y004172D01*
X017845Y004045D01*
X017833Y004015D01*
X017821Y004045D01*
X017694Y004172D01*
X017529Y004240D01*
X017350Y004240D01*
X017184Y004172D01*
X017058Y004045D01*
X017046Y004015D01*
X017033Y004045D01*
X016907Y004172D01*
X016741Y004240D01*
X016562Y004240D01*
X016397Y004172D01*
X016270Y004045D01*
X016258Y004015D01*
X016246Y004045D01*
X016119Y004172D01*
X015954Y004240D01*
X015775Y004240D01*
X015610Y004172D01*
X015483Y004045D01*
X015471Y004015D01*
X015459Y004045D01*
X015332Y004172D01*
X015167Y004240D01*
X014988Y004240D01*
X014822Y004172D01*
X014696Y004045D01*
X014683Y004015D01*
X014671Y004045D01*
X014590Y004126D01*
X014590Y004915D01*
X015228Y005554D01*
X015228Y005554D01*
X015313Y005638D01*
X015345Y005716D01*
X015447Y005613D01*
X015744Y005613D01*
X016628Y004729D01*
X016729Y004628D01*
X016862Y004573D01*
X018534Y004573D01*
X018823Y004284D01*
X018823Y002481D01*
X018789Y002447D01*
X018718Y002276D01*
X018718Y002091D01*
X018789Y001920D01*
X018920Y001789D01*
X019091Y001718D01*
X019276Y001718D01*
X019447Y001789D01*
X019578Y001920D01*
X019648Y002091D01*
X019648Y002276D01*
X019578Y002447D01*
X019543Y002481D01*
X019543Y003017D01*
X019697Y002863D01*
X020169Y002863D01*
X020503Y003197D01*
X020503Y003354D01*
X021073Y002784D01*
X021073Y002481D01*
X021039Y002447D01*
X020968Y002276D01*
X020968Y002091D01*
X021039Y001920D01*
X021170Y001789D01*
X021341Y001718D01*
X021526Y001718D01*
X021697Y001789D01*
X021828Y001920D01*
X021898Y002091D01*
X021898Y002276D01*
X021828Y002447D01*
X021793Y002481D01*
X021793Y002862D01*
X021793Y002871D01*
X023468Y001196D01*
X023468Y001091D01*
X023539Y000920D01*
X023670Y000789D01*
X023841Y000718D01*
X024026Y000718D01*
X024197Y000789D01*
X024328Y000920D01*
X024398Y001091D01*
X024398Y001276D01*
X024328Y001447D01*
X024197Y001578D01*
X024026Y001648D01*
X023921Y001648D01*
X023851Y001718D01*
X024026Y001718D01*
X024197Y001789D01*
X024328Y001920D01*
X024398Y002091D01*
X024398Y002276D01*
X024328Y002447D01*
X024253Y002521D01*
X024253Y002947D01*
X024503Y003197D01*
X024503Y003669D01*
X024169Y004003D01*
X024161Y004003D01*
X024183Y004012D01*
X024266Y003978D01*
X024601Y003978D01*
X024689Y004015D01*
X024747Y004072D01*
X024752Y004069D01*
X024792Y004058D01*
X024933Y004058D01*
X024933Y004653D01*
X024934Y004653D01*
X024934Y004654D01*
X024933Y004654D01*
X024933Y005248D01*
X024792Y005248D01*
X024753Y005238D01*
X024753Y005301D01*
X025016Y005563D01*
X025146Y005563D01*
X025165Y005517D01*
X025232Y005450D01*
X025321Y005413D01*
X026046Y005413D01*
X026134Y005450D01*
X026202Y005517D01*
X026204Y005523D01*
X030955Y005523D01*
X031087Y005578D01*
X031189Y005679D01*
X031832Y006323D01*
X032284Y006323D01*
X034378Y004229D01*
X034479Y004128D01*
X034612Y004073D01*
X036634Y004073D01*
X037418Y003289D01*
X037418Y002261D01*
X037455Y002172D01*
X037522Y002105D01*
X037611Y002068D01*
X038956Y002068D01*
X039044Y002105D01*
X039112Y002172D01*
X039148Y002261D01*
X039148Y003606D01*
X039112Y003694D01*
X039044Y003762D01*
X038956Y003798D01*
X037927Y003798D01*
X036987Y004739D01*
X036855Y004793D01*
X036712Y004793D01*
X035996Y004793D01*
X036080Y004877D01*
X036830Y005627D01*
X036860Y005701D01*
X036947Y005613D01*
X037419Y005613D01*
X037753Y005947D01*
X037753Y006419D01*
X037503Y006669D01*
X037503Y009051D01*
X038052Y009600D01*
X038142Y009690D01*
X038191Y009807D01*
X038191Y011432D01*
X038191Y011560D01*
X038142Y011677D01*
X037455Y012365D01*
X037365Y012455D01*
X037247Y012503D01*
X036253Y012503D01*
X035308Y013448D01*
X036909Y013448D01*
X037863Y012494D01*
X037863Y012197D01*
X038197Y011863D01*
X038669Y011863D01*
X039003Y012197D01*
X039003Y012669D01*
X038669Y013003D01*
X038372Y013003D01*
X037262Y014114D01*
X037130Y014168D01*
X036987Y014168D01*
X035503Y014168D01*
X035503Y015741D01*
X035508Y015736D01*
X035596Y015699D01*
X036085Y015699D01*
X036174Y015736D01*
X036241Y015803D01*
X036278Y015892D01*
X036278Y016774D01*
X036272Y016789D01*
X036447Y016613D01*
X036919Y016613D01*
X037253Y016947D01*
X037253Y017419D01*
X036919Y017753D01*
X036447Y017753D01*
X036113Y017419D01*
X036113Y016955D01*
X036085Y016967D01*
X035596Y016967D01*
X035508Y016930D01*
X035503Y016925D01*
X035503Y017051D01*
X037615Y019162D01*
X037705Y019252D01*
X037753Y019370D01*
X037753Y021495D01*
X037753Y021622D01*
X037705Y021740D01*
X037331Y022113D01*
X037863Y022113D01*
X037863Y021760D01*
X038073Y021550D01*
X038073Y019207D01*
X037479Y018614D01*
X037378Y018512D01*
X037323Y018380D01*
X037323Y017255D01*
X037323Y017112D01*
X037378Y016979D01*
X037863Y016494D01*
X037863Y016372D01*
X037244Y015753D01*
X036947Y015753D01*
X036613Y015419D01*
X036613Y014947D01*
X036947Y014613D01*
X037419Y014613D01*
X037753Y014947D01*
X037753Y015244D01*
X038372Y015863D01*
X038669Y015863D01*
X039003Y016197D01*
X039003Y016669D01*
X038669Y017003D01*
X038372Y017003D01*
X038043Y017332D01*
X038043Y017580D01*
X038197Y017426D01*
X038669Y017426D01*
X039003Y017760D01*
X039003Y018232D01*
X038669Y018566D01*
X038450Y018566D01*
X038739Y018854D01*
X038793Y018987D01*
X038793Y019130D01*
X038793Y021550D01*
X039003Y021760D01*
X039003Y022232D01*
X038669Y022566D01*
X038316Y022566D01*
X038177Y022705D01*
X038060Y022753D01*
X037932Y022753D01*
X036503Y022753D01*
X036503Y023620D01*
X036503Y023747D01*
X036455Y023865D01*
X036286Y024033D01*
X036433Y024033D01*
X036433Y024433D01*
X036033Y024433D01*
X036033Y024286D01*
X035913Y024406D01*
X035913Y024632D01*
X035632Y024913D01*
X035406Y024913D01*
X035115Y025205D01*
X034997Y025253D01*
X034870Y025253D01*
X031370Y025253D01*
X031252Y025205D01*
X031162Y025115D01*
X031162Y025115D01*
X030433Y024386D01*
X030330Y024490D01*
X030240Y024580D01*
X030122Y024628D01*
X028622Y024628D01*
X028495Y024628D01*
X028377Y024580D01*
X027662Y023865D01*
X027613Y023747D01*
X027613Y023620D01*
X027613Y017566D01*
X027484Y017437D01*
X027257Y017663D01*
X026860Y017663D01*
X026578Y017382D01*
X026578Y016985D01*
X026805Y016758D01*
X026381Y016333D01*
X026330Y016455D01*
X026195Y016590D01*
X026019Y016663D01*
X025348Y016663D01*
X025171Y016590D01*
X025036Y016455D01*
X024986Y016333D01*
X024878Y016441D01*
X024878Y019536D01*
X025014Y019400D01*
X024963Y019279D01*
X024963Y019088D01*
X025036Y018911D01*
X025171Y018776D01*
X025348Y018703D01*
X025751Y018703D01*
X025711Y018663D01*
X025348Y018663D01*
X025171Y018590D01*
X025036Y018455D01*
X024963Y018279D01*
X024963Y018088D01*
X025036Y017911D01*
X025171Y017776D01*
X025348Y017703D01*
X026019Y017703D01*
X026195Y017776D01*
X026330Y017911D01*
X026403Y018088D01*
X026403Y018279D01*
X026353Y018400D01*
X027365Y019412D01*
X027455Y019502D01*
X027503Y019620D01*
X027503Y023120D01*
X027503Y023247D01*
X027455Y023365D01*
X026205Y024615D01*
X026115Y024705D01*
X025997Y024753D01*
X020497Y024753D01*
X020370Y024753D01*
X020252Y024705D01*
X016676Y021128D01*
X011649Y021128D01*
X011648Y021129D01*
X011509Y021187D01*
X011358Y021187D01*
X011219Y021129D01*
X011113Y021023D01*
X011055Y020884D01*
X011055Y020733D01*
X011113Y020594D01*
X011127Y020580D01*
X010162Y019615D01*
X010113Y019497D01*
X010113Y019370D01*
X010113Y018566D01*
X008287Y016740D01*
X008238Y016622D01*
X008238Y016495D01*
X008238Y015805D01*
X008238Y015804D01*
X008180Y015665D01*
X008180Y015514D01*
X008185Y015503D01*
X007370Y015503D01*
X007333Y015488D01*
X007333Y016158D01*
X007349Y016165D01*
X007417Y016232D01*
X007453Y016321D01*
X007453Y017046D01*
X007417Y017134D01*
X007349Y017202D01*
X007261Y017238D01*
X006706Y017238D01*
X006683Y017229D01*
X006661Y017238D01*
X006106Y017238D01*
X006017Y017202D01*
X005950Y017134D01*
X005928Y017082D01*
X005712Y017082D01*
X005632Y017162D01*
X005234Y017162D01*
X004953Y016880D01*
X004953Y016483D01*
X005234Y016202D01*
X005632Y016202D01*
X005712Y016282D01*
X005930Y016282D01*
X005950Y016232D01*
X006017Y016165D01*
X006106Y016128D01*
X006533Y016128D01*
X006533Y014604D01*
X006594Y014457D01*
X006685Y014366D01*
X005253Y012955D01*
X005252Y012955D01*
X005207Y012909D01*
X005163Y012867D01*
X005163Y012866D01*
X005162Y012865D01*
X005138Y012806D01*
X005114Y012749D01*
X005114Y012748D01*
X005113Y012747D01*
X005113Y012686D01*
X005113Y012622D01*
X005113Y012621D01*
X005113Y011245D01*
X005162Y011127D01*
X005252Y011037D01*
X005453Y010836D01*
X005453Y010630D01*
X005397Y010607D01*
X005330Y010539D01*
X005293Y010451D01*
X005293Y009476D01*
X005330Y009387D01*
X005354Y009363D01*
X005083Y009092D01*
X005083Y009138D01*
X005022Y009285D01*
X003647Y010660D01*
X003647Y011015D01*
X003574Y011191D01*
X003439Y011326D01*
X003263Y011400D01*
X003072Y011400D01*
X002895Y011326D01*
X002760Y011191D01*
X002714Y011080D01*
X002509Y011080D01*
X002350Y011080D01*
X002203Y011019D01*
X001424Y010240D01*
X001006Y010240D01*
X000802Y010155D01*
X000713Y010066D01*
X000713Y011296D01*
X000730Y011279D01*
X000798Y011230D01*
X000872Y011192D01*
X000952Y011166D01*
X001034Y011153D01*
X001426Y011153D01*
X001426Y011663D01*
X001466Y011663D01*
X001466Y011703D01*
X002346Y011703D01*
X002346Y011725D01*
X002333Y011807D01*
X002307Y011887D01*
X002269Y011961D01*
X002220Y012029D01*
X002161Y012088D01*
X002093Y012137D01*
X002019Y012174D01*
X001992Y012183D01*
X002019Y012192D01*
X002093Y012230D01*
X002161Y012279D01*
X002220Y012338D01*
X002269Y012406D01*
X002307Y012480D01*
X002333Y012559D01*
X002346Y012642D01*
X002346Y012663D01*
X001466Y012663D01*
X001466Y012703D01*
X002346Y012703D01*
X002346Y012725D01*
X002333Y012807D01*
X002307Y012887D01*
X002269Y012961D01*
X002220Y013029D01*
X002161Y013088D01*
X002093Y013137D01*
X002092Y013137D01*
X002161Y013166D01*
X002278Y013283D01*
X003018Y013283D01*
X004283Y012018D01*
X004283Y011202D01*
X004276Y011195D01*
X004203Y011019D01*
X004203Y010348D01*
X004276Y010171D01*
X004411Y010036D01*
X004588Y009963D01*
X004779Y009963D01*
X004955Y010036D01*
X005090Y010171D01*
X005163Y010348D01*
X005163Y011019D01*
X005090Y011195D01*
X005083Y011202D01*
X005083Y012263D01*
X005022Y012410D01*
X004910Y012522D01*
X003410Y014022D01*
X003263Y014083D01*
X003104Y014083D01*
X002278Y014083D01*
X002178Y014183D01*
X002318Y014323D01*
X002380Y014323D01*
X002512Y014378D01*
X002614Y014479D01*
X003817Y015683D01*
X003909Y015721D01*
X004021Y015833D01*
X004081Y015979D01*
X004081Y016138D01*
X004021Y016283D01*
X004153Y016283D01*
X004234Y016202D01*
X004632Y016202D01*
X004913Y016483D01*
X004913Y016880D01*
X004632Y017162D01*
X004234Y017162D01*
X004156Y017083D01*
X002278Y017083D01*
X002161Y017200D01*
X001937Y017293D01*
X000954Y017293D01*
X000730Y017200D01*
X000713Y017184D01*
X000713Y018183D01*
X000713Y024933D01*
X008683Y024933D01*
X008683Y024433D02*
X002045Y024433D01*
X002154Y024388D02*
X001849Y024515D01*
X001518Y024515D01*
X001213Y024388D01*
X000979Y024154D01*
X000852Y023849D01*
X000852Y023518D01*
X000979Y023213D01*
X001213Y022979D01*
X001518Y022852D01*
X001849Y022852D01*
X002154Y022979D01*
X002388Y023213D01*
X002515Y023518D01*
X002515Y023849D01*
X002388Y024154D01*
X002154Y024388D01*
X001933Y024479D02*
X001933Y025653D01*
X001489Y025653D02*
X008683Y025653D01*
X008683Y020433D01*
X003501Y020433D01*
X003501Y020439D01*
X003366Y020439D01*
X003366Y020961D01*
X003294Y020949D01*
X003206Y020920D01*
X003123Y020878D01*
X003047Y020823D01*
X002981Y020757D01*
X002926Y020682D01*
X002884Y020599D01*
X002855Y020510D01*
X002844Y020439D01*
X003365Y020439D01*
X003365Y020433D01*
X001501Y020433D01*
X001501Y020439D01*
X001366Y020439D01*
X001366Y020961D01*
X001294Y020949D01*
X001206Y020920D01*
X001123Y020878D01*
X001047Y020823D01*
X000981Y020757D01*
X000926Y020682D01*
X000884Y020599D01*
X000855Y020510D01*
X000844Y020439D01*
X001365Y020439D01*
X001365Y020433D01*
X000713Y020433D01*
X000713Y024933D01*
X000722Y025046D01*
X000792Y025260D01*
X000924Y025442D01*
X001106Y025575D01*
X001321Y025645D01*
X001433Y025653D01*
X001433Y024479D01*
X001322Y024433D02*
X000713Y024433D01*
X000713Y024373D02*
X001183Y024373D01*
X001183Y024359D02*
X001183Y025600D01*
X001106Y025575D01*
X000924Y025442D01*
X000792Y025260D01*
X000722Y025046D01*
X000713Y024933D01*
X000719Y025008D02*
X001183Y025008D01*
X001183Y025166D02*
X000761Y025166D01*
X000839Y025325D02*
X001183Y025325D01*
X001183Y025483D02*
X000980Y025483D01*
X000933Y025449D02*
X000933Y024045D01*
X000938Y024056D02*
X000713Y024056D01*
X000713Y023933D02*
X000887Y023933D01*
X000873Y023898D02*
X000713Y023898D01*
X000852Y023849D02*
X000852Y023518D01*
X000979Y023213D01*
X001183Y023008D01*
X001183Y020909D01*
X001123Y020878D01*
X001047Y020823D01*
X000981Y020757D01*
X000926Y020682D01*
X000884Y020599D01*
X000855Y020510D01*
X000844Y020439D01*
X001183Y020439D01*
X001183Y020303D01*
X000844Y020303D01*
X000855Y020232D01*
X000884Y020143D01*
X000926Y020060D01*
X000981Y019984D01*
X001047Y019919D01*
X001123Y019864D01*
X001183Y019833D01*
X001183Y018909D01*
X001123Y018878D01*
X001047Y018823D01*
X000981Y018757D01*
X000926Y018682D01*
X000884Y018599D01*
X000855Y018510D01*
X000844Y018439D01*
X001183Y018439D01*
X001183Y018303D01*
X000844Y018303D01*
X000855Y018232D01*
X000871Y018183D01*
X000713Y018183D01*
X000871Y018183D01*
X000884Y018143D01*
X000926Y018060D01*
X000981Y017984D01*
X001047Y017919D01*
X001123Y017864D01*
X001206Y017821D01*
X001294Y017792D01*
X001366Y017781D01*
X001366Y018183D01*
X001501Y018183D01*
X001501Y017781D01*
X001572Y017792D01*
X001661Y017821D01*
X001744Y017864D01*
X001820Y017919D01*
X001886Y017984D01*
X001941Y018060D01*
X001983Y018143D01*
X001996Y018183D01*
X002871Y018183D01*
X002884Y018143D01*
X002926Y018060D01*
X002981Y017984D01*
X003047Y017919D01*
X003123Y017864D01*
X003206Y017821D01*
X003294Y017792D01*
X003366Y017781D01*
X003366Y018183D01*
X003501Y018183D01*
X003501Y017781D01*
X003572Y017792D01*
X003661Y017821D01*
X003744Y017864D01*
X003820Y017919D01*
X003886Y017984D01*
X003941Y018060D01*
X003983Y018143D01*
X003996Y018183D01*
X005786Y018183D01*
X005786Y018121D01*
X006183Y018121D01*
X006183Y018121D01*
X005786Y018121D01*
X005786Y017862D01*
X005797Y017822D01*
X005818Y017785D01*
X005848Y017755D01*
X005884Y017734D01*
X005925Y017723D01*
X006183Y017723D01*
X006183Y018120D01*
X006184Y018120D01*
X006184Y017723D01*
X006442Y017723D01*
X006483Y017734D01*
X006519Y017755D01*
X006549Y017785D01*
X006570Y017822D01*
X006575Y017840D01*
X006615Y017741D01*
X006804Y017553D01*
X007050Y017451D01*
X007317Y017451D01*
X007563Y017553D01*
X007751Y017741D01*
X007792Y017840D01*
X007797Y017822D01*
X007818Y017785D01*
X007848Y017755D01*
X007884Y017734D01*
X007925Y017723D01*
X008183Y017723D01*
X008183Y018120D01*
X008184Y018120D01*
X008184Y017723D01*
X008442Y017723D01*
X008483Y017734D01*
X008519Y017755D01*
X008549Y017785D01*
X008570Y017822D01*
X008581Y017862D01*
X008581Y018121D01*
X008581Y018379D01*
X008570Y018420D01*
X008549Y018457D01*
X008519Y018486D01*
X008483Y018507D01*
X008442Y018518D01*
X008184Y018518D01*
X008184Y018121D01*
X008581Y018121D01*
X008184Y018121D01*
X008184Y018121D01*
X008183Y018121D01*
X008183Y018183D01*
X008183Y018183D01*
X008183Y025653D01*
X037891Y025653D01*
X037903Y025649D01*
X037946Y025653D01*
X037989Y025653D01*
X037994Y025655D01*
X038103Y025658D01*
X038386Y025609D01*
X038647Y025489D01*
X038867Y025305D01*
X039033Y025070D01*
X039132Y024800D01*
X039153Y024665D01*
X039153Y001468D01*
X039125Y001363D01*
X039010Y001130D01*
X038838Y000935D01*
X038622Y000791D01*
X038376Y000707D01*
X038117Y000691D01*
X038009Y000705D01*
X037989Y000713D01*
X037961Y000713D01*
X037934Y000719D01*
X037906Y000713D01*
X001489Y000713D01*
X001433Y000713D01*
X001321Y000722D01*
X001106Y000792D01*
X000933Y000918D02*
X000933Y001657D01*
X000713Y001433D02*
X018889Y001433D01*
X018884Y001429D02*
X018842Y001366D01*
X018813Y001296D01*
X018798Y001221D01*
X018798Y001184D01*
X019183Y001184D01*
X019183Y001568D01*
X019145Y001568D01*
X019071Y001554D01*
X019001Y001525D01*
X018938Y001482D01*
X018884Y001429D01*
X018933Y001478D02*
X018933Y001784D01*
X018784Y001933D02*
X007999Y001933D01*
X007933Y001868D02*
X007933Y000713D01*
X007433Y000713D02*
X007433Y001783D01*
X006933Y001783D02*
X006933Y000713D01*
X006433Y000713D02*
X006433Y001783D01*
X005933Y001783D02*
X005933Y000713D01*
X005433Y000713D02*
X005433Y001783D01*
X004933Y001783D02*
X004933Y000713D01*
X004433Y000713D02*
X004433Y001783D01*
X003933Y001783D02*
X003933Y000713D01*
X003433Y000713D02*
X003433Y001783D01*
X002933Y001783D02*
X002933Y000713D01*
X002433Y000713D02*
X002433Y001783D01*
X001933Y001657D02*
X001933Y000713D01*
X001433Y000713D02*
X001433Y001627D01*
X000918Y000933D02*
X018889Y000933D01*
X018884Y000938D02*
X018938Y000884D01*
X019001Y000842D01*
X019071Y000813D01*
X019145Y000798D01*
X019183Y000798D01*
X019183Y001183D01*
X018798Y001183D01*
X018798Y001145D01*
X018813Y001071D01*
X018842Y001001D01*
X018884Y000938D01*
X018933Y000889D02*
X018933Y000713D01*
X019184Y000798D02*
X019221Y000798D01*
X019296Y000813D01*
X019366Y000842D01*
X019429Y000884D01*
X019482Y000938D01*
X019525Y001001D01*
X019554Y001071D01*
X019568Y001145D01*
X019568Y001183D01*
X019184Y001183D01*
X019184Y001184D01*
X019183Y001184D01*
X019183Y001183D01*
X019184Y001183D01*
X019184Y000798D01*
X019183Y000933D02*
X019184Y000933D01*
X019184Y001184D02*
X019568Y001184D01*
X019568Y001221D01*
X019554Y001296D01*
X019525Y001366D01*
X019482Y001429D01*
X019429Y001482D01*
X019366Y001525D01*
X019296Y001554D01*
X019221Y001568D01*
X019184Y001568D01*
X019184Y001184D01*
X019433Y001183D02*
X019433Y001184D01*
X019478Y001433D02*
X021139Y001433D01*
X021134Y001429D02*
X021092Y001366D01*
X021063Y001296D01*
X021048Y001221D01*
X021048Y001184D01*
X021433Y001184D01*
X021433Y001568D01*
X021395Y001568D01*
X021321Y001554D01*
X021251Y001525D01*
X021188Y001482D01*
X021134Y001429D01*
X021048Y001183D02*
X021048Y001145D01*
X021063Y001071D01*
X021092Y001001D01*
X021134Y000938D01*
X021188Y000884D01*
X021251Y000842D01*
X021321Y000813D01*
X021395Y000798D01*
X021433Y000798D01*
X021433Y001183D01*
X021048Y001183D01*
X021139Y000933D02*
X019478Y000933D01*
X019433Y000889D02*
X019433Y000713D01*
X019933Y000713D02*
X019933Y002863D01*
X019627Y002933D02*
X019543Y002933D01*
X020239Y002933D02*
X020924Y002933D01*
X020933Y002924D02*
X020933Y000713D01*
X020433Y000713D02*
X020433Y003127D01*
X021034Y002433D02*
X019583Y002433D01*
X019583Y001933D02*
X021034Y001933D01*
X021433Y001718D02*
X021433Y001184D01*
X021434Y001184D01*
X021434Y001568D01*
X021471Y001568D01*
X021546Y001554D01*
X021616Y001525D01*
X021679Y001482D01*
X021732Y001429D01*
X021775Y001366D01*
X021804Y001296D01*
X021818Y001221D01*
X021818Y001184D01*
X021434Y001184D01*
X021434Y001183D01*
X021818Y001183D01*
X021818Y001145D01*
X021804Y001071D01*
X021775Y001001D01*
X021732Y000938D01*
X021679Y000884D01*
X021616Y000842D01*
X021546Y000813D01*
X021471Y000798D01*
X021434Y000798D01*
X021434Y001183D01*
X021433Y001183D01*
X021433Y001184D01*
X021433Y001183D02*
X021433Y000713D01*
X021433Y000933D02*
X021434Y000933D01*
X021728Y000933D02*
X023534Y000933D01*
X023433Y000713D02*
X023433Y001231D01*
X023231Y001433D02*
X021728Y001433D01*
X021434Y001433D02*
X021433Y001433D01*
X021833Y001933D02*
X022731Y001933D01*
X022933Y001731D02*
X022933Y000713D01*
X022433Y000713D02*
X022433Y002231D01*
X022231Y002433D02*
X021833Y002433D01*
X021933Y002731D02*
X021933Y000713D01*
X023933Y000713D02*
X023933Y000718D01*
X024333Y000933D02*
X026139Y000933D01*
X026134Y000938D02*
X026188Y000884D01*
X026251Y000842D01*
X026321Y000813D01*
X026395Y000798D01*
X026433Y000798D01*
X026433Y001183D01*
X026048Y001183D01*
X026048Y001145D01*
X026063Y001071D01*
X026092Y001001D01*
X026134Y000938D01*
X026048Y001184D02*
X026433Y001184D01*
X026433Y001568D01*
X026395Y001568D01*
X026321Y001554D01*
X026251Y001525D01*
X026188Y001482D01*
X026134Y001429D01*
X026092Y001366D01*
X026063Y001296D01*
X026048Y001221D01*
X026048Y001184D01*
X026139Y001433D02*
X024333Y001433D01*
X023933Y001648D02*
X023933Y001718D01*
X024333Y001933D02*
X026034Y001933D01*
X026039Y001920D02*
X026170Y001789D01*
X026341Y001718D01*
X026526Y001718D01*
X026697Y001789D01*
X026828Y001920D01*
X026898Y002091D01*
X026898Y002276D01*
X026828Y002447D01*
X026697Y002578D01*
X026526Y002648D01*
X026341Y002648D01*
X026170Y002578D01*
X026039Y002447D01*
X025968Y002276D01*
X025968Y002091D01*
X026039Y001920D01*
X026433Y001718D02*
X026433Y001184D01*
X026434Y001184D01*
X026434Y001568D01*
X026471Y001568D01*
X026546Y001554D01*
X026616Y001525D01*
X026679Y001482D01*
X026732Y001429D01*
X026775Y001366D01*
X026804Y001296D01*
X026818Y001221D01*
X026818Y001184D01*
X026434Y001184D01*
X026434Y001183D01*
X026818Y001183D01*
X026818Y001145D01*
X026804Y001071D01*
X026775Y001001D01*
X026732Y000938D01*
X026679Y000884D01*
X026616Y000842D01*
X026546Y000813D01*
X026471Y000798D01*
X026434Y000798D01*
X026434Y001183D01*
X026433Y001183D01*
X026433Y001184D01*
X026433Y001183D02*
X026433Y000713D01*
X026433Y000933D02*
X026434Y000933D01*
X026728Y000933D02*
X028639Y000933D01*
X028634Y000938D02*
X028688Y000884D01*
X028751Y000842D01*
X028821Y000813D01*
X028895Y000798D01*
X028933Y000798D01*
X028933Y001183D01*
X028548Y001183D01*
X028548Y001145D01*
X028563Y001071D01*
X028592Y001001D01*
X028634Y000938D01*
X028548Y001184D02*
X028933Y001184D01*
X028933Y001568D01*
X028895Y001568D01*
X028821Y001554D01*
X028751Y001525D01*
X028688Y001482D01*
X028634Y001429D01*
X028592Y001366D01*
X028563Y001296D01*
X028548Y001221D01*
X028548Y001184D01*
X028639Y001433D02*
X026728Y001433D01*
X026434Y001433D02*
X026433Y001433D01*
X026833Y001933D02*
X028534Y001933D01*
X028539Y001920D02*
X028670Y001789D01*
X028841Y001718D01*
X029026Y001718D01*
X029197Y001789D01*
X029328Y001920D01*
X029398Y002091D01*
X029398Y002139D01*
X031832Y004573D01*
X032237Y004573D01*
X032447Y004363D01*
X032919Y004363D01*
X033253Y004697D01*
X033253Y005169D01*
X032919Y005503D01*
X032447Y005503D01*
X032237Y005293D01*
X031755Y005293D01*
X031612Y005293D01*
X031479Y005239D01*
X028889Y002648D01*
X028841Y002648D01*
X028670Y002578D01*
X028539Y002447D01*
X028468Y002276D01*
X028468Y002091D01*
X028539Y001920D01*
X028933Y001718D02*
X028933Y001184D01*
X028934Y001184D01*
X028934Y001568D01*
X028971Y001568D01*
X029046Y001554D01*
X029116Y001525D01*
X029179Y001482D01*
X029232Y001429D01*
X029275Y001366D01*
X029304Y001296D01*
X029318Y001221D01*
X029318Y001184D01*
X028934Y001184D01*
X028934Y001183D01*
X029318Y001183D01*
X029318Y001145D01*
X029304Y001071D01*
X029275Y001001D01*
X029232Y000938D01*
X029179Y000884D01*
X029116Y000842D01*
X029046Y000813D01*
X028971Y000798D01*
X028934Y000798D01*
X028934Y001183D01*
X028933Y001183D01*
X028933Y001184D01*
X028933Y001183D02*
X028933Y000713D01*
X028933Y000933D02*
X028934Y000933D01*
X029228Y000933D02*
X038836Y000933D01*
X038933Y001043D02*
X038933Y002068D01*
X039153Y001933D02*
X029333Y001933D01*
X029433Y002174D02*
X029433Y000713D01*
X029933Y000713D02*
X029933Y002674D01*
X029692Y002433D02*
X031218Y002433D01*
X031218Y002261D02*
X031255Y002172D01*
X031322Y002105D01*
X031411Y002068D01*
X032756Y002068D01*
X032844Y002105D01*
X032912Y002172D01*
X032948Y002261D01*
X032948Y003606D01*
X032912Y003694D01*
X032844Y003762D01*
X032756Y003798D01*
X031411Y003798D01*
X031322Y003762D01*
X031255Y003694D01*
X031218Y003606D01*
X031218Y002261D01*
X031433Y002068D02*
X031433Y000713D01*
X030933Y000713D02*
X030933Y003674D01*
X030692Y003433D02*
X031218Y003433D01*
X031433Y003798D02*
X031433Y004174D01*
X031192Y003933D02*
X036774Y003933D01*
X036933Y003774D02*
X036933Y000713D01*
X036433Y000713D02*
X036433Y004073D01*
X036091Y003812D02*
X036062Y003841D01*
X036025Y003862D01*
X035984Y003873D01*
X035263Y003873D01*
X035263Y003014D01*
X035103Y003014D01*
X035103Y003873D01*
X034382Y003873D01*
X034342Y003862D01*
X034305Y003841D01*
X034275Y003812D01*
X034254Y003775D01*
X034243Y003734D01*
X034243Y003013D01*
X035103Y003013D01*
X035103Y002853D01*
X034243Y002853D01*
X034243Y002132D01*
X034254Y002092D01*
X034275Y002055D01*
X034305Y002025D01*
X034342Y002004D01*
X034382Y001993D01*
X035103Y001993D01*
X035103Y002853D01*
X035263Y002853D01*
X035263Y001993D01*
X035984Y001993D01*
X036025Y002004D01*
X036062Y002025D01*
X036091Y002055D01*
X036112Y002092D01*
X036123Y002132D01*
X036123Y002853D01*
X035264Y002853D01*
X035264Y003013D01*
X036123Y003013D01*
X036123Y003734D01*
X036112Y003775D01*
X036091Y003812D01*
X035933Y003873D02*
X035933Y004073D01*
X035433Y004073D02*
X035433Y003873D01*
X034933Y003873D02*
X034933Y004073D01*
X034433Y004174D02*
X034433Y003873D01*
X034243Y003433D02*
X032948Y003433D01*
X032933Y003642D02*
X032933Y004377D01*
X032989Y004433D02*
X034174Y004433D01*
X033933Y004674D02*
X033933Y000713D01*
X034433Y000713D02*
X034433Y001993D01*
X034243Y002433D02*
X032948Y002433D01*
X032933Y002224D02*
X032933Y000713D01*
X032433Y000713D02*
X032433Y002068D01*
X031933Y002068D02*
X031933Y000713D01*
X033433Y000713D02*
X033433Y005174D01*
X033253Y004933D02*
X033674Y004933D01*
X033174Y005433D02*
X032989Y005433D01*
X032933Y005489D02*
X032933Y005674D01*
X032674Y005933D02*
X031442Y005933D01*
X031433Y005924D02*
X031433Y005192D01*
X031174Y004933D02*
X025213Y004933D01*
X025213Y005109D02*
X025202Y005150D01*
X025181Y005187D01*
X025152Y005216D01*
X025115Y005237D01*
X025074Y005248D01*
X024934Y005248D01*
X024934Y004654D01*
X025213Y004654D01*
X025213Y005109D01*
X024934Y004933D02*
X024933Y004933D01*
X024933Y004654D02*
X024933Y005481D01*
X024886Y005433D02*
X025272Y005433D01*
X025433Y005413D02*
X025433Y000713D01*
X024933Y000713D02*
X024933Y004653D01*
X024934Y004653D02*
X024934Y004058D01*
X025074Y004058D01*
X025115Y004069D01*
X025152Y004090D01*
X025181Y004120D01*
X025202Y004157D01*
X025213Y004197D01*
X025213Y004653D01*
X024934Y004653D01*
X024933Y004433D02*
X024934Y004433D01*
X025213Y004433D02*
X030674Y004433D01*
X030433Y004192D02*
X030433Y005523D01*
X029933Y005523D02*
X029933Y003692D01*
X030174Y003933D02*
X024239Y003933D01*
X024433Y003978D02*
X024433Y003739D01*
X024503Y003433D02*
X029674Y003433D01*
X029433Y003192D02*
X029433Y005523D01*
X028933Y005523D02*
X028933Y002692D01*
X029174Y002933D02*
X024253Y002933D01*
X024433Y003127D02*
X024433Y000713D01*
X023933Y001183D02*
X020933Y004183D01*
X020933Y005433D01*
X021371Y005871D01*
X023683Y005871D01*
X023933Y006121D01*
X023933Y006713D01*
X024433Y006713D02*
X024433Y007433D01*
X023683Y008183D01*
X022683Y009183D01*
X019183Y009183D01*
X018183Y010183D01*
X017627Y009933D02*
X017489Y009933D01*
X017503Y009947D02*
X017503Y010419D01*
X017169Y010753D01*
X016816Y010753D01*
X016246Y011323D01*
X020034Y011323D01*
X021378Y009979D01*
X021479Y009878D01*
X021612Y009823D01*
X022125Y009823D01*
X022132Y009816D01*
X020253Y009816D01*
X020003Y010066D01*
X020003Y010419D01*
X019669Y010753D01*
X019197Y010753D01*
X018863Y010419D01*
X018863Y009956D01*
X018753Y010066D01*
X018753Y010419D01*
X018419Y010753D01*
X017947Y010753D01*
X017613Y010419D01*
X017613Y009947D01*
X017947Y009613D01*
X018301Y009613D01*
X019002Y008912D01*
X019120Y008863D01*
X019247Y008863D01*
X020298Y008863D01*
X020283Y008849D01*
X020283Y008684D01*
X020683Y008684D01*
X020683Y008683D01*
X020684Y008683D01*
X020684Y008684D01*
X021083Y008684D01*
X021083Y008849D01*
X021069Y008863D01*
X022551Y008863D01*
X022940Y008475D01*
X022863Y008398D01*
X022805Y008259D01*
X022805Y008108D01*
X022863Y007969D01*
X022863Y007968D01*
X022863Y007620D01*
X022912Y007502D01*
X023002Y007412D01*
X023113Y007301D01*
X023113Y007288D01*
X023110Y007284D01*
X023073Y007196D01*
X023073Y007043D01*
X021043Y007043D01*
X021043Y007365D01*
X021163Y007485D01*
X021163Y007882D01*
X020882Y008163D01*
X020485Y008163D01*
X020203Y007882D01*
X020203Y007485D01*
X020323Y007365D01*
X020323Y006832D01*
X020034Y006543D01*
X019879Y006543D01*
X019669Y006753D01*
X019197Y006753D01*
X018987Y006543D01*
X018629Y006543D01*
X018419Y006753D01*
X017947Y006753D01*
X017613Y006419D01*
X017613Y006012D01*
X017503Y006122D01*
X017503Y006419D01*
X017169Y006753D01*
X016697Y006753D01*
X016363Y006419D01*
X016363Y006012D01*
X016253Y006122D01*
X016253Y006419D01*
X015919Y006753D01*
X015447Y006753D01*
X015358Y006664D01*
X015358Y009434D01*
X015538Y009613D01*
X015919Y009613D01*
X016253Y009947D01*
X016253Y010411D01*
X016363Y010301D01*
X016363Y009947D01*
X016697Y009613D01*
X017169Y009613D01*
X017503Y009947D01*
X017433Y009877D02*
X017433Y006489D01*
X017489Y006433D02*
X017627Y006433D01*
X017933Y006739D02*
X017933Y009627D01*
X018433Y009481D02*
X018433Y006739D01*
X018933Y006543D02*
X018933Y008981D01*
X018981Y008933D02*
X015358Y008933D01*
X015358Y008433D02*
X020368Y008433D01*
X020433Y008368D02*
X020433Y008112D01*
X020518Y008283D02*
X020683Y008283D01*
X020683Y008683D01*
X020283Y008683D01*
X020283Y008518D01*
X020518Y008283D01*
X020684Y008283D02*
X020849Y008283D01*
X021083Y008518D01*
X021083Y008683D01*
X020684Y008683D01*
X020684Y008283D01*
X020683Y008433D02*
X020684Y008433D01*
X020933Y008368D02*
X020933Y008112D01*
X021112Y007933D02*
X022863Y007933D01*
X023183Y008183D02*
X023183Y007683D01*
X023433Y007433D01*
X023433Y006713D01*
X023403Y006683D01*
X022933Y007043D02*
X022933Y007481D01*
X022981Y007433D02*
X021112Y007433D01*
X021433Y007043D02*
X021433Y008863D01*
X020933Y008683D02*
X020933Y008684D01*
X020999Y008433D02*
X022898Y008433D01*
X022933Y008469D02*
X022933Y008481D01*
X022433Y008863D02*
X022433Y007043D01*
X021933Y007043D02*
X021933Y008863D01*
X023121Y009496D02*
X024183Y008433D01*
X024933Y007683D01*
X024933Y006713D01*
X025683Y006483D02*
X025683Y007058D01*
X026183Y007183D02*
X026933Y007183D01*
X026598Y007663D02*
X026421Y007590D01*
X026335Y007503D01*
X026316Y007503D01*
X025956Y007863D01*
X026335Y007863D01*
X026421Y007776D01*
X026598Y007703D01*
X027269Y007703D01*
X027445Y007776D01*
X027580Y007911D01*
X027653Y008088D01*
X027653Y008279D01*
X027580Y008455D01*
X027445Y008590D01*
X027269Y008663D01*
X026598Y008663D01*
X026421Y008590D01*
X026335Y008503D01*
X025816Y008503D01*
X025456Y008863D01*
X028620Y008863D01*
X028747Y008863D01*
X028865Y008912D01*
X029705Y009752D01*
X029753Y009870D01*
X029753Y009997D01*
X029753Y010497D01*
X029705Y010615D01*
X029615Y010705D01*
X029293Y011026D01*
X029293Y011436D01*
X029046Y011683D01*
X029293Y011931D01*
X029293Y012436D01*
X029003Y012726D01*
X029003Y012870D01*
X029003Y012997D01*
X029047Y012953D01*
X029273Y012953D01*
X030206Y012021D01*
X030206Y011780D01*
X030206Y011652D01*
X030255Y011535D01*
X030293Y011496D01*
X030255Y011457D01*
X030206Y011340D01*
X030206Y010636D01*
X030193Y010631D01*
X030126Y010563D01*
X030089Y010475D01*
X030089Y009592D01*
X030126Y009504D01*
X030166Y009464D01*
X030166Y009116D01*
X030147Y009071D01*
X030147Y008921D01*
X030205Y008782D01*
X030312Y008675D01*
X030451Y008617D01*
X030601Y008617D01*
X030740Y008675D01*
X030847Y008782D01*
X030904Y008921D01*
X030904Y009071D01*
X030886Y009116D01*
X030886Y009400D01*
X031361Y009400D01*
X031449Y009437D01*
X031493Y009480D01*
X031689Y009480D01*
X031689Y010015D01*
X031725Y010015D01*
X031725Y009480D01*
X031903Y009480D01*
X031609Y009187D01*
X031608Y009187D01*
X031469Y009129D01*
X031363Y009023D01*
X031305Y008884D01*
X031305Y008733D01*
X031363Y008594D01*
X031453Y008503D01*
X030532Y008503D01*
X030445Y008590D01*
X030269Y008663D01*
X029598Y008663D01*
X029421Y008590D01*
X029286Y008455D01*
X029213Y008279D01*
X029213Y008088D01*
X029286Y007911D01*
X029421Y007776D01*
X029598Y007703D01*
X030269Y007703D01*
X030445Y007776D01*
X030532Y007863D01*
X032113Y007863D01*
X032473Y007503D01*
X030532Y007503D01*
X030445Y007590D01*
X030269Y007663D01*
X029598Y007663D01*
X029421Y007590D01*
X029286Y007455D01*
X029213Y007279D01*
X029213Y007088D01*
X029286Y006911D01*
X029421Y006776D01*
X029598Y006703D01*
X030269Y006703D01*
X030445Y006776D01*
X030532Y006863D01*
X031348Y006863D01*
X031344Y006853D01*
X030734Y006243D01*
X026238Y006243D01*
X026238Y006761D01*
X026202Y006849D01*
X026188Y006863D01*
X026335Y006863D01*
X026421Y006776D01*
X026598Y006703D01*
X027269Y006703D01*
X027445Y006776D01*
X027580Y006911D01*
X027653Y007088D01*
X027653Y007279D01*
X027580Y007455D01*
X027445Y007590D01*
X027269Y007663D01*
X026598Y007663D01*
X026433Y007595D02*
X026433Y007772D01*
X026933Y007703D02*
X026933Y007663D01*
X027433Y007595D02*
X027433Y007771D01*
X027589Y007933D02*
X029277Y007933D01*
X029433Y007772D02*
X029433Y007595D01*
X029277Y007433D02*
X027589Y007433D01*
X027589Y006933D02*
X029277Y006933D01*
X029433Y006772D02*
X029433Y006243D01*
X028933Y006243D02*
X028933Y008981D01*
X028886Y008933D02*
X030147Y008933D01*
X029933Y008663D02*
X029933Y012293D01*
X029793Y012433D02*
X029293Y012433D01*
X029293Y011933D02*
X030206Y011933D01*
X030526Y011716D02*
X030746Y011496D01*
X030526Y011276D01*
X030526Y010034D01*
X030089Y009933D02*
X029753Y009933D01*
X029433Y009933D02*
X028683Y009183D01*
X025183Y009183D01*
X024683Y009683D01*
X024683Y013183D01*
X025683Y014183D01*
X025683Y015183D02*
X027933Y017433D01*
X027933Y023683D01*
X028558Y024308D01*
X030058Y024308D01*
X030439Y023927D01*
X030439Y023217D01*
X030439Y023939D01*
X031433Y024933D01*
X034933Y024933D01*
X035433Y024433D01*
X036183Y023683D01*
X036183Y022433D01*
X037996Y022433D01*
X038433Y021996D01*
X038802Y022433D02*
X039153Y022433D01*
X038933Y022302D02*
X038933Y023322D01*
X038888Y023213D02*
X039015Y023518D01*
X039015Y023849D01*
X038888Y024154D01*
X038654Y024388D01*
X038349Y024515D01*
X038018Y024515D01*
X037713Y024388D01*
X037479Y024154D01*
X037352Y023849D01*
X037352Y023518D01*
X037479Y023213D01*
X037713Y022979D01*
X038018Y022852D01*
X038349Y022852D01*
X038654Y022979D01*
X038888Y023213D01*
X038979Y023433D02*
X039153Y023433D01*
X039153Y022933D02*
X038545Y022933D01*
X038433Y022887D02*
X038433Y022566D01*
X037933Y022753D02*
X037933Y022887D01*
X037822Y022933D02*
X036503Y022933D01*
X036933Y022753D02*
X036933Y025653D01*
X036433Y025653D02*
X036433Y024434D01*
X036433Y024833D01*
X036268Y024833D01*
X036033Y024599D01*
X036033Y024434D01*
X036433Y024434D01*
X036434Y024434D01*
X036434Y024833D01*
X036599Y024833D01*
X036833Y024599D01*
X036833Y024434D01*
X036434Y024434D01*
X036434Y024433D01*
X036833Y024433D01*
X036833Y024268D01*
X036599Y024033D01*
X036434Y024033D01*
X036434Y024433D01*
X037822Y024433D01*
X037933Y024479D02*
X037933Y025652D01*
X038433Y025587D02*
X038433Y024479D01*
X038545Y024433D02*
X039153Y024433D01*
X039083Y024933D02*
X035386Y024933D01*
X035433Y024913D02*
X035433Y025653D01*
X034933Y025653D02*
X034933Y025253D01*
X034433Y025253D02*
X034433Y025653D01*
X033933Y025653D02*
X033933Y025253D01*
X033433Y025253D02*
X033433Y025653D01*
X032933Y025653D02*
X032933Y025253D01*
X032433Y025253D02*
X032433Y025653D01*
X031933Y025653D02*
X031933Y025253D01*
X031433Y025253D02*
X031433Y025653D01*
X030933Y025653D02*
X030933Y024886D01*
X030981Y024933D02*
X027765Y024933D01*
X027765Y024951D02*
X027765Y024614D01*
X027387Y024614D01*
X027271Y024614D01*
X027271Y025090D01*
X027032Y025090D01*
X026992Y025079D01*
X026955Y025058D01*
X026925Y025028D01*
X026904Y024992D01*
X026893Y024951D01*
X026893Y024614D01*
X027271Y024614D01*
X027271Y024498D01*
X026893Y024498D01*
X026893Y024161D01*
X026904Y024120D01*
X026925Y024084D01*
X026955Y024054D01*
X026992Y024033D01*
X027032Y024022D01*
X027271Y024022D01*
X027271Y024498D01*
X027387Y024498D01*
X027387Y024614D01*
X027387Y025090D01*
X027626Y025090D01*
X027666Y025079D01*
X027703Y025058D01*
X027733Y025028D01*
X027754Y024992D01*
X027765Y024951D01*
X027433Y025090D02*
X027433Y025653D01*
X026933Y025653D02*
X026933Y025036D01*
X026893Y024933D02*
X008183Y024933D01*
X008183Y024433D02*
X019981Y024433D01*
X019933Y024386D02*
X019933Y025653D01*
X019433Y025653D02*
X019433Y023886D01*
X019481Y023933D02*
X008183Y023933D01*
X008683Y023933D02*
X002479Y023933D01*
X002433Y024045D02*
X002433Y025653D01*
X002933Y025653D02*
X002933Y020692D01*
X002933Y020439D02*
X002933Y020433D01*
X003365Y020433D02*
X001501Y020433D01*
X001501Y020439D02*
X002023Y020439D01*
X002012Y020510D01*
X001983Y020599D01*
X001941Y020682D01*
X001886Y020757D01*
X001820Y020823D01*
X001744Y020878D01*
X001661Y020920D01*
X001572Y020949D01*
X001501Y020961D01*
X001501Y020439D01*
X001433Y020439D02*
X001433Y022887D01*
X001322Y022933D02*
X000713Y022933D01*
X000713Y022947D02*
X001183Y022947D01*
X001183Y022788D02*
X000713Y022788D01*
X000713Y022629D02*
X001183Y022629D01*
X001183Y022471D02*
X000713Y022471D01*
X000713Y022433D02*
X008683Y022433D01*
X008183Y022433D02*
X017981Y022433D01*
X017933Y022386D02*
X017933Y025653D01*
X017433Y025653D02*
X017433Y021886D01*
X017481Y021933D02*
X008183Y021933D01*
X008183Y021433D02*
X016981Y021433D01*
X016933Y021386D02*
X016933Y025653D01*
X016433Y025653D02*
X016433Y021128D01*
X016808Y020808D02*
X011433Y020808D01*
X011433Y020433D02*
X010433Y019433D01*
X010433Y018433D01*
X008558Y016558D01*
X008558Y015590D01*
X008238Y015933D02*
X007333Y015933D01*
X007433Y016272D02*
X007433Y015503D01*
X007933Y015503D02*
X007933Y017723D01*
X008183Y017933D02*
X008184Y017933D01*
X008433Y018121D02*
X008433Y018121D01*
X008581Y017933D02*
X009481Y017933D01*
X009433Y017886D02*
X009433Y025653D01*
X008933Y025653D02*
X008933Y017386D01*
X008981Y017433D02*
X000713Y017433D01*
X000933Y017285D02*
X000933Y018050D01*
X001032Y017933D02*
X000713Y017933D01*
X000713Y018190D02*
X000869Y018190D01*
X000713Y018349D02*
X001183Y018349D01*
X001433Y018183D02*
X001433Y017293D01*
X001933Y017293D02*
X001933Y018050D01*
X001835Y017933D02*
X003032Y017933D01*
X002933Y018050D02*
X002933Y017083D01*
X002433Y017083D02*
X002433Y018183D01*
X003366Y017933D02*
X003501Y017933D01*
X003433Y018183D02*
X003433Y017083D01*
X003933Y017083D02*
X003933Y018050D01*
X003835Y017933D02*
X005786Y017933D01*
X005933Y018121D02*
X005933Y018121D01*
X006183Y017933D02*
X006184Y017933D01*
X006433Y017723D02*
X006433Y017238D01*
X006933Y017238D02*
X006933Y017499D01*
X007433Y017499D02*
X007433Y017094D01*
X007453Y016933D02*
X008481Y016933D01*
X008433Y016886D02*
X008433Y017723D01*
X008562Y018433D02*
X009981Y018433D01*
X009933Y018386D02*
X009933Y025653D01*
X010433Y025653D02*
X010433Y019886D01*
X010481Y019933D02*
X008183Y019933D01*
X008183Y019433D02*
X010113Y019433D01*
X010113Y018933D02*
X008183Y018933D01*
X008433Y018518D02*
X008433Y025653D01*
X008433Y020433D01*
X008183Y020433D02*
X010981Y020433D01*
X010933Y020386D02*
X010933Y025653D01*
X011433Y025653D02*
X011433Y021187D01*
X011076Y020933D02*
X008183Y020933D01*
X008683Y020933D02*
X003621Y020933D01*
X003661Y020920D02*
X003572Y020949D01*
X003501Y020961D01*
X003501Y020439D01*
X004023Y020439D01*
X004012Y020510D01*
X003983Y020599D01*
X003941Y020682D01*
X003886Y020757D01*
X003820Y020823D01*
X003744Y020878D01*
X003661Y020920D01*
X003501Y020933D02*
X003366Y020933D01*
X003246Y020933D02*
X001621Y020933D01*
X001501Y020933D02*
X001366Y020933D01*
X001246Y020933D02*
X000713Y020933D01*
X000713Y020885D02*
X001137Y020885D01*
X001183Y021044D02*
X000713Y021044D01*
X000713Y021203D02*
X001183Y021203D01*
X001183Y021361D02*
X000713Y021361D01*
X000713Y021433D02*
X008683Y021433D01*
X008683Y021933D02*
X000713Y021933D01*
X000713Y021995D02*
X001183Y021995D01*
X001183Y021837D02*
X000713Y021837D01*
X000713Y021678D02*
X001183Y021678D01*
X001183Y021520D02*
X000713Y021520D01*
X000713Y022154D02*
X001183Y022154D01*
X001183Y022312D02*
X000713Y022312D01*
X000713Y023105D02*
X001086Y023105D01*
X000958Y023264D02*
X000713Y023264D01*
X000713Y023422D02*
X000892Y023422D01*
X000887Y023433D02*
X000713Y023433D01*
X000713Y023581D02*
X000852Y023581D01*
X000852Y023739D02*
X000713Y023739D01*
X000852Y023849D02*
X000979Y024154D01*
X001183Y024359D01*
X001183Y024532D02*
X000713Y024532D01*
X000713Y024691D02*
X001183Y024691D01*
X001183Y024849D02*
X000713Y024849D01*
X000918Y025433D02*
X008683Y025433D01*
X008183Y025433D02*
X038713Y025433D01*
X038933Y025211D02*
X038933Y024045D01*
X038979Y023933D02*
X039153Y023933D01*
X037433Y024045D02*
X037433Y025653D01*
X035933Y025653D02*
X035933Y024386D01*
X035913Y024433D02*
X036433Y024433D01*
X036433Y024434D01*
X036433Y024433D02*
X036434Y024433D01*
X036433Y024433D02*
X036433Y023886D01*
X036386Y023933D02*
X037387Y023933D01*
X037387Y023433D02*
X036503Y023433D01*
X035863Y023433D02*
X035168Y023433D01*
X035168Y023315D02*
X035168Y023737D01*
X035168Y023880D01*
X035114Y024012D01*
X034809Y024317D01*
X034771Y024409D01*
X034659Y024521D01*
X034513Y024581D01*
X034354Y024581D01*
X034208Y024521D01*
X034096Y024409D01*
X034035Y024263D01*
X034035Y024104D01*
X034051Y024065D01*
X034013Y024081D01*
X033854Y024081D01*
X033708Y024021D01*
X033596Y023909D01*
X033535Y023763D01*
X033535Y023604D01*
X033596Y023458D01*
X033708Y023346D01*
X033800Y023308D01*
X033933Y023175D01*
X033911Y023123D01*
X033911Y022370D01*
X033927Y022331D01*
X033619Y022331D01*
X033531Y022294D01*
X033463Y022227D01*
X033427Y022139D01*
X033427Y021728D01*
X033463Y021640D01*
X033531Y021572D01*
X033619Y021536D01*
X034016Y021536D01*
X034002Y021511D01*
X033991Y021470D01*
X033991Y021121D01*
X034308Y021121D01*
X034308Y021120D01*
X034309Y021120D01*
X034309Y020632D01*
X034471Y020632D01*
X034515Y020588D01*
X034603Y020552D01*
X034954Y020552D01*
X034563Y020161D01*
X034251Y020161D01*
X034165Y020126D01*
X033916Y020375D01*
X033806Y020421D01*
X033686Y020421D01*
X033625Y020421D01*
X033445Y020601D01*
X033047Y020601D01*
X032766Y020320D01*
X032766Y020303D01*
X032562Y020508D01*
X032562Y020509D01*
X032504Y020648D01*
X032398Y020754D01*
X032259Y020812D01*
X032108Y020812D01*
X031969Y020754D01*
X031863Y020648D01*
X031805Y020509D01*
X031805Y020358D01*
X031863Y020219D01*
X031969Y020113D01*
X032108Y020055D01*
X032109Y020055D01*
X033055Y019109D01*
X033055Y019108D01*
X033113Y018969D01*
X033211Y018871D01*
X033152Y018812D01*
X033085Y018879D01*
X032946Y018937D01*
X032796Y018937D01*
X032657Y018879D01*
X032656Y018878D01*
X032514Y018878D01*
X032490Y018902D01*
X032490Y019367D01*
X032454Y019456D01*
X032386Y019523D01*
X032298Y019560D01*
X031494Y019560D01*
X031406Y019523D01*
X031338Y019456D01*
X031302Y019367D01*
X031302Y018913D01*
X031036Y019179D01*
X031036Y019991D01*
X030992Y020098D01*
X030910Y020179D01*
X030473Y020616D01*
X030473Y020660D01*
X030521Y020708D01*
X030581Y020854D01*
X030581Y020879D01*
X031144Y021441D01*
X031192Y021559D01*
X031192Y021686D01*
X031192Y022607D01*
X031214Y022629D01*
X031250Y022717D01*
X031250Y022762D01*
X031305Y022762D01*
X031305Y023217D01*
X031306Y023217D01*
X031306Y022762D01*
X031361Y022762D01*
X031361Y022717D01*
X031397Y022629D01*
X031419Y022607D01*
X031419Y021371D01*
X031129Y021081D01*
X031104Y021081D01*
X030958Y021021D01*
X030846Y020909D01*
X030785Y020763D01*
X030785Y020604D01*
X030846Y020458D01*
X030958Y020346D01*
X031104Y020285D01*
X031263Y020285D01*
X031409Y020346D01*
X031521Y020458D01*
X031581Y020604D01*
X031581Y020629D01*
X032010Y021057D01*
X032058Y021175D01*
X032058Y021302D01*
X032058Y022525D01*
X032357Y022525D01*
X032445Y022561D01*
X032513Y022629D01*
X032549Y022717D01*
X032549Y023403D01*
X032513Y023491D01*
X032445Y023559D01*
X032357Y023595D01*
X031986Y023595D01*
X031955Y023582D01*
X031924Y023595D01*
X031580Y023595D01*
X031571Y023611D01*
X031541Y023641D01*
X031505Y023662D01*
X031464Y023673D01*
X031306Y023673D01*
X031306Y023218D01*
X031305Y023218D01*
X031305Y023673D01*
X031147Y023673D01*
X031106Y023662D01*
X031069Y023641D01*
X031040Y023611D01*
X031031Y023595D01*
X030803Y023595D01*
X030781Y023649D01*
X030759Y023670D01*
X030759Y023807D01*
X031566Y024613D01*
X032095Y024613D01*
X032090Y024597D01*
X032090Y024259D01*
X032468Y024259D01*
X032468Y024144D01*
X032090Y024144D01*
X032090Y023806D01*
X032101Y023766D01*
X032122Y023729D01*
X032152Y023700D01*
X032189Y023678D01*
X032229Y023668D01*
X032468Y023668D01*
X032468Y024144D01*
X032584Y024144D01*
X032584Y024259D01*
X032961Y024259D01*
X032961Y024597D01*
X032957Y024613D01*
X034801Y024613D01*
X034953Y024461D01*
X034953Y024235D01*
X035235Y023953D01*
X035461Y023953D01*
X035863Y023551D01*
X035863Y022566D01*
X035706Y022408D01*
X035706Y023123D01*
X035669Y023211D01*
X035602Y023279D01*
X035514Y023315D01*
X035168Y023315D01*
X035433Y023315D02*
X035433Y023953D01*
X035481Y023933D02*
X035146Y023933D01*
X034933Y024192D02*
X034933Y024481D01*
X034953Y024433D02*
X034746Y024433D01*
X034433Y024581D02*
X034433Y024613D01*
X034120Y024433D02*
X032961Y024433D01*
X032933Y024259D02*
X032933Y024144D01*
X032961Y024144D02*
X032584Y024144D01*
X032584Y023668D01*
X032823Y023668D01*
X032863Y023678D01*
X032900Y023700D01*
X032929Y023729D01*
X032951Y023766D01*
X032961Y023806D01*
X032961Y024144D01*
X032961Y023933D02*
X033620Y023933D01*
X033933Y024081D02*
X033933Y024613D01*
X033433Y024613D02*
X033433Y022155D01*
X033427Y021933D02*
X032058Y021933D01*
X032058Y021433D02*
X032993Y021433D01*
X032933Y021374D02*
X032933Y023736D01*
X032584Y023933D02*
X032468Y023933D01*
X032433Y024144D02*
X032433Y024259D01*
X032090Y024433D02*
X031386Y024433D01*
X031433Y024481D02*
X031433Y023673D01*
X031306Y023433D02*
X031305Y023433D01*
X030933Y023595D02*
X030933Y023981D01*
X030886Y023933D02*
X032090Y023933D01*
X032433Y023668D02*
X032433Y023563D01*
X032537Y023433D02*
X033620Y023433D01*
X033911Y022933D02*
X032549Y022933D01*
X032433Y022556D02*
X032433Y020719D01*
X032636Y020433D02*
X032880Y020433D01*
X032933Y020487D02*
X032933Y020868D01*
X032868Y020933D02*
X031886Y020933D01*
X031933Y020981D02*
X031933Y020719D01*
X031805Y020433D02*
X031496Y020433D01*
X031433Y020370D02*
X031433Y019535D01*
X031329Y019433D02*
X031036Y019433D01*
X031036Y019933D02*
X032231Y019933D01*
X032433Y019731D02*
X032433Y019476D01*
X032463Y019433D02*
X032731Y019433D01*
X032933Y019231D02*
X032933Y018937D01*
X032954Y018933D02*
X033148Y018933D01*
X032787Y018933D02*
X032490Y018933D01*
X032382Y018558D02*
X031896Y019044D01*
X031302Y018933D02*
X031281Y018933D01*
X031933Y019560D02*
X031933Y020148D01*
X032183Y020433D02*
X033433Y019183D01*
X033652Y018492D02*
X033716Y018428D01*
X033823Y018384D01*
X033839Y018384D01*
X033845Y018360D01*
X033866Y018324D01*
X033896Y018294D01*
X033933Y018273D01*
X033973Y018262D01*
X034132Y018262D01*
X034132Y018379D01*
X034132Y018379D01*
X034132Y018262D01*
X034191Y018262D01*
X034191Y018161D01*
X033321Y018161D01*
X033652Y018492D01*
X033593Y018433D02*
X033711Y018433D01*
X033933Y018273D02*
X033933Y018161D01*
X033433Y018161D02*
X033433Y018273D01*
X032871Y018558D02*
X032382Y018558D01*
X034371Y017246D02*
X034683Y016933D01*
X034683Y013621D01*
X036121Y012183D01*
X037183Y012183D01*
X037871Y011496D01*
X037871Y009871D01*
X037183Y009183D01*
X037183Y006183D01*
X037739Y005933D02*
X039153Y005933D01*
X038888Y005554D02*
X038654Y005788D01*
X038349Y005915D01*
X038018Y005915D01*
X037713Y005788D01*
X037479Y005554D01*
X037352Y005249D01*
X037352Y004918D01*
X037479Y004613D01*
X037713Y004379D01*
X038018Y004252D01*
X038349Y004252D01*
X038654Y004379D01*
X038888Y004613D01*
X039015Y004918D01*
X039015Y005249D01*
X038888Y005554D01*
X038933Y005445D02*
X038933Y012127D01*
X038739Y011933D02*
X039153Y011933D01*
X039153Y012433D02*
X039003Y012433D01*
X038933Y012739D02*
X038933Y016127D01*
X038739Y015933D02*
X039153Y015933D01*
X039153Y015433D02*
X037942Y015433D01*
X037933Y015424D02*
X037933Y013442D01*
X037942Y013433D02*
X039153Y013433D01*
X039153Y012933D02*
X038739Y012933D01*
X038433Y013003D02*
X038433Y015863D01*
X037863Y016433D02*
X036278Y016433D01*
X036433Y016627D02*
X036433Y014168D01*
X035933Y014168D02*
X035933Y015699D01*
X036278Y015933D02*
X037424Y015933D01*
X037433Y015942D02*
X037433Y016924D01*
X037424Y016933D02*
X037239Y016933D01*
X036933Y016627D02*
X036933Y015739D01*
X036627Y015433D02*
X035503Y015433D01*
X035503Y014933D02*
X036627Y014933D01*
X036933Y014627D02*
X036933Y014168D01*
X037433Y013942D02*
X037433Y014627D01*
X037739Y014933D02*
X039153Y014933D01*
X039153Y014433D02*
X035503Y014433D01*
X035183Y013808D02*
X035183Y017183D01*
X037433Y019433D01*
X037433Y021558D01*
X036933Y022058D01*
X036576Y021933D02*
X036190Y021933D01*
X036190Y021988D02*
X036190Y021728D01*
X036154Y021640D01*
X036086Y021572D01*
X035998Y021536D01*
X035690Y021536D01*
X035706Y021497D01*
X035706Y020744D01*
X035669Y020656D01*
X035602Y020588D01*
X035598Y020587D01*
X035598Y020438D01*
X035554Y020332D01*
X035473Y020250D01*
X035011Y019788D01*
X035071Y019763D01*
X035139Y019696D01*
X035175Y019608D01*
X035175Y019480D01*
X035234Y019480D01*
X035234Y019265D01*
X035235Y019265D01*
X035235Y019480D01*
X035393Y019480D01*
X035434Y019469D01*
X035471Y019448D01*
X035500Y019418D01*
X035521Y019381D01*
X035532Y019341D01*
X035532Y019265D01*
X035446Y019265D01*
X035447Y019264D01*
X035532Y019264D01*
X035532Y019188D01*
X035526Y019166D01*
X035532Y019144D01*
X035532Y019105D01*
X035576Y019062D01*
X035612Y018974D01*
X035612Y018768D01*
X035576Y018680D01*
X035570Y018674D01*
X035576Y018668D01*
X035612Y018580D01*
X035612Y018374D01*
X035576Y018286D01*
X035508Y018219D01*
X035420Y018182D01*
X035175Y018182D01*
X035175Y018134D01*
X035170Y018122D01*
X035170Y017623D01*
X037113Y019566D01*
X037113Y020807D01*
X036919Y020613D01*
X036447Y020613D01*
X036113Y020947D01*
X036113Y021419D01*
X036447Y021753D01*
X036703Y021753D01*
X036613Y021844D01*
X036555Y021983D01*
X036555Y022113D01*
X036316Y022113D01*
X036190Y021988D01*
X036433Y022113D02*
X036433Y021739D01*
X036127Y021433D02*
X035706Y021433D01*
X035933Y021536D02*
X035933Y018386D01*
X035981Y018433D02*
X035612Y018433D01*
X035433Y018188D02*
X035433Y017886D01*
X035481Y017933D02*
X035170Y017933D01*
X035886Y017433D02*
X036127Y017433D01*
X035933Y017481D02*
X035933Y016967D01*
X035516Y016933D02*
X035503Y016933D01*
X034371Y017246D02*
X029683Y017246D01*
X029433Y016933D02*
X026933Y014433D01*
X026933Y011433D01*
X025683Y010183D01*
X024183Y009683D02*
X024183Y020683D01*
X022683Y022183D01*
X022183Y022683D02*
X023183Y022683D01*
X024558Y021308D01*
X024558Y016308D01*
X025683Y015183D01*
X026433Y015371D02*
X028496Y017433D01*
X028496Y023621D01*
X028808Y023933D01*
X029683Y023933D01*
X030006Y023611D01*
X030006Y023060D01*
X029573Y022902D02*
X029573Y020044D01*
X030183Y019433D01*
X030183Y018433D01*
X029246Y017496D01*
X029246Y017121D01*
X029433Y016933D01*
X034058Y016933D01*
X034308Y016683D01*
X034308Y013308D01*
X034683Y012933D01*
X034683Y011933D01*
X034305Y011933D02*
X030846Y011933D01*
X030846Y011848D02*
X030846Y012217D01*
X030797Y012335D01*
X030707Y012425D01*
X029726Y013406D01*
X029726Y013632D01*
X029445Y013913D01*
X029047Y013913D01*
X028766Y013632D01*
X028766Y013303D01*
X028753Y013316D01*
X028753Y013718D01*
X028754Y013719D01*
X028812Y013858D01*
X028812Y014009D01*
X028754Y014148D01*
X028648Y014254D01*
X028509Y014312D01*
X028358Y014312D01*
X028219Y014254D01*
X028113Y014148D01*
X028055Y014009D01*
X028055Y013858D01*
X028113Y013719D01*
X028113Y013718D01*
X028113Y013120D01*
X028162Y013002D01*
X028252Y012912D01*
X028363Y012801D01*
X028363Y012726D01*
X028127Y012489D01*
X027903Y012713D01*
X027703Y012713D01*
X027703Y012204D01*
X027663Y012204D01*
X027663Y012713D01*
X027464Y012713D01*
X027253Y012503D01*
X027253Y014301D01*
X029566Y016613D01*
X030089Y016613D01*
X030089Y015892D01*
X030126Y015803D01*
X030193Y015736D01*
X030281Y015699D01*
X030770Y015699D01*
X030859Y015736D01*
X030926Y015803D01*
X030963Y015892D01*
X030963Y016613D01*
X033926Y016613D01*
X033988Y016551D01*
X033988Y013245D01*
X034037Y013127D01*
X034127Y013037D01*
X034363Y012801D01*
X034363Y012149D01*
X034363Y012148D01*
X034305Y012009D01*
X034305Y011858D01*
X034307Y011853D01*
X034219Y011817D01*
X034218Y011816D01*
X030878Y011816D01*
X030846Y011848D01*
X030933Y011816D02*
X030933Y015821D01*
X030963Y015933D02*
X033988Y015933D01*
X033988Y015433D02*
X028386Y015433D01*
X028433Y015481D02*
X028433Y014312D01*
X028433Y013933D02*
X028433Y013183D01*
X028683Y012933D01*
X028683Y012183D01*
X027933Y012683D02*
X027933Y014981D01*
X027886Y014933D02*
X033988Y014933D01*
X033988Y014433D02*
X029246Y014433D01*
X029246Y014033D01*
X029412Y014033D01*
X029646Y014268D01*
X029646Y014433D01*
X029246Y014433D01*
X029246Y014433D01*
X029246Y014434D01*
X029246Y014434D01*
X029246Y014833D01*
X029412Y014833D01*
X029646Y014599D01*
X029646Y014434D01*
X029246Y014434D01*
X029246Y014833D01*
X029080Y014833D01*
X028846Y014599D01*
X028846Y014434D01*
X029245Y014434D01*
X029245Y014433D01*
X028846Y014433D01*
X028846Y014268D01*
X029080Y014033D01*
X029246Y014033D01*
X029246Y014433D01*
X029245Y014433D02*
X027386Y014433D01*
X027433Y014481D02*
X027433Y012683D01*
X027253Y012933D02*
X028231Y012933D01*
X028113Y013433D02*
X027253Y013433D01*
X027253Y013933D02*
X028055Y013933D01*
X028812Y013933D02*
X033988Y013933D01*
X033988Y013433D02*
X029726Y013433D01*
X029933Y013198D02*
X029933Y016613D01*
X030089Y016433D02*
X029386Y016433D01*
X029433Y016481D02*
X029433Y014811D01*
X029433Y014434D02*
X029433Y014433D01*
X028933Y014433D02*
X028933Y014434D01*
X028933Y014686D02*
X028933Y015981D01*
X028886Y015933D02*
X030089Y015933D01*
X030433Y015699D02*
X030433Y012698D01*
X030198Y012933D02*
X034231Y012933D01*
X034363Y012433D02*
X030698Y012433D01*
X030526Y012153D02*
X030526Y011716D01*
X030746Y011496D02*
X034433Y011496D01*
X034683Y011183D02*
X035183Y011683D01*
X035183Y012558D01*
X035823Y012933D02*
X037424Y012933D01*
X037433Y012924D02*
X037433Y012386D01*
X037386Y012433D02*
X037863Y012433D01*
X037933Y012127D02*
X037933Y011886D01*
X037886Y011933D02*
X038127Y011933D01*
X038433Y011863D02*
X038433Y005879D01*
X037933Y005879D02*
X037933Y009481D01*
X037886Y009433D02*
X039153Y009433D01*
X039153Y008933D02*
X037503Y008933D01*
X037503Y008433D02*
X039153Y008433D01*
X039153Y007933D02*
X037503Y007933D01*
X037503Y007433D02*
X039153Y007433D01*
X039153Y006933D02*
X037503Y006933D01*
X037739Y006433D02*
X039153Y006433D01*
X039153Y005433D02*
X038938Y005433D01*
X039015Y004933D02*
X039153Y004933D01*
X038933Y004722D02*
X038933Y003798D01*
X039153Y003933D02*
X037792Y003933D01*
X037933Y003798D02*
X037933Y004287D01*
X037658Y004433D02*
X037292Y004433D01*
X037433Y004292D02*
X037433Y004722D01*
X037352Y004933D02*
X036136Y004933D01*
X036433Y004793D02*
X036433Y005231D01*
X036636Y005433D02*
X037429Y005433D01*
X037433Y005445D02*
X037433Y005627D01*
X036933Y005627D02*
X036933Y004761D01*
X036558Y005808D02*
X035808Y005058D01*
X034746Y005058D01*
X032621Y007183D01*
X029933Y007183D01*
X029933Y006703D02*
X029933Y006243D01*
X030433Y006243D02*
X030433Y006771D01*
X030933Y006863D02*
X030933Y006442D01*
X030924Y006433D02*
X026238Y006433D01*
X026433Y006243D02*
X026433Y006772D01*
X026933Y006703D02*
X026933Y006243D01*
X027433Y006243D02*
X027433Y006771D01*
X027933Y006243D02*
X027933Y008863D01*
X028433Y008863D02*
X028433Y006243D01*
X028433Y005523D02*
X028433Y000713D01*
X027933Y000713D02*
X027933Y005523D01*
X027433Y005523D02*
X027433Y000713D01*
X026933Y000713D02*
X026933Y005523D01*
X026433Y005523D02*
X026433Y002648D01*
X026034Y002433D02*
X024333Y002433D01*
X023933Y002183D02*
X023933Y003433D01*
X023933Y004653D02*
X023933Y005246D01*
X023683Y005496D01*
X022996Y005496D01*
X022683Y005183D01*
X024433Y005433D02*
X024433Y004653D01*
X024433Y005433D02*
X024883Y005883D01*
X025683Y005883D01*
X026094Y005433D02*
X032377Y005433D01*
X032433Y005489D02*
X032433Y006174D01*
X031933Y006323D02*
X031933Y005293D01*
X031189Y005679D02*
X031189Y005679D01*
X030933Y005523D02*
X030933Y004692D01*
X031692Y004433D02*
X032377Y004433D01*
X032433Y004377D02*
X032433Y003798D01*
X031933Y003798D02*
X031933Y004573D01*
X030433Y003174D02*
X030433Y000713D01*
X029228Y001433D02*
X039144Y001433D01*
X038433Y002068D02*
X038433Y000727D01*
X037933Y000719D02*
X037933Y002068D01*
X037433Y002224D02*
X037433Y000713D01*
X035933Y000713D02*
X035933Y001993D01*
X036123Y002433D02*
X037418Y002433D01*
X037418Y002933D02*
X035264Y002933D01*
X035103Y002933D02*
X032948Y002933D01*
X034433Y002853D02*
X034433Y003013D01*
X034933Y003013D02*
X034933Y002853D01*
X035433Y002853D02*
X035433Y003013D01*
X035263Y003433D02*
X035103Y003433D01*
X035933Y003013D02*
X035933Y002853D01*
X036123Y003433D02*
X037274Y003433D01*
X038433Y003798D02*
X038433Y004287D01*
X038709Y004433D02*
X039153Y004433D01*
X039148Y003433D02*
X039153Y003433D01*
X039148Y002933D02*
X039153Y002933D01*
X039148Y002433D02*
X039153Y002433D01*
X035433Y001993D02*
X035433Y000713D01*
X034933Y000713D02*
X034933Y001993D01*
X035103Y002433D02*
X035263Y002433D01*
X031218Y002933D02*
X030192Y002933D01*
X028534Y002433D02*
X026833Y002433D01*
X028933Y001433D02*
X028934Y001433D01*
X025933Y000713D02*
X025933Y005413D01*
X026183Y007183D02*
X023683Y009683D01*
X023683Y020183D01*
X022683Y021183D01*
X021683Y022183D02*
X021683Y018183D01*
X019996Y018183D01*
X019308Y017496D01*
X017996Y018808D01*
X015183Y018808D01*
X014826Y018933D02*
X012386Y018933D01*
X012433Y018981D02*
X012433Y012806D01*
X012460Y012833D02*
X012333Y012706D01*
X012321Y012677D01*
X012309Y012706D01*
X012247Y012768D01*
X012247Y018795D01*
X012816Y019363D01*
X017497Y019363D01*
X017615Y019412D01*
X017705Y019502D01*
X020718Y022516D01*
X020738Y022469D01*
X020738Y022468D01*
X020738Y018899D01*
X020738Y018898D01*
X020680Y018759D01*
X020680Y018608D01*
X020723Y018503D01*
X020060Y018503D01*
X019932Y018503D01*
X019815Y018455D01*
X019336Y017976D01*
X019281Y017976D01*
X018177Y019080D01*
X018060Y019128D01*
X017932Y019128D01*
X015399Y019128D01*
X015398Y019129D01*
X015259Y019187D01*
X015108Y019187D01*
X014969Y019129D01*
X014863Y019023D01*
X014805Y018884D01*
X014805Y018733D01*
X014863Y018594D01*
X014870Y018587D01*
X014810Y018562D01*
X014742Y018494D01*
X014706Y018406D01*
X014706Y017836D01*
X014742Y017747D01*
X014810Y017680D01*
X014823Y017674D01*
X014823Y017362D01*
X014878Y017229D01*
X014979Y017128D01*
X015229Y016878D01*
X015362Y016823D01*
X015505Y016823D01*
X015615Y016823D01*
X015735Y016703D01*
X016132Y016703D01*
X016413Y016985D01*
X016413Y017382D01*
X016132Y017663D01*
X015735Y017663D01*
X015615Y017543D01*
X015582Y017543D01*
X015543Y017582D01*
X015543Y017674D01*
X015557Y017680D01*
X015624Y017747D01*
X015661Y017836D01*
X015661Y018406D01*
X015627Y018488D01*
X015851Y018488D01*
X015848Y018486D01*
X015818Y018457D01*
X015797Y018420D01*
X015786Y018379D01*
X015786Y018121D01*
X016183Y018121D01*
X016183Y018121D01*
X015786Y018121D01*
X015786Y017862D01*
X015797Y017822D01*
X015818Y017785D01*
X015848Y017755D01*
X015884Y017734D01*
X015925Y017723D01*
X016183Y017723D01*
X016183Y018120D01*
X016184Y018120D01*
X016184Y017723D01*
X016442Y017723D01*
X016483Y017734D01*
X016519Y017755D01*
X016549Y017785D01*
X016570Y017822D01*
X016581Y017862D01*
X016581Y018121D01*
X016581Y018379D01*
X016570Y018420D01*
X016549Y018457D01*
X016519Y018486D01*
X016515Y018488D01*
X016740Y018488D01*
X016706Y018406D01*
X016706Y017836D01*
X016742Y017747D01*
X016810Y017680D01*
X016863Y017658D01*
X016863Y016316D01*
X016051Y015503D01*
X014669Y015503D01*
X014419Y015753D01*
X013947Y015753D01*
X013613Y015419D01*
X013613Y014947D01*
X013863Y014697D01*
X013863Y014169D01*
X013613Y013919D01*
X013613Y013447D01*
X013947Y013113D01*
X014419Y013113D01*
X014753Y013447D01*
X014753Y013911D01*
X015752Y012912D01*
X015778Y012902D01*
X015775Y012902D01*
X015610Y012833D01*
X015483Y012706D01*
X015471Y012677D01*
X015459Y012706D01*
X015332Y012833D01*
X015167Y012902D01*
X014988Y012902D01*
X014822Y012833D01*
X014696Y012706D01*
X014683Y012677D01*
X014671Y012706D01*
X014545Y012833D01*
X014379Y012902D01*
X014200Y012902D01*
X014035Y012833D01*
X013908Y012706D01*
X013896Y012677D01*
X013884Y012706D01*
X013757Y012833D01*
X013592Y012902D01*
X013413Y012902D01*
X013247Y012833D01*
X013121Y012706D01*
X013109Y012677D01*
X013096Y012706D01*
X012970Y012833D01*
X012804Y012902D01*
X012625Y012902D01*
X012460Y012833D01*
X012247Y012933D02*
X015731Y012933D01*
X015933Y013183D02*
X014683Y014433D01*
X014933Y014719D02*
X014933Y014863D01*
X014898Y014754D02*
X014759Y014812D01*
X014618Y014812D01*
X014669Y014863D01*
X016247Y014863D01*
X016365Y014912D01*
X016455Y015002D01*
X017455Y016002D01*
X017503Y016120D01*
X017503Y016247D01*
X017503Y017658D01*
X017557Y017680D01*
X017624Y017747D01*
X017661Y017836D01*
X017661Y018406D01*
X017627Y018488D01*
X017863Y018488D01*
X018828Y017523D01*
X018828Y017468D01*
X017955Y016595D01*
X017907Y016478D01*
X017907Y016351D01*
X017907Y015047D01*
X017771Y014911D01*
X017771Y015058D01*
X017371Y015058D01*
X017371Y014658D01*
X017518Y014658D01*
X017398Y014538D01*
X017172Y014538D01*
X016891Y014257D01*
X016891Y013860D01*
X017172Y013578D01*
X017570Y013578D01*
X017851Y013860D01*
X017851Y014086D01*
X018408Y014643D01*
X018498Y014733D01*
X018547Y014851D01*
X018547Y016282D01*
X019281Y017016D01*
X019507Y017016D01*
X019788Y017297D01*
X019788Y017523D01*
X019908Y017643D01*
X019908Y017496D01*
X020308Y017496D01*
X020308Y017496D01*
X019908Y017496D01*
X019908Y017330D01*
X020143Y017096D01*
X020308Y017096D01*
X020308Y017495D01*
X020309Y017495D01*
X020309Y017096D01*
X020474Y017096D01*
X020708Y017330D01*
X020708Y017496D01*
X020708Y017662D01*
X020506Y017863D01*
X021551Y017863D01*
X022014Y017400D01*
X021963Y017279D01*
X021963Y017088D01*
X022036Y016911D01*
X022171Y016776D01*
X022348Y016703D01*
X023019Y016703D01*
X023195Y016776D01*
X023330Y016911D01*
X023363Y016991D01*
X023363Y015375D01*
X023330Y015455D01*
X023195Y015590D01*
X023019Y015663D01*
X022348Y015663D01*
X022171Y015590D01*
X022085Y015503D01*
X021391Y015503D01*
X021328Y015566D01*
X021328Y015737D01*
X021249Y015928D01*
X021103Y016074D01*
X020912Y016153D01*
X020741Y016153D01*
X020440Y016455D01*
X020322Y016503D01*
X020195Y016503D01*
X019537Y016503D01*
X019377Y016663D01*
X018980Y016663D01*
X018698Y016382D01*
X018698Y015985D01*
X018980Y015703D01*
X019377Y015703D01*
X019537Y015863D01*
X020126Y015863D01*
X020288Y015701D01*
X020288Y015530D01*
X020368Y015339D01*
X020514Y015193D01*
X020705Y015113D01*
X020876Y015113D01*
X020987Y015002D01*
X021077Y014912D01*
X021195Y014863D01*
X022085Y014863D01*
X022171Y014776D01*
X022348Y014703D01*
X023019Y014703D01*
X023195Y014776D01*
X023330Y014911D01*
X023363Y014991D01*
X023363Y014375D01*
X023330Y014455D01*
X023195Y014590D01*
X023019Y014663D01*
X022348Y014663D01*
X022171Y014590D01*
X022085Y014503D01*
X021195Y014503D01*
X021077Y014455D01*
X020987Y014365D01*
X020876Y014253D01*
X020705Y014253D01*
X020514Y014174D01*
X020368Y014028D01*
X020288Y013837D01*
X020288Y013666D01*
X020126Y013503D01*
X019537Y013503D01*
X019377Y013663D01*
X018980Y013663D01*
X018698Y013382D01*
X018698Y013246D01*
X018580Y013365D01*
X018490Y013455D01*
X018372Y013503D01*
X016066Y013503D01*
X015062Y014508D01*
X015062Y014509D01*
X015004Y014648D01*
X014898Y014754D01*
X015136Y014433D02*
X017067Y014433D01*
X016933Y014300D02*
X016933Y015481D01*
X016886Y015433D02*
X017180Y015433D01*
X017205Y015458D02*
X016971Y015224D01*
X016971Y015059D01*
X017370Y015059D01*
X017370Y015058D01*
X016971Y015058D01*
X016971Y014893D01*
X017205Y014658D01*
X017371Y014658D01*
X017371Y015058D01*
X017371Y015058D01*
X017371Y015059D01*
X017371Y015059D01*
X017371Y015458D01*
X017536Y015458D01*
X017771Y015224D01*
X017771Y015059D01*
X017371Y015059D01*
X017371Y015458D01*
X017205Y015458D01*
X017371Y015433D02*
X017371Y015433D01*
X017433Y015458D02*
X017433Y015981D01*
X017386Y015933D02*
X017907Y015933D01*
X017183Y016183D02*
X016183Y015183D01*
X014183Y015183D01*
X014183Y013683D01*
X013627Y013433D02*
X013344Y013433D01*
X013379Y013469D02*
X013437Y013608D01*
X013437Y013759D01*
X013418Y013803D01*
X013418Y015472D01*
X014122Y016176D01*
X014419Y016176D01*
X014753Y016510D01*
X014753Y016982D01*
X014543Y017192D01*
X014543Y017674D01*
X014557Y017680D01*
X014624Y017747D01*
X014661Y017836D01*
X014661Y018406D01*
X014624Y018494D01*
X014557Y018562D01*
X014469Y018598D01*
X013898Y018598D01*
X013810Y018562D01*
X013742Y018494D01*
X013706Y018406D01*
X013706Y017836D01*
X013742Y017747D01*
X013810Y017680D01*
X013823Y017674D01*
X013823Y017192D01*
X013613Y016982D01*
X013613Y016685D01*
X012753Y015825D01*
X012698Y015693D01*
X012698Y015549D01*
X012698Y013803D01*
X012680Y013759D01*
X012680Y013608D01*
X012738Y013469D01*
X012844Y013363D01*
X012983Y013305D01*
X013134Y013305D01*
X013273Y013363D01*
X013379Y013469D01*
X013433Y013600D02*
X013433Y012902D01*
X012933Y012848D02*
X012933Y013326D01*
X012773Y013433D02*
X012247Y013433D01*
X011607Y013433D02*
X011511Y013433D01*
X011433Y013356D02*
X011433Y012679D01*
X011427Y012687D02*
X011402Y012713D01*
X011141Y012452D01*
X011140Y012452D01*
X011140Y012452D01*
X010879Y012713D01*
X010904Y012739D01*
X010965Y012779D01*
X011032Y012807D01*
X011104Y012822D01*
X011177Y012822D01*
X011248Y012807D01*
X011315Y012779D01*
X011376Y012739D01*
X011401Y012713D01*
X011140Y012452D01*
X010878Y012713D01*
X010853Y012687D01*
X010812Y012627D01*
X010784Y012559D01*
X010770Y012488D01*
X010770Y012415D01*
X010784Y012344D01*
X010812Y012276D01*
X010853Y012216D01*
X010878Y012190D01*
X011140Y012451D01*
X010879Y012190D01*
X010904Y012164D01*
X010965Y012124D01*
X011032Y012096D01*
X011104Y012082D01*
X011177Y012082D01*
X011248Y012096D01*
X011315Y012124D01*
X011376Y012164D01*
X011401Y012190D01*
X011140Y012451D01*
X011140Y012451D01*
X011141Y012451D01*
X011402Y012190D01*
X011427Y012216D01*
X011468Y012276D01*
X011490Y012331D01*
X011546Y012197D01*
X011673Y012070D01*
X011838Y012002D01*
X011856Y012002D01*
X012878Y010979D01*
X012979Y010878D01*
X013112Y010823D01*
X013284Y010823D01*
X013863Y010244D01*
X013863Y009947D01*
X014197Y009613D01*
X014669Y009613D01*
X015003Y009947D01*
X015003Y010419D01*
X014669Y010753D01*
X014372Y010753D01*
X013637Y011489D01*
X013505Y011543D01*
X013362Y011543D01*
X013332Y011543D01*
X012854Y012022D01*
X012970Y012070D01*
X013096Y012197D01*
X013109Y012226D01*
X013121Y012197D01*
X013247Y012070D01*
X013413Y012002D01*
X013592Y012002D01*
X013757Y012070D01*
X013884Y012197D01*
X013896Y012226D01*
X013908Y012197D01*
X013970Y012135D01*
X013970Y011641D01*
X013970Y011513D01*
X014018Y011396D01*
X014412Y011002D01*
X014502Y010912D01*
X014620Y010863D01*
X015801Y010863D01*
X015911Y010753D01*
X015447Y010753D01*
X015113Y010419D01*
X015113Y010038D01*
X014804Y009728D01*
X014758Y009618D01*
X014758Y009499D01*
X014758Y006551D01*
X014636Y006673D01*
X014434Y006673D01*
X014434Y006184D01*
X014433Y006184D01*
X014433Y006673D01*
X014230Y006673D01*
X014128Y006571D01*
X014128Y008372D01*
X014080Y008490D01*
X013990Y008580D01*
X013990Y008580D01*
X011955Y010615D01*
X011882Y010687D01*
X011882Y011634D01*
X011845Y011722D01*
X011778Y011790D01*
X011690Y011826D01*
X010177Y011826D01*
X010089Y011790D01*
X010021Y011722D01*
X010003Y011679D01*
X010003Y011926D01*
X011607Y013530D01*
X011607Y012768D01*
X011546Y012706D01*
X011490Y012572D01*
X011468Y012627D01*
X011427Y012687D01*
X011607Y012933D02*
X011011Y012933D01*
X010933Y012856D02*
X010933Y012758D01*
X010933Y012659D02*
X010933Y012658D01*
X010770Y012433D02*
X010511Y012433D01*
X010433Y012356D02*
X010433Y011826D01*
X010011Y011933D02*
X011924Y011933D01*
X011933Y011924D02*
X011933Y010636D01*
X011955Y010615D02*
X011955Y010615D01*
X012136Y010433D02*
X012740Y010433D01*
X012693Y010386D02*
X012693Y010184D01*
X013183Y010184D01*
X013183Y010673D01*
X012980Y010673D01*
X012693Y010386D01*
X012693Y010183D02*
X012693Y009980D01*
X012980Y009693D01*
X013183Y009693D01*
X013183Y010183D01*
X012693Y010183D01*
X012933Y010183D02*
X012933Y010184D01*
X013183Y010184D02*
X013183Y010183D01*
X013184Y010183D01*
X013184Y010184D01*
X013183Y010184D01*
X013184Y010184D02*
X013184Y010673D01*
X013386Y010673D01*
X013673Y010386D01*
X013673Y010184D01*
X013184Y010184D01*
X013184Y010183D02*
X013673Y010183D01*
X013673Y009980D01*
X013386Y009693D01*
X013184Y009693D01*
X013184Y010183D01*
X013433Y010183D02*
X013433Y010184D01*
X013626Y010433D02*
X013674Y010433D01*
X013433Y010626D02*
X013433Y010674D01*
X013184Y010433D02*
X013183Y010433D01*
X012933Y010626D02*
X012933Y010924D01*
X012924Y010933D02*
X011882Y010933D01*
X011882Y011433D02*
X012424Y011433D01*
X012433Y011424D02*
X012433Y010136D01*
X012636Y009933D02*
X012740Y009933D01*
X012933Y009740D02*
X012933Y009636D01*
X013136Y009433D02*
X014758Y009433D01*
X014433Y009613D02*
X014433Y006184D01*
X014433Y006183D02*
X014433Y005608D01*
X014259Y005433D02*
X014103Y005433D01*
X013933Y005231D02*
X013933Y004070D01*
X013990Y004433D02*
X013489Y004433D01*
X013433Y004377D02*
X013433Y004240D01*
X012933Y004187D02*
X012933Y004377D01*
X012877Y004433D02*
X009489Y004433D01*
X009433Y004377D02*
X009433Y000713D01*
X008933Y000713D02*
X008933Y004377D01*
X008877Y004433D02*
X008833Y004433D01*
X008833Y003933D02*
X010712Y003933D01*
X010933Y004192D02*
X010933Y005414D01*
X010433Y005414D02*
X010433Y000713D01*
X010933Y000713D02*
X010933Y003389D01*
X010860Y003433D02*
X008833Y003433D01*
X008833Y002933D02*
X018823Y002933D01*
X018823Y003433D02*
X018506Y003433D01*
X018433Y003389D02*
X018433Y000713D01*
X017933Y000713D02*
X017933Y003447D01*
X017947Y003433D02*
X017719Y003433D01*
X017433Y003340D02*
X017433Y000713D01*
X016933Y000713D02*
X016933Y003435D01*
X016931Y003433D02*
X017160Y003433D01*
X016433Y003394D02*
X016433Y000713D01*
X015933Y000713D02*
X015933Y003340D01*
X016144Y003433D02*
X016372Y003433D01*
X015585Y003433D02*
X015357Y003433D01*
X015433Y003510D02*
X015433Y000713D01*
X014933Y000713D02*
X014933Y003363D01*
X014797Y003433D02*
X014569Y003433D01*
X014433Y003363D02*
X014433Y000713D01*
X013933Y000713D02*
X013933Y003510D01*
X014010Y003433D02*
X013782Y003433D01*
X013433Y003340D02*
X013433Y000713D01*
X012933Y000713D02*
X012933Y003394D01*
X012994Y003433D02*
X013223Y003433D01*
X012435Y003433D02*
X012207Y003433D01*
X012433Y003435D02*
X012433Y000713D01*
X011933Y000713D02*
X011933Y003340D01*
X011648Y003433D02*
X011420Y003433D01*
X011433Y003447D02*
X011433Y000713D01*
X009933Y000713D02*
X009933Y005174D01*
X009753Y004933D02*
X012613Y004933D01*
X012877Y005433D02*
X011893Y005433D01*
X011933Y005450D02*
X011933Y004240D01*
X011433Y004133D02*
X011433Y005414D01*
X011433Y006134D02*
X011433Y010113D01*
X011551Y010113D02*
X013488Y008176D01*
X013488Y006684D01*
X013419Y006753D01*
X012947Y006753D01*
X012737Y006543D01*
X012255Y006543D01*
X012112Y006543D01*
X011979Y006489D01*
X011624Y006134D01*
X010384Y006134D01*
X010384Y008063D01*
X010399Y008070D01*
X010467Y008137D01*
X010478Y008165D01*
X010490Y008137D01*
X010557Y008070D01*
X010646Y008033D01*
X011221Y008033D01*
X011309Y008070D01*
X011377Y008137D01*
X011413Y008226D01*
X011413Y009201D01*
X011377Y009289D01*
X011309Y009357D01*
X011291Y009364D01*
X011272Y009410D01*
X011160Y009522D01*
X010660Y010022D01*
X010513Y010083D01*
X010354Y010083D01*
X009604Y010083D01*
X009457Y010022D01*
X009344Y009910D01*
X008844Y009410D01*
X008783Y009263D01*
X008783Y009104D01*
X008783Y007599D01*
X008094Y006910D01*
X008033Y006763D01*
X008033Y006604D01*
X008033Y003099D01*
X007518Y002583D01*
X002136Y002583D01*
X002065Y002655D01*
X001996Y002683D01*
X002065Y002712D01*
X002221Y002868D01*
X002306Y003073D01*
X002306Y003294D01*
X002221Y003498D01*
X002065Y003655D01*
X001860Y003740D01*
X001006Y003740D01*
X000802Y003655D01*
X000713Y003566D01*
X000713Y008429D01*
X000754Y008373D01*
X000807Y008320D01*
X000868Y008276D01*
X000934Y008242D01*
X001006Y008219D01*
X001080Y008207D01*
X001395Y008207D01*
X001395Y008645D01*
X001471Y008645D01*
X001471Y008207D01*
X001787Y008207D01*
X001861Y008219D01*
X001932Y008242D01*
X001999Y008276D01*
X002060Y008320D01*
X002113Y008373D01*
X002157Y008434D01*
X002191Y008501D01*
X002214Y008572D01*
X002226Y008645D01*
X001472Y008645D01*
X001472Y008721D01*
X002226Y008721D01*
X002214Y008795D01*
X002191Y008866D01*
X002157Y008933D01*
X002113Y008994D01*
X002060Y009047D01*
X001999Y009091D01*
X001932Y009125D01*
X001889Y009139D01*
X002065Y009212D01*
X002221Y009368D01*
X002306Y009573D01*
X002306Y009794D01*
X002248Y009933D01*
X002595Y010280D01*
X002714Y010280D01*
X002760Y010168D01*
X002895Y010033D01*
X003072Y009960D01*
X003216Y009960D01*
X004457Y008719D01*
X004604Y008658D01*
X004649Y008658D01*
X004479Y008489D01*
X004378Y008387D01*
X004323Y008255D01*
X004323Y007242D01*
X004276Y007195D01*
X004229Y007080D01*
X003620Y007080D01*
X003574Y007191D01*
X003439Y007326D01*
X003263Y007400D01*
X003072Y007400D01*
X002895Y007326D01*
X002760Y007191D01*
X002687Y007015D01*
X002687Y006344D01*
X002760Y006168D01*
X002789Y006139D01*
X002789Y005323D01*
X002719Y005253D01*
X002634Y005049D01*
X002634Y004828D01*
X002719Y004624D01*
X002875Y004468D01*
X003079Y004384D01*
X003299Y004384D01*
X003503Y004468D01*
X003659Y004624D01*
X003734Y004803D01*
X003749Y004756D01*
X003783Y004690D01*
X003827Y004629D01*
X003880Y004576D01*
X003940Y004532D01*
X004007Y004498D01*
X004078Y004475D01*
X004152Y004464D01*
X004189Y004464D01*
X004226Y004464D01*
X004300Y004475D01*
X004371Y004498D01*
X004438Y004532D01*
X004498Y004576D01*
X004551Y004629D01*
X004595Y004690D01*
X004629Y004756D01*
X004652Y004827D01*
X004664Y004901D01*
X004664Y004938D01*
X004189Y004938D01*
X004189Y004464D01*
X004189Y004938D01*
X004189Y004938D01*
X004189Y004939D01*
X004189Y004939D01*
X004189Y005414D01*
X004226Y005414D01*
X004300Y005402D01*
X004371Y005379D01*
X004438Y005345D01*
X004498Y005301D01*
X004551Y005248D01*
X004595Y005187D01*
X004629Y005121D01*
X004652Y005050D01*
X004664Y004976D01*
X004664Y004939D01*
X004189Y004939D01*
X004189Y005414D01*
X004152Y005414D01*
X004078Y005402D01*
X004007Y005379D01*
X003940Y005345D01*
X003880Y005301D01*
X003827Y005248D01*
X003783Y005187D01*
X003749Y005121D01*
X003734Y005074D01*
X003659Y005253D01*
X003589Y005323D01*
X003589Y006204D01*
X003620Y006280D01*
X004232Y006280D01*
X004276Y006171D01*
X004411Y006036D01*
X004588Y005963D01*
X004779Y005963D01*
X004955Y006036D01*
X005090Y006171D01*
X005163Y006348D01*
X005163Y007019D01*
X005090Y007195D01*
X005043Y007242D01*
X005043Y008034D01*
X005676Y008667D01*
X005676Y008447D01*
X006010Y008113D01*
X006482Y008113D01*
X006816Y008447D01*
X006816Y008919D01*
X006482Y009253D01*
X006133Y009253D01*
X006133Y009313D01*
X006149Y009320D01*
X006217Y009387D01*
X006253Y009476D01*
X006253Y010451D01*
X006217Y010539D01*
X006149Y010607D01*
X006093Y010630D01*
X006093Y010905D01*
X006093Y011032D01*
X006045Y011150D01*
X005753Y011441D01*
X005753Y011878D01*
X005771Y011834D01*
X005839Y011767D01*
X005927Y011730D01*
X007440Y011730D01*
X007528Y011767D01*
X007595Y011834D01*
X007632Y011923D01*
X007632Y012884D01*
X007595Y012972D01*
X007528Y013040D01*
X007440Y013076D01*
X006288Y013076D01*
X007160Y013935D01*
X007213Y013806D01*
X007369Y013650D01*
X007573Y013566D01*
X007729Y013566D01*
X008011Y013284D01*
X008011Y011895D01*
X007288Y011172D01*
X007233Y011040D01*
X007233Y010897D01*
X007233Y010613D01*
X007217Y010607D01*
X007150Y010539D01*
X007113Y010451D01*
X007113Y009476D01*
X007150Y009387D01*
X007217Y009320D01*
X007306Y009283D01*
X007574Y009283D01*
X007948Y008909D01*
X007948Y008082D01*
X005253Y005387D01*
X005198Y005255D01*
X005198Y005112D01*
X005198Y004237D01*
X005253Y004104D01*
X005354Y004003D01*
X006417Y002941D01*
X006549Y002886D01*
X006692Y002886D01*
X006737Y002886D01*
X006947Y002676D01*
X007419Y002676D01*
X007753Y003010D01*
X007753Y003482D01*
X007419Y003816D01*
X006947Y003816D01*
X006754Y003622D01*
X006262Y004113D01*
X006482Y004113D01*
X006692Y004323D01*
X006987Y004323D01*
X007197Y004113D01*
X007669Y004113D01*
X008003Y004447D01*
X008003Y004919D01*
X007669Y005253D01*
X007197Y005253D01*
X006987Y005043D01*
X006692Y005043D01*
X006482Y005253D01*
X006137Y005253D01*
X008512Y007628D01*
X008614Y007729D01*
X008668Y007862D01*
X008668Y008987D01*
X008668Y009130D01*
X008614Y009262D01*
X008073Y009802D01*
X008073Y010451D01*
X008037Y010539D01*
X007969Y010607D01*
X007953Y010613D01*
X007953Y010819D01*
X008676Y011542D01*
X008731Y011674D01*
X008731Y011817D01*
X008731Y013113D01*
X008997Y013113D01*
X009115Y013162D01*
X009205Y013252D01*
X009613Y013661D01*
X009613Y013447D01*
X009947Y013113D01*
X010286Y013113D01*
X009412Y012240D01*
X009363Y012122D01*
X009363Y011995D01*
X009363Y010870D01*
X009412Y010752D01*
X009502Y010662D01*
X009502Y010662D01*
X010002Y010162D01*
X010120Y010113D01*
X010247Y010113D01*
X011551Y010113D01*
X011731Y009933D02*
X010749Y009933D01*
X010933Y010113D02*
X010933Y009749D01*
X011249Y009433D02*
X012231Y009433D01*
X012145Y009302D02*
X012104Y009313D01*
X011883Y009313D01*
X011883Y008754D01*
X011803Y008754D01*
X011803Y009313D01*
X011582Y009313D01*
X011541Y009302D01*
X011505Y009281D01*
X011475Y009251D01*
X011454Y009215D01*
X011443Y009174D01*
X011443Y008753D01*
X011803Y008753D01*
X011803Y008673D01*
X011883Y008673D01*
X011883Y008113D01*
X012104Y008113D01*
X012145Y008124D01*
X012181Y008145D01*
X012211Y008175D01*
X012232Y008212D01*
X012243Y008252D01*
X012243Y008673D01*
X011883Y008673D01*
X011883Y008753D01*
X012243Y008753D01*
X012243Y009174D01*
X012232Y009215D01*
X012211Y009251D01*
X012181Y009281D01*
X012145Y009302D01*
X011933Y009313D02*
X011933Y009731D01*
X012433Y009231D02*
X012433Y006543D01*
X012933Y006739D02*
X012933Y008731D01*
X012731Y008933D02*
X012243Y008933D01*
X011933Y008753D02*
X011933Y008673D01*
X011803Y008673D02*
X011803Y008113D01*
X011582Y008113D01*
X011541Y008124D01*
X011505Y008145D01*
X011475Y008175D01*
X011454Y008212D01*
X011443Y008252D01*
X011443Y008673D01*
X011803Y008673D01*
X011803Y008433D02*
X011883Y008433D01*
X012243Y008433D02*
X013231Y008433D01*
X013433Y008231D02*
X013433Y006739D01*
X013488Y006933D02*
X010384Y006933D01*
X010384Y006433D02*
X011924Y006433D01*
X011933Y006442D02*
X011933Y008113D01*
X011443Y008433D02*
X011413Y008433D01*
X011413Y008933D02*
X011443Y008933D01*
X011803Y008933D02*
X011883Y008933D01*
X010933Y008033D02*
X010933Y006134D01*
X010433Y006134D02*
X010433Y008104D01*
X010384Y007933D02*
X013488Y007933D01*
X013808Y008308D02*
X011683Y010433D01*
X010183Y010433D01*
X009683Y010933D01*
X009683Y012058D01*
X011433Y013808D01*
X011433Y019433D01*
X010808Y019308D02*
X011558Y020058D01*
X017308Y020058D01*
X020433Y023183D01*
X021058Y022683D02*
X021058Y018683D01*
X020738Y018933D02*
X018323Y018933D01*
X018433Y018823D02*
X018433Y020231D01*
X018636Y020433D02*
X020738Y020433D01*
X020738Y019933D02*
X018136Y019933D01*
X017933Y019731D02*
X017933Y019128D01*
X017636Y019433D02*
X020738Y019433D01*
X020433Y018503D02*
X020433Y022231D01*
X020636Y022433D02*
X020738Y022433D01*
X020738Y021933D02*
X020136Y021933D01*
X019933Y021731D02*
X019933Y018503D01*
X019793Y018433D02*
X018823Y018433D01*
X018933Y018323D02*
X018933Y020731D01*
X019136Y020933D02*
X020738Y020933D01*
X020738Y021433D02*
X019636Y021433D01*
X019433Y021231D02*
X019433Y018073D01*
X019308Y017496D02*
X018227Y016414D01*
X018227Y014914D01*
X017371Y014058D01*
X017433Y013578D02*
X017433Y013503D01*
X016933Y013503D02*
X016933Y013817D01*
X016891Y013933D02*
X015636Y013933D01*
X015433Y014136D02*
X015433Y014863D01*
X015933Y014863D02*
X015933Y013636D01*
X015231Y013433D02*
X014739Y013433D01*
X014933Y013731D02*
X014933Y012879D01*
X014433Y012879D02*
X014433Y013127D01*
X013933Y013127D02*
X013933Y012732D01*
X014290Y012452D02*
X014290Y011577D01*
X014683Y011183D01*
X015933Y011183D01*
X016933Y010183D01*
X016433Y009877D02*
X016433Y006489D01*
X016377Y006433D02*
X016239Y006433D01*
X015933Y006739D02*
X015933Y009627D01*
X016239Y009933D02*
X016377Y009933D01*
X016933Y009613D02*
X016933Y006753D01*
X015433Y006739D02*
X015433Y009509D01*
X015358Y009433D02*
X018481Y009433D01*
X019433Y008863D02*
X019433Y006753D01*
X019933Y006543D02*
X019933Y008863D01*
X020433Y008683D02*
X020433Y008684D01*
X020255Y007933D02*
X015358Y007933D01*
X014758Y007933D02*
X014128Y007933D01*
X013808Y008308D02*
X013808Y005558D01*
X013183Y004933D01*
X013753Y004933D02*
X013990Y004933D01*
X014608Y004933D02*
X016424Y004933D01*
X016433Y004924D02*
X016433Y004187D01*
X016933Y004145D02*
X016933Y004573D01*
X017433Y004573D02*
X017433Y004240D01*
X017933Y004133D02*
X017933Y004573D01*
X018433Y004573D02*
X018433Y004192D01*
X018654Y003933D02*
X018823Y003933D01*
X018674Y004433D02*
X014590Y004433D01*
X014933Y004218D02*
X014933Y005259D01*
X015108Y005433D02*
X015924Y005433D01*
X015933Y005424D02*
X015933Y004240D01*
X015433Y004070D02*
X015433Y005627D01*
X014434Y005933D02*
X014433Y005933D01*
X014433Y006433D02*
X014434Y006433D01*
X014128Y006933D02*
X014758Y006933D01*
X015358Y006933D02*
X020323Y006933D01*
X020255Y007433D02*
X015358Y007433D01*
X014758Y007433D02*
X014128Y007433D01*
X013488Y007433D02*
X010384Y007433D01*
X008783Y007933D02*
X008668Y007933D01*
X008433Y007549D02*
X008433Y007249D01*
X008317Y007433D02*
X008618Y007433D01*
X008118Y006933D02*
X007817Y006933D01*
X007933Y007049D02*
X007933Y004989D01*
X007989Y004933D02*
X008033Y004933D01*
X008033Y004433D02*
X007989Y004433D01*
X007933Y004377D02*
X007933Y002999D01*
X007868Y002933D02*
X007677Y002933D01*
X007433Y002690D02*
X007433Y002583D01*
X006933Y002583D02*
X006933Y002690D01*
X006433Y002583D02*
X006433Y002934D01*
X006435Y002933D02*
X003677Y002933D01*
X003753Y003010D02*
X003419Y002676D01*
X002947Y002676D01*
X002613Y003010D01*
X002613Y003482D01*
X002947Y003816D01*
X003419Y003816D01*
X003753Y003482D01*
X003753Y003010D01*
X003753Y003433D02*
X005924Y003433D01*
X005933Y003424D02*
X005933Y002583D01*
X005433Y002583D02*
X005433Y003924D01*
X005424Y003933D02*
X000713Y003933D01*
X000933Y003709D02*
X000933Y004722D01*
X000979Y004613D02*
X001213Y004379D01*
X001518Y004252D01*
X001849Y004252D01*
X002154Y004379D01*
X002388Y004613D01*
X002515Y004918D01*
X002515Y005249D01*
X002388Y005554D01*
X002154Y005788D01*
X001849Y005915D01*
X001518Y005915D01*
X001213Y005788D01*
X000979Y005554D01*
X000852Y005249D01*
X000852Y004918D01*
X000979Y004613D01*
X001158Y004433D02*
X000713Y004433D01*
X000713Y004933D02*
X000852Y004933D01*
X000929Y005433D02*
X000713Y005433D01*
X000933Y005445D02*
X000933Y008243D01*
X000713Y007933D02*
X004323Y007933D01*
X004323Y007433D02*
X000713Y007433D01*
X000713Y006933D02*
X002687Y006933D01*
X003167Y006680D02*
X003189Y006658D01*
X002687Y006433D02*
X000713Y006433D01*
X000713Y005933D02*
X002789Y005933D01*
X002789Y005433D02*
X002438Y005433D01*
X002433Y005445D02*
X002433Y010118D01*
X002249Y009933D02*
X003243Y009933D01*
X003433Y009743D02*
X003433Y007329D01*
X002933Y007342D02*
X002933Y010017D01*
X002248Y009433D02*
X003743Y009433D01*
X003933Y009243D02*
X003933Y007080D01*
X004680Y006680D02*
X004683Y006683D01*
X005163Y006433D02*
X006299Y006433D01*
X006433Y006567D02*
X006433Y008113D01*
X006802Y008433D02*
X006990Y008433D01*
X006943Y008480D02*
X007230Y008193D01*
X007433Y008193D01*
X007433Y008683D01*
X006943Y008683D01*
X006943Y008480D01*
X006943Y008684D02*
X007433Y008684D01*
X007433Y009173D01*
X007230Y009173D01*
X006943Y008886D01*
X006943Y008684D01*
X006991Y008933D02*
X006802Y008933D01*
X007433Y008933D02*
X007434Y008933D01*
X007434Y009173D02*
X007434Y008684D01*
X007433Y008684D01*
X007433Y009283D01*
X007434Y009173D02*
X007636Y009173D01*
X007923Y008886D01*
X007923Y008684D01*
X007434Y008684D01*
X007434Y008683D01*
X007923Y008683D01*
X007923Y008480D01*
X007636Y008193D01*
X007434Y008193D01*
X007434Y008683D01*
X007433Y008683D01*
X007433Y008684D01*
X007433Y008683D02*
X007433Y007567D01*
X007299Y007433D02*
X005043Y007433D01*
X005043Y007933D02*
X007799Y007933D01*
X007933Y008067D02*
X007933Y008924D01*
X007924Y008933D02*
X007876Y008933D01*
X007876Y008433D02*
X007948Y008433D01*
X007434Y008433D02*
X007433Y008433D01*
X006985Y009374D02*
X007022Y009395D01*
X007051Y009425D01*
X007072Y009462D01*
X007083Y009502D01*
X007083Y009923D01*
X006724Y009923D01*
X006724Y010003D01*
X007083Y010003D01*
X007083Y010424D01*
X007072Y010465D01*
X007051Y010502D01*
X007022Y010531D01*
X006985Y010552D01*
X006944Y010563D01*
X006723Y010563D01*
X006723Y010004D01*
X006643Y010004D01*
X006643Y010563D01*
X006422Y010563D01*
X006382Y010552D01*
X006345Y010531D01*
X006315Y010502D01*
X006294Y010465D01*
X006283Y010424D01*
X006283Y010003D01*
X006643Y010003D01*
X006643Y009923D01*
X006723Y009923D01*
X006723Y009363D01*
X006944Y009363D01*
X006985Y009374D01*
X006933Y009363D02*
X006933Y007067D01*
X006799Y006933D02*
X005163Y006933D01*
X004933Y006027D02*
X004933Y002583D01*
X004433Y002583D02*
X004433Y004530D01*
X004433Y004938D02*
X004433Y004939D01*
X004664Y004933D02*
X005198Y004933D01*
X005198Y004433D02*
X003420Y004433D01*
X003433Y004439D02*
X003433Y003802D01*
X002933Y003802D02*
X002933Y004444D01*
X002958Y004433D02*
X002209Y004433D01*
X001933Y004287D02*
X001933Y003709D01*
X002248Y003433D02*
X002613Y003433D01*
X002690Y002933D02*
X002248Y002933D01*
X002433Y002583D02*
X002433Y004722D01*
X002515Y004933D02*
X002634Y004933D01*
X003589Y005433D02*
X005299Y005433D01*
X005433Y005567D02*
X005433Y008424D01*
X005442Y008433D02*
X005690Y008433D01*
X005933Y008190D02*
X005933Y006067D01*
X005799Y005933D02*
X003589Y005933D01*
X003933Y006280D02*
X003933Y005340D01*
X004189Y004933D02*
X004189Y004933D01*
X004433Y005347D02*
X004433Y006027D01*
X006317Y005433D02*
X008033Y005433D01*
X008033Y005933D02*
X006817Y005933D01*
X006933Y006049D02*
X006933Y005043D01*
X006433Y005253D02*
X006433Y005549D01*
X007433Y005253D02*
X007433Y006549D01*
X007317Y006433D02*
X008033Y006433D01*
X008668Y008433D02*
X008783Y008433D01*
X008783Y008933D02*
X008668Y008933D01*
X008868Y009433D02*
X008442Y009433D01*
X008433Y009442D02*
X008433Y011299D01*
X008567Y011433D02*
X009363Y011433D01*
X009363Y010933D02*
X008067Y010933D01*
X008073Y010433D02*
X009731Y010433D01*
X009933Y010231D02*
X009933Y010083D01*
X009433Y009999D02*
X009433Y010731D01*
X009368Y009933D02*
X008073Y009933D01*
X007683Y009873D02*
X007683Y009683D01*
X007683Y009873D02*
X007593Y009963D01*
X007113Y009933D02*
X006724Y009933D01*
X006643Y009933D02*
X006253Y009933D01*
X006283Y009923D02*
X006283Y009502D01*
X006294Y009462D01*
X006315Y009425D01*
X006345Y009395D01*
X006382Y009374D01*
X006422Y009363D01*
X006643Y009363D01*
X006643Y009923D01*
X006283Y009923D01*
X006433Y009923D02*
X006433Y010003D01*
X006933Y010003D02*
X006933Y009923D01*
X007056Y009433D02*
X007131Y009433D01*
X006723Y009433D02*
X006643Y009433D01*
X006433Y009363D02*
X006433Y009253D01*
X006311Y009433D02*
X006236Y009433D01*
X005773Y009963D02*
X005773Y010968D01*
X005433Y011308D01*
X005433Y012683D01*
X007590Y014808D01*
X008808Y014808D01*
X009933Y015933D01*
X009183Y015683D02*
X009183Y016683D01*
X010808Y018308D01*
X010808Y019308D01*
X011927Y018927D02*
X012683Y019683D01*
X017433Y019683D01*
X021433Y023683D01*
X023058Y023683D01*
X024933Y021808D01*
X024933Y019933D01*
X025683Y019183D01*
X025433Y018703D02*
X025433Y018663D01*
X025027Y018433D02*
X024878Y018433D01*
X024878Y017933D02*
X025027Y017933D01*
X025433Y017703D02*
X025433Y017583D01*
X025404Y017583D02*
X025327Y017568D01*
X025254Y017538D01*
X025188Y017494D01*
X025133Y017438D01*
X025089Y017373D01*
X025059Y017300D01*
X025043Y017223D01*
X025043Y017184D01*
X025683Y017184D01*
X025683Y017583D01*
X025404Y017583D01*
X025684Y017583D02*
X025684Y017184D01*
X025683Y017184D01*
X025683Y017183D01*
X025684Y017183D01*
X025684Y017184D01*
X026323Y017184D01*
X026323Y017223D01*
X026308Y017300D01*
X026278Y017373D01*
X026234Y017438D01*
X026178Y017494D01*
X026113Y017538D01*
X026040Y017568D01*
X025963Y017583D01*
X025684Y017583D01*
X025683Y017433D02*
X025684Y017433D01*
X025683Y017183D02*
X025043Y017183D01*
X025043Y017144D01*
X025059Y017067D01*
X025089Y016994D01*
X025133Y016928D01*
X025188Y016873D01*
X025254Y016829D01*
X025327Y016799D01*
X025404Y016783D01*
X025683Y016783D01*
X025683Y017183D01*
X025684Y017183D02*
X025684Y016783D01*
X025963Y016783D01*
X026040Y016799D01*
X026113Y016829D01*
X026178Y016873D01*
X026234Y016928D01*
X026278Y016994D01*
X026308Y017067D01*
X026323Y017144D01*
X026323Y017183D01*
X025684Y017183D01*
X025933Y017183D02*
X025933Y017184D01*
X025684Y016933D02*
X025683Y016933D01*
X025433Y016783D02*
X025433Y016663D01*
X025129Y016933D02*
X024878Y016933D01*
X025433Y017183D02*
X025433Y017184D01*
X025129Y017433D02*
X024878Y017433D01*
X025933Y017583D02*
X025933Y017703D01*
X026237Y017433D02*
X026630Y017433D01*
X026933Y017663D02*
X026933Y017783D01*
X026893Y017783D02*
X026658Y018018D01*
X026658Y018183D01*
X027058Y018183D01*
X027058Y018184D01*
X027058Y018583D01*
X026893Y018583D01*
X026658Y018349D01*
X026658Y018184D01*
X027058Y018184D01*
X027059Y018184D01*
X027059Y018583D01*
X027224Y018583D01*
X027458Y018349D01*
X027458Y018184D01*
X027059Y018184D01*
X027059Y018183D01*
X027458Y018183D01*
X027458Y018018D01*
X027224Y017783D01*
X027059Y017783D01*
X027059Y018183D01*
X027058Y018183D01*
X027058Y017783D01*
X026893Y017783D01*
X026743Y017933D02*
X026339Y017933D01*
X026386Y018433D02*
X026743Y018433D01*
X026933Y018583D02*
X026933Y018981D01*
X026886Y018933D02*
X027613Y018933D01*
X027613Y018433D02*
X027374Y018433D01*
X027433Y018374D02*
X027433Y019481D01*
X027386Y019433D02*
X027613Y019433D01*
X027365Y019412D02*
X027365Y019412D01*
X027183Y019683D02*
X025683Y018183D01*
X026433Y018481D02*
X026433Y016386D01*
X026481Y016433D02*
X026339Y016433D01*
X025933Y016663D02*
X025933Y016783D01*
X026237Y016933D02*
X026630Y016933D01*
X027433Y017487D02*
X027433Y017993D01*
X027374Y017933D02*
X027613Y017933D01*
X027433Y018183D02*
X027433Y018184D01*
X027059Y018433D02*
X027058Y018433D01*
X026933Y018184D02*
X026933Y018183D01*
X027058Y017933D02*
X027059Y017933D01*
X025027Y018933D02*
X024878Y018933D01*
X024878Y019433D02*
X024981Y019433D01*
X024933Y019481D02*
X024933Y016386D01*
X024886Y016433D02*
X025027Y016433D01*
X023363Y016433D02*
X023237Y016433D01*
X023234Y016438D02*
X023178Y016494D01*
X023113Y016538D01*
X023040Y016568D01*
X022963Y016583D01*
X022684Y016583D01*
X022684Y016184D01*
X022683Y016184D01*
X022683Y016583D01*
X022404Y016583D01*
X022327Y016568D01*
X022254Y016538D01*
X022188Y016494D01*
X022133Y016438D01*
X022089Y016373D01*
X022059Y016300D01*
X022043Y016223D01*
X022043Y016184D01*
X022683Y016184D01*
X022683Y016183D01*
X022684Y016183D01*
X022684Y016184D01*
X023323Y016184D01*
X023323Y016223D01*
X023308Y016300D01*
X023278Y016373D01*
X023234Y016438D01*
X023323Y016183D02*
X022684Y016183D01*
X022684Y015783D01*
X022963Y015783D01*
X023040Y015799D01*
X023113Y015829D01*
X023178Y015873D01*
X023234Y015928D01*
X023278Y015994D01*
X023308Y016067D01*
X023323Y016144D01*
X023323Y016183D01*
X023363Y015933D02*
X023237Y015933D01*
X022933Y015783D02*
X022933Y015663D01*
X022683Y015783D02*
X022683Y016183D01*
X022043Y016183D01*
X022043Y016144D01*
X022059Y016067D01*
X022089Y015994D01*
X022133Y015928D01*
X022188Y015873D01*
X022254Y015829D01*
X022327Y015799D01*
X022404Y015783D01*
X022683Y015783D01*
X022683Y015933D02*
X022684Y015933D01*
X022433Y015783D02*
X022433Y015663D01*
X022129Y015933D02*
X021244Y015933D01*
X020933Y016144D02*
X020933Y017863D01*
X020708Y017496D02*
X020309Y017496D01*
X020309Y017496D01*
X020708Y017496D01*
X020708Y017433D02*
X021981Y017433D01*
X021933Y017481D02*
X021933Y015503D01*
X021433Y015503D02*
X021433Y017863D01*
X021683Y018183D02*
X022683Y017183D01*
X022027Y016933D02*
X019198Y016933D01*
X019433Y017016D02*
X019433Y016607D01*
X018933Y016617D02*
X018933Y016668D01*
X018750Y016433D02*
X018698Y016433D01*
X018750Y015933D02*
X018547Y015933D01*
X018933Y015750D02*
X018933Y015504D01*
X018863Y015433D02*
X018547Y015433D01*
X018778Y015349D02*
X018778Y015184D01*
X019178Y015184D01*
X019178Y015583D01*
X019013Y015583D01*
X018778Y015349D01*
X018778Y015183D02*
X018778Y015018D01*
X019013Y014783D01*
X019178Y014783D01*
X019178Y015183D01*
X018778Y015183D01*
X018933Y015183D02*
X018933Y015184D01*
X019178Y015184D02*
X019178Y015183D01*
X019179Y015183D01*
X019179Y015184D01*
X019178Y015184D01*
X019179Y015184D02*
X019179Y015583D01*
X019344Y015583D01*
X019578Y015349D01*
X019578Y015184D01*
X019179Y015184D01*
X019179Y015183D02*
X019578Y015183D01*
X019578Y015018D01*
X019344Y014783D01*
X019179Y014783D01*
X019179Y015183D01*
X019178Y014933D02*
X019179Y014933D01*
X018933Y014863D02*
X018933Y014504D01*
X018863Y014433D02*
X018198Y014433D01*
X018433Y014668D02*
X018433Y013478D01*
X018511Y013433D02*
X018750Y013433D01*
X018933Y013617D02*
X018933Y013863D01*
X018863Y013933D02*
X017851Y013933D01*
X017933Y014168D02*
X017933Y013503D01*
X018308Y013183D02*
X015933Y013183D01*
X015433Y013231D02*
X015433Y012732D01*
X016433Y013503D02*
X016433Y014981D01*
X016386Y014933D02*
X016971Y014933D01*
X017371Y014933D02*
X017371Y014933D01*
X017433Y015058D02*
X017433Y015059D01*
X017771Y014933D02*
X017793Y014933D01*
X017433Y014658D02*
X017433Y014573D01*
X017561Y015433D02*
X017907Y015433D01*
X018547Y014933D02*
X018863Y014933D01*
X019433Y014873D02*
X019433Y014494D01*
X019494Y014433D02*
X021056Y014433D01*
X020933Y014311D02*
X020933Y015056D01*
X021056Y014933D02*
X019494Y014933D01*
X019433Y015183D02*
X019433Y015184D01*
X019494Y015433D02*
X020328Y015433D01*
X020433Y015273D02*
X020433Y014094D01*
X020328Y013933D02*
X019494Y013933D01*
X019433Y013873D02*
X019433Y013607D01*
X019344Y013783D02*
X019578Y014018D01*
X019578Y014183D01*
X019179Y014183D01*
X019179Y014184D01*
X019178Y014184D01*
X019178Y014583D01*
X019013Y014583D01*
X018778Y014349D01*
X018778Y014184D01*
X019178Y014184D01*
X019178Y014183D01*
X018778Y014183D01*
X018778Y014018D01*
X019013Y013783D01*
X019178Y013783D01*
X019178Y014183D01*
X019179Y014183D01*
X019179Y013783D01*
X019344Y013783D01*
X019179Y013933D02*
X019178Y013933D01*
X019179Y014184D02*
X019578Y014184D01*
X019578Y014349D01*
X019344Y014583D01*
X019179Y014583D01*
X019179Y014184D01*
X018933Y014183D02*
X018933Y014184D01*
X019178Y014433D02*
X019179Y014433D01*
X019433Y014184D02*
X019433Y014183D01*
X019933Y013503D02*
X019933Y015863D01*
X020258Y016183D02*
X019178Y016183D01*
X019433Y015760D02*
X019433Y015494D01*
X019179Y015433D02*
X019178Y015433D01*
X020258Y016183D02*
X020808Y015633D01*
X021258Y015183D01*
X022683Y015183D01*
X022433Y014703D02*
X022433Y014663D01*
X022933Y014663D02*
X022933Y014703D01*
X023339Y014933D02*
X023363Y014933D01*
X023339Y015433D02*
X023363Y015433D01*
X022933Y016183D02*
X022933Y016184D01*
X022683Y016433D02*
X022684Y016433D01*
X022933Y016583D02*
X022933Y016703D01*
X023339Y016933D02*
X023363Y016933D01*
X022433Y016703D02*
X022433Y016583D01*
X022129Y016433D02*
X020461Y016433D01*
X020433Y016457D02*
X020433Y017096D01*
X020308Y017433D02*
X020309Y017433D01*
X020433Y017496D02*
X020433Y017496D01*
X019933Y017496D02*
X019933Y017496D01*
X019908Y017433D02*
X019788Y017433D01*
X019933Y017305D02*
X019933Y016503D01*
X018433Y017073D02*
X018433Y017918D01*
X018418Y017933D02*
X017661Y017933D01*
X017650Y018433D02*
X017918Y018433D01*
X017933Y018418D02*
X017933Y016542D01*
X017907Y016433D02*
X017503Y016433D01*
X017183Y016183D02*
X017183Y018121D01*
X016706Y017933D02*
X016581Y017933D01*
X016581Y018121D02*
X016184Y018121D01*
X016581Y018121D01*
X016433Y018121D02*
X016433Y018121D01*
X016184Y018121D02*
X016184Y018121D01*
X016183Y017933D02*
X016184Y017933D01*
X015933Y018121D02*
X015933Y018121D01*
X015786Y017933D02*
X015661Y017933D01*
X015933Y017723D02*
X015933Y017663D01*
X016362Y017433D02*
X016863Y017433D01*
X016433Y017723D02*
X016433Y015886D01*
X016481Y015933D02*
X016249Y015933D01*
X016333Y016018D02*
X016099Y015783D01*
X015934Y015783D01*
X015934Y016183D01*
X015934Y016184D01*
X016333Y016184D01*
X016333Y016349D01*
X016099Y016583D01*
X015934Y016583D01*
X015934Y016184D01*
X015933Y016184D01*
X015933Y016583D01*
X015768Y016583D01*
X015533Y016349D01*
X015533Y016184D01*
X015933Y016184D01*
X015933Y016703D01*
X015933Y016433D02*
X015934Y016433D01*
X015933Y016184D02*
X015933Y016183D01*
X015934Y016183D01*
X016333Y016183D01*
X016333Y016018D01*
X015934Y015933D02*
X015933Y015933D01*
X015933Y015783D02*
X015933Y016183D01*
X015533Y016183D01*
X015533Y016018D01*
X015768Y015783D01*
X015933Y015783D01*
X015933Y015503D02*
X015933Y016183D01*
X015618Y015933D02*
X013880Y015933D01*
X013933Y015987D02*
X013933Y015739D01*
X013433Y015487D02*
X013433Y013767D01*
X013418Y013933D02*
X013627Y013933D01*
X013418Y014433D02*
X013863Y014433D01*
X013627Y014933D02*
X013418Y014933D01*
X013418Y015433D02*
X013627Y015433D01*
X014433Y015739D02*
X014433Y016190D01*
X014677Y016433D02*
X015618Y016433D01*
X016249Y016433D02*
X016863Y016433D01*
X016863Y016933D02*
X016362Y016933D01*
X017503Y016933D02*
X018293Y016933D01*
X018793Y017433D02*
X017503Y017433D01*
X016717Y018433D02*
X016562Y018433D01*
X015805Y018433D02*
X015650Y018433D01*
X015433Y019128D02*
X015433Y019363D01*
X014933Y019363D02*
X014933Y019094D01*
X014433Y019363D02*
X014433Y018598D01*
X014650Y018433D02*
X014717Y018433D01*
X014706Y017933D02*
X014661Y017933D01*
X014543Y017433D02*
X014823Y017433D01*
X014933Y017174D02*
X014933Y015503D01*
X015433Y015503D02*
X015433Y016823D01*
X015174Y016933D02*
X014753Y016933D01*
X013823Y017433D02*
X012247Y017433D01*
X012247Y016933D02*
X013613Y016933D01*
X013433Y016505D02*
X013433Y019363D01*
X012933Y019363D02*
X012933Y016005D01*
X012862Y015933D02*
X012247Y015933D01*
X012247Y015433D02*
X012698Y015433D01*
X012698Y014933D02*
X012247Y014933D01*
X012247Y014433D02*
X012698Y014433D01*
X012698Y013933D02*
X012247Y013933D01*
X010933Y014933D02*
X010433Y014433D01*
X009933Y014433D01*
X008933Y013433D01*
X008371Y013433D01*
X007933Y013362D02*
X007933Y011817D01*
X008011Y011933D02*
X007632Y011933D01*
X007433Y011730D02*
X007433Y011317D01*
X007549Y011433D02*
X005761Y011433D01*
X005933Y011261D02*
X005933Y011730D01*
X006433Y011730D02*
X006433Y010563D01*
X006286Y010433D02*
X006253Y010433D01*
X006643Y010433D02*
X006723Y010433D01*
X006933Y010563D02*
X006933Y011730D01*
X007632Y012433D02*
X008011Y012433D01*
X008731Y012433D02*
X009606Y012433D01*
X009433Y012261D02*
X009433Y013481D01*
X009386Y013433D02*
X009627Y013433D01*
X009933Y013127D02*
X009933Y012761D01*
X010106Y012933D02*
X008731Y012933D01*
X008933Y013113D02*
X008933Y009499D01*
X010433Y010083D02*
X010433Y010113D01*
X010933Y011826D02*
X010933Y012145D01*
X010933Y012245D02*
X010933Y012245D01*
X011122Y012433D02*
X011122Y012433D01*
X011158Y012433D02*
X011159Y012433D01*
X011433Y012225D02*
X011433Y011826D01*
X011927Y012452D02*
X011927Y018927D01*
X012247Y018433D02*
X013717Y018433D01*
X013933Y018598D02*
X013933Y019363D01*
X013706Y017933D02*
X012247Y017933D01*
X010933Y015996D02*
X010183Y016746D01*
X010933Y015996D02*
X010933Y014933D01*
X009826Y014735D02*
X009752Y014705D01*
X009662Y014615D01*
X009662Y014615D01*
X009158Y014111D01*
X009158Y014121D01*
X009158Y014158D01*
X009147Y014232D01*
X009124Y014303D01*
X009090Y014370D01*
X009046Y014430D01*
X008993Y014483D01*
X008944Y014518D01*
X008990Y014537D01*
X009613Y015161D01*
X009613Y014947D01*
X009826Y014735D01*
X009627Y014933D02*
X009386Y014933D01*
X009433Y014981D02*
X009433Y014386D01*
X009481Y014433D02*
X009043Y014433D01*
X008933Y014121D02*
X008933Y014121D01*
X009158Y014121D02*
X008684Y014121D01*
X008684Y014121D01*
X009158Y014121D01*
X008683Y015183D02*
X007433Y015183D01*
X006933Y014683D01*
X006618Y014433D02*
X002567Y014433D01*
X002614Y014479D02*
X002614Y014479D01*
X002433Y014345D02*
X002433Y014083D01*
X002933Y014083D02*
X002933Y014799D01*
X003067Y014933D02*
X006533Y014933D01*
X006533Y015433D02*
X003567Y015433D01*
X003433Y015299D02*
X003433Y013999D01*
X003499Y013933D02*
X006246Y013933D01*
X006433Y014118D02*
X006433Y016128D01*
X006533Y015933D02*
X004062Y015933D01*
X003933Y015745D02*
X003933Y013499D01*
X003999Y013433D02*
X005739Y013433D01*
X005933Y013625D02*
X005933Y016272D01*
X005433Y016202D02*
X005433Y013133D01*
X005231Y012933D02*
X004499Y012933D01*
X004433Y012999D02*
X004433Y016202D01*
X004864Y016433D02*
X005003Y016433D01*
X004433Y016682D02*
X004432Y016683D01*
X004860Y016933D02*
X005006Y016933D01*
X005433Y017162D02*
X005433Y018183D01*
X004933Y018183D02*
X004933Y012499D01*
X004999Y012433D02*
X005113Y012433D01*
X005083Y011933D02*
X005113Y011933D01*
X005083Y011433D02*
X005113Y011433D01*
X005163Y010933D02*
X005356Y010933D01*
X005433Y010856D02*
X005433Y010622D01*
X005293Y010433D02*
X005163Y010433D01*
X004933Y010027D02*
X004933Y009374D01*
X004874Y009433D02*
X005311Y009433D01*
X005293Y009933D02*
X004374Y009933D01*
X004433Y009874D02*
X004433Y010027D01*
X004203Y010433D02*
X003874Y010433D01*
X003933Y010374D02*
X003933Y012368D01*
X003868Y012433D02*
X002283Y012433D01*
X001933Y012663D02*
X001933Y012703D01*
X002283Y012933D02*
X003368Y012933D01*
X003433Y012868D02*
X003433Y011329D01*
X003647Y010933D02*
X004203Y010933D01*
X004283Y011433D02*
X002283Y011433D01*
X002269Y011406D02*
X002307Y011480D01*
X002333Y011559D01*
X002346Y011642D01*
X002346Y011663D01*
X001466Y011663D01*
X001466Y011153D01*
X001857Y011153D01*
X001940Y011166D01*
X002019Y011192D01*
X002093Y011230D01*
X002161Y011279D01*
X002220Y011338D01*
X002269Y011406D01*
X001933Y011165D02*
X001933Y010749D01*
X002118Y010933D02*
X000713Y010933D01*
X000933Y011172D02*
X000933Y010209D01*
X000713Y010433D02*
X001618Y010433D01*
X001433Y010249D02*
X001433Y011663D01*
X001433Y011704D02*
X001433Y012663D01*
X001426Y012663D02*
X001466Y012663D01*
X001466Y012213D01*
X001466Y011704D01*
X001426Y011704D01*
X001426Y012213D01*
X001426Y012663D01*
X001426Y012433D02*
X001466Y012433D01*
X001466Y011933D02*
X001426Y011933D01*
X001933Y011703D02*
X001933Y011663D01*
X002283Y011933D02*
X004283Y011933D01*
X002933Y011342D02*
X002933Y013283D01*
X002433Y013283D02*
X002433Y011080D01*
X001466Y011433D02*
X001426Y011433D01*
X001933Y009157D02*
X001933Y009124D01*
X002157Y008933D02*
X004243Y008933D01*
X004433Y008743D02*
X004433Y008442D01*
X004424Y008433D02*
X002157Y008433D01*
X001933Y008243D02*
X001933Y005879D01*
X001433Y005879D02*
X001433Y008645D01*
X001395Y008433D02*
X001471Y008433D01*
X001933Y008645D02*
X001933Y008721D01*
X006093Y010933D02*
X007233Y010933D01*
X007113Y010433D02*
X007081Y010433D01*
X008731Y011933D02*
X009363Y011933D01*
X008011Y012933D02*
X007612Y012933D01*
X007433Y013076D02*
X007433Y013624D01*
X007160Y013933D02*
X007158Y013933D01*
X006933Y013712D02*
X006933Y013076D01*
X006650Y013433D02*
X007862Y013433D01*
X006433Y013220D02*
X006433Y013076D01*
X009205Y013252D02*
X009205Y013252D01*
X008683Y015183D02*
X009183Y015683D01*
X008238Y016433D02*
X007453Y016433D01*
X006983Y016683D02*
X006933Y016633D01*
X006432Y016682D02*
X006308Y016682D01*
X006310Y016683D01*
X006383Y016683D01*
X005933Y017094D02*
X005933Y017723D01*
X004433Y018183D02*
X004433Y017162D01*
X001501Y017933D02*
X001366Y017933D01*
X000855Y018507D02*
X000713Y018507D01*
X000713Y018666D02*
X000918Y018666D01*
X001049Y018824D02*
X000713Y018824D01*
X000713Y018983D02*
X001183Y018983D01*
X001183Y019141D02*
X000713Y019141D01*
X000713Y019300D02*
X001183Y019300D01*
X001183Y019459D02*
X000713Y019459D01*
X000713Y019617D02*
X001183Y019617D01*
X001183Y019776D02*
X000713Y019776D01*
X000713Y019934D02*
X001031Y019934D01*
X000909Y020093D02*
X000713Y020093D01*
X000713Y020251D02*
X000852Y020251D01*
X000933Y020433D02*
X000933Y020439D01*
X000874Y020568D02*
X000713Y020568D01*
X000713Y020433D02*
X001365Y020433D01*
X001183Y020410D02*
X000713Y020410D01*
X000713Y020727D02*
X000959Y020727D01*
X000933Y020692D02*
X000933Y023322D01*
X001933Y022887D02*
X001933Y020692D01*
X001933Y020439D02*
X001933Y020433D01*
X002433Y020433D02*
X002433Y023322D01*
X002479Y023433D02*
X008683Y023433D01*
X008183Y023433D02*
X018981Y023433D01*
X018933Y023386D02*
X018933Y025653D01*
X018433Y025653D02*
X018433Y022886D01*
X018481Y022933D02*
X008183Y022933D01*
X008683Y022933D02*
X002045Y022933D01*
X001039Y024215D02*
X000713Y024215D01*
X001433Y025653D02*
X001489Y025653D01*
X003433Y025653D02*
X003433Y020439D01*
X003501Y020433D02*
X008683Y020433D01*
X007933Y020433D02*
X007933Y025653D01*
X007433Y025653D02*
X007433Y020433D01*
X006933Y020433D02*
X006933Y025653D01*
X006433Y025653D02*
X006433Y020433D01*
X005933Y020433D02*
X005933Y025653D01*
X005433Y025653D02*
X005433Y020433D01*
X004933Y020433D02*
X004933Y025653D01*
X004433Y025653D02*
X004433Y020433D01*
X003933Y020433D02*
X003933Y020439D01*
X003933Y020692D02*
X003933Y025653D01*
X011433Y020433D02*
X016933Y020433D01*
X020558Y024058D01*
X025808Y024058D01*
X026683Y023183D01*
X026683Y021183D01*
X025683Y020183D01*
X027183Y019683D02*
X027183Y023183D01*
X025933Y024433D01*
X020433Y024433D01*
X016808Y020808D01*
X015933Y021128D02*
X015933Y025653D01*
X015433Y025653D02*
X015433Y021128D01*
X014933Y021128D02*
X014933Y025653D01*
X014433Y025653D02*
X014433Y021128D01*
X013933Y021128D02*
X013933Y025653D01*
X013433Y025653D02*
X013433Y021128D01*
X012933Y021128D02*
X012933Y025653D01*
X012433Y025653D02*
X012433Y021128D01*
X011933Y021128D02*
X011933Y025653D01*
X020433Y025653D02*
X020433Y024753D01*
X020933Y024753D02*
X020933Y025653D01*
X021433Y025653D02*
X021433Y024753D01*
X021933Y024753D02*
X021933Y025653D01*
X022433Y025653D02*
X022433Y024753D01*
X022933Y024753D02*
X022933Y025653D01*
X023433Y025653D02*
X023433Y024753D01*
X023933Y024753D02*
X023933Y025653D01*
X024433Y025653D02*
X024433Y024753D01*
X024933Y024753D02*
X024933Y025653D01*
X025433Y025653D02*
X025433Y024753D01*
X025933Y024753D02*
X025933Y025653D01*
X026433Y025653D02*
X026433Y024386D01*
X026386Y024433D02*
X026893Y024433D01*
X026933Y024498D02*
X026933Y024614D01*
X027271Y024433D02*
X027387Y024433D01*
X027387Y024498D02*
X027387Y024022D01*
X027626Y024022D01*
X027666Y024033D01*
X027703Y024054D01*
X027733Y024084D01*
X027754Y024120D01*
X027765Y024161D01*
X027765Y024498D01*
X027387Y024498D01*
X027433Y024498D02*
X027433Y024614D01*
X027387Y024933D02*
X027271Y024933D01*
X027765Y024433D02*
X028231Y024433D01*
X028433Y024603D02*
X028433Y025653D01*
X027933Y025653D02*
X027933Y024136D01*
X027731Y023933D02*
X026886Y023933D01*
X026933Y023886D02*
X026933Y024076D01*
X027433Y024022D02*
X027433Y023386D01*
X027386Y023433D02*
X027613Y023433D01*
X027613Y022933D02*
X027503Y022933D01*
X027503Y022433D02*
X027613Y022433D01*
X027613Y021933D02*
X027503Y021933D01*
X027503Y021433D02*
X027613Y021433D01*
X027613Y020933D02*
X027503Y020933D01*
X027503Y020433D02*
X027613Y020433D01*
X027613Y019933D02*
X027503Y019933D01*
X030183Y020933D02*
X030872Y021622D01*
X030872Y023060D01*
X031305Y022933D02*
X031306Y022933D01*
X031739Y023060D02*
X031739Y021239D01*
X031183Y020683D01*
X030933Y020370D02*
X030933Y020156D01*
X030910Y020179D02*
X030910Y020179D01*
X030870Y020433D02*
X030656Y020433D01*
X030636Y020933D02*
X030870Y020933D01*
X030933Y020996D02*
X030933Y021231D01*
X031136Y021433D02*
X031419Y021433D01*
X031419Y021933D02*
X031192Y021933D01*
X031192Y022433D02*
X031419Y022433D01*
X032058Y022433D02*
X033911Y022433D01*
X033433Y021712D02*
X033433Y021499D01*
X033411Y021521D02*
X033246Y021521D01*
X033246Y021121D01*
X033646Y021121D01*
X033646Y021287D01*
X033411Y021521D01*
X033499Y021433D02*
X033991Y021433D01*
X033933Y021536D02*
X033933Y020358D01*
X034089Y020643D02*
X034130Y020632D01*
X034308Y020632D01*
X034308Y021120D01*
X033991Y021120D01*
X033991Y020771D01*
X034002Y020730D01*
X034023Y020693D01*
X034053Y020664D01*
X034089Y020643D01*
X033991Y020933D02*
X033624Y020933D01*
X033646Y020955D02*
X033646Y021121D01*
X033246Y021121D01*
X033246Y021121D01*
X033246Y021121D01*
X033246Y021521D01*
X033080Y021521D01*
X032846Y021287D01*
X032846Y021121D01*
X033245Y021121D01*
X033245Y021121D01*
X032846Y021121D01*
X032846Y020955D01*
X033080Y020721D01*
X033246Y020721D01*
X033411Y020721D01*
X033646Y020955D01*
X033433Y021121D02*
X033433Y021121D01*
X033246Y021120D02*
X033246Y020721D01*
X033246Y021120D01*
X033246Y021120D01*
X033246Y020933D02*
X033246Y020933D01*
X033433Y020743D02*
X033433Y020601D01*
X033612Y020433D02*
X034836Y020433D01*
X034933Y020531D02*
X034933Y020552D01*
X034433Y020632D02*
X034433Y020161D01*
X035156Y019933D02*
X037113Y019933D01*
X037753Y019933D02*
X038073Y019933D01*
X038073Y019433D02*
X037753Y019433D01*
X037615Y019162D02*
X037615Y019162D01*
X037433Y018981D02*
X037433Y018567D01*
X037346Y018433D02*
X036886Y018433D01*
X036933Y018481D02*
X036933Y017739D01*
X037239Y017433D02*
X037323Y017433D01*
X037323Y017933D02*
X036386Y017933D01*
X036433Y017981D02*
X036433Y017739D01*
X036433Y018886D02*
X036433Y020627D01*
X036127Y020933D02*
X035706Y020933D01*
X035308Y021120D02*
X035308Y021620D01*
X035621Y021933D01*
X035746Y021933D01*
X035746Y021933D01*
X035746Y021996D01*
X036183Y022433D01*
X036183Y022433D01*
X035731Y022433D02*
X035706Y022433D01*
X035706Y022933D02*
X035863Y022933D01*
X037433Y022753D02*
X037433Y023322D01*
X037433Y022113D02*
X037433Y022011D01*
X037511Y021933D02*
X037863Y021933D01*
X037863Y022113D02*
X037863Y022113D01*
X037933Y021690D02*
X037933Y019067D01*
X037799Y018933D02*
X037386Y018933D01*
X036933Y019386D02*
X036933Y020627D01*
X037113Y020433D02*
X035596Y020433D01*
X035433Y020211D02*
X035433Y019469D01*
X035485Y019433D02*
X036981Y019433D01*
X036481Y018933D02*
X035612Y018933D01*
X035234Y019433D02*
X035235Y019433D01*
X034309Y020933D02*
X034308Y020933D01*
X033246Y021433D02*
X033246Y021433D01*
X032933Y021121D02*
X032933Y021121D01*
X031933Y023591D02*
X031933Y024613D01*
X030481Y024433D02*
X030386Y024433D01*
X030433Y024386D02*
X030433Y025653D01*
X029933Y025653D02*
X029933Y024628D01*
X030330Y024490D02*
X030330Y024490D01*
X029433Y024628D02*
X029433Y025653D01*
X028933Y025653D02*
X028933Y024628D01*
X022183Y022683D02*
X021683Y022183D01*
X017705Y019502D02*
X017705Y019502D01*
X017433Y019363D02*
X017433Y019128D01*
X016933Y019128D02*
X016933Y019363D01*
X016433Y019363D02*
X016433Y019128D01*
X015933Y019128D02*
X015933Y019363D01*
X013362Y016433D02*
X012247Y016433D01*
X008184Y018433D02*
X008183Y018433D01*
X001446Y014683D02*
X001446Y014683D01*
X012933Y012055D02*
X012933Y011942D01*
X012942Y011933D02*
X013970Y011933D01*
X013933Y012171D02*
X013933Y011192D01*
X014003Y011433D02*
X013692Y011433D01*
X013433Y011543D02*
X013433Y012002D01*
X012878Y010979D02*
X012878Y010979D01*
X014192Y010933D02*
X014481Y010933D01*
X014433Y010981D02*
X014433Y010753D01*
X014933Y010863D02*
X014933Y010489D01*
X014989Y010433D02*
X015127Y010433D01*
X015433Y010739D02*
X015433Y010863D01*
X016433Y011136D02*
X016433Y011323D01*
X016636Y010933D02*
X020424Y010933D01*
X020433Y010924D02*
X020433Y009816D01*
X020136Y009933D02*
X021424Y009933D01*
X021433Y009924D02*
X021433Y009816D01*
X021378Y009979D02*
X021378Y009979D01*
X020933Y009816D02*
X020933Y010424D01*
X020924Y010433D02*
X019989Y010433D01*
X019933Y010489D02*
X019933Y011323D01*
X019433Y011323D02*
X019433Y010753D01*
X018933Y010489D02*
X018933Y011323D01*
X018433Y011323D02*
X018433Y010739D01*
X018739Y010433D02*
X018877Y010433D01*
X019433Y010183D02*
X020121Y009496D01*
X023121Y009496D01*
X023121Y009496D01*
X021933Y009816D02*
X021933Y009823D01*
X024183Y009683D02*
X025683Y008183D01*
X026933Y008183D01*
X026933Y008663D02*
X026933Y008863D01*
X026433Y008863D02*
X026433Y008595D01*
X025933Y008503D02*
X025933Y008863D01*
X027433Y008863D02*
X027433Y008595D01*
X027589Y008433D02*
X029277Y008433D01*
X029433Y008595D02*
X029433Y009481D01*
X029386Y009433D02*
X030166Y009433D01*
X030933Y009400D02*
X030933Y008503D01*
X030904Y008933D02*
X031326Y008933D01*
X031433Y009094D02*
X031433Y009430D01*
X031441Y009433D02*
X031856Y009433D01*
X032298Y009423D02*
X031683Y008808D01*
X031433Y008523D02*
X031433Y008503D01*
X032246Y008183D02*
X029933Y008183D01*
X030433Y008595D02*
X030433Y008625D01*
X030433Y007771D02*
X030433Y007595D01*
X029933Y007663D02*
X029933Y007703D01*
X030933Y007863D02*
X030933Y007503D01*
X031433Y007503D02*
X031433Y007863D01*
X031933Y007863D02*
X031933Y007503D01*
X032433Y007503D02*
X032433Y007543D01*
X033479Y007888D02*
X033479Y010034D01*
X032888Y010034D02*
X032888Y009544D01*
X032683Y009340D01*
X032683Y008933D01*
X032298Y009423D02*
X032298Y010034D01*
X031725Y010052D02*
X031725Y010587D01*
X031921Y010587D01*
X031965Y010631D01*
X032053Y010667D01*
X032542Y010667D01*
X032593Y010646D01*
X032644Y010667D01*
X033133Y010667D01*
X033183Y010646D01*
X033234Y010667D01*
X033723Y010667D01*
X033774Y010646D01*
X033825Y010667D01*
X034314Y010667D01*
X034402Y010631D01*
X034445Y010587D01*
X034641Y010587D01*
X034641Y010052D01*
X034678Y010052D01*
X034678Y010587D01*
X034842Y010587D01*
X034782Y010613D01*
X034675Y010719D01*
X034617Y010858D01*
X034617Y010863D01*
X031566Y010863D01*
X031436Y010734D01*
X031436Y010636D01*
X031449Y010631D01*
X031493Y010587D01*
X031689Y010587D01*
X031689Y010052D01*
X031725Y010052D01*
X031725Y009933D02*
X031689Y009933D01*
X031116Y010034D02*
X031116Y010866D01*
X031433Y011183D01*
X034683Y011183D01*
X034996Y010933D02*
X035246Y010683D01*
X036683Y010683D01*
X037183Y010183D01*
X038191Y009933D02*
X039153Y009933D01*
X039153Y010433D02*
X038191Y010433D01*
X038191Y010933D02*
X039153Y010933D01*
X039153Y011433D02*
X038191Y011433D01*
X036933Y012503D02*
X036933Y013424D01*
X036924Y013433D02*
X035323Y013433D01*
X035433Y013448D02*
X035433Y013323D01*
X035933Y013448D02*
X035933Y012823D01*
X036433Y012503D02*
X036433Y013448D01*
X037442Y013933D02*
X039153Y013933D01*
X039153Y016433D02*
X039003Y016433D01*
X038933Y016739D02*
X038933Y017690D01*
X039003Y017933D02*
X039153Y017933D01*
X038933Y018302D02*
X038933Y021690D01*
X039003Y021933D02*
X039153Y021933D01*
X039153Y021433D02*
X038793Y021433D01*
X038793Y020933D02*
X039153Y020933D01*
X039153Y020433D02*
X038793Y020433D01*
X038793Y019933D02*
X039153Y019933D01*
X039153Y019433D02*
X038793Y019433D01*
X038771Y018933D02*
X039153Y018933D01*
X039153Y018433D02*
X038802Y018433D01*
X038677Y017433D02*
X039153Y017433D01*
X039153Y016933D02*
X038739Y016933D01*
X038433Y017003D02*
X038433Y017426D01*
X038190Y017433D02*
X038043Y017433D01*
X033988Y016433D02*
X030963Y016433D01*
X031433Y016613D02*
X031433Y011816D01*
X031933Y011816D02*
X031933Y016613D01*
X032433Y016613D02*
X032433Y011816D01*
X032933Y011816D02*
X032933Y016613D01*
X033433Y016613D02*
X033433Y011816D01*
X033933Y011816D02*
X033933Y016606D01*
X029433Y014055D02*
X029433Y013913D01*
X028933Y013800D02*
X028933Y014180D01*
X028766Y013433D02*
X028753Y013433D01*
X029246Y013433D02*
X030526Y012153D01*
X030245Y011433D02*
X029293Y011433D01*
X029386Y010933D02*
X030206Y010933D01*
X030089Y010433D02*
X029753Y010433D01*
X029433Y010433D02*
X029433Y009933D01*
X029433Y010433D02*
X028683Y011183D01*
X028683Y011183D01*
X029433Y010886D02*
X029433Y012793D01*
X029293Y012933D02*
X029003Y012933D01*
X029003Y012997D02*
X029003Y012997D01*
X027703Y012433D02*
X027663Y012433D01*
X026433Y012933D02*
X025683Y012183D01*
X026433Y012933D02*
X026433Y015371D01*
X023363Y014433D02*
X023339Y014433D01*
X022683Y014183D02*
X021258Y014183D01*
X020808Y013733D01*
X020258Y013183D01*
X019178Y013183D01*
X018308Y013183D02*
X019308Y012183D01*
X022683Y012183D01*
X021933Y014503D02*
X021933Y014863D01*
X021433Y014863D02*
X021433Y014503D01*
X022433Y016183D02*
X022433Y016184D01*
X017933Y011323D02*
X017933Y010739D01*
X017627Y010433D02*
X017489Y010433D01*
X017433Y010489D02*
X017433Y011323D01*
X016933Y011323D02*
X016933Y010753D01*
X015009Y009933D02*
X014989Y009933D01*
X014933Y009877D02*
X014933Y009858D01*
X013933Y009877D02*
X013933Y008636D01*
X014103Y008433D02*
X014758Y008433D01*
X014758Y008933D02*
X013636Y008933D01*
X013433Y009136D02*
X013433Y009740D01*
X013626Y009933D02*
X013877Y009933D01*
X013184Y009933D02*
X013183Y009933D01*
X012433Y005823D02*
X012433Y004145D01*
X012933Y005489D02*
X012933Y005627D01*
X008033Y003933D02*
X006442Y003933D01*
X006433Y003942D02*
X006433Y004113D01*
X006933Y004323D02*
X006933Y003802D01*
X007433Y003802D02*
X007433Y004113D01*
X007753Y003433D02*
X008033Y003433D01*
X008499Y002433D02*
X018784Y002433D01*
X019433Y001784D02*
X019433Y001478D01*
X019184Y001433D02*
X019183Y001433D01*
X018933Y001184D02*
X018933Y001183D01*
X008433Y000713D02*
X008433Y002368D01*
X003933Y002583D02*
X003933Y004537D01*
X001433Y004287D02*
X001433Y003740D01*
X002933Y002690D02*
X002933Y002583D01*
X003433Y002583D02*
X003433Y002690D01*
X031689Y010433D02*
X031725Y010433D01*
X031933Y010600D02*
X031933Y010863D01*
X032433Y010863D02*
X032433Y010667D01*
X032933Y010667D02*
X032933Y010863D01*
X033433Y010863D02*
X033433Y010667D01*
X033933Y010667D02*
X033933Y010863D01*
X034433Y010863D02*
X034433Y010600D01*
X034641Y010433D02*
X034678Y010433D01*
X034069Y010034D02*
X034069Y008298D01*
X035183Y007183D01*
X035753Y007622D02*
X035863Y007511D01*
X035863Y008013D01*
X035834Y007954D01*
X035793Y007899D01*
X035745Y007850D01*
X035689Y007810D01*
X035628Y007779D01*
X035563Y007757D01*
X035495Y007747D01*
X035202Y007747D01*
X035202Y008165D01*
X035165Y008165D01*
X035165Y007747D01*
X035073Y007747D01*
X035119Y007700D01*
X035563Y007700D01*
X035753Y007622D01*
X035819Y007933D02*
X035863Y007933D01*
X036183Y008183D02*
X036183Y005933D01*
X035683Y005433D01*
X034996Y005433D01*
X032246Y008183D01*
X033479Y007888D02*
X035183Y006183D01*
X036558Y005808D02*
X036558Y008433D01*
X035841Y009151D01*
X035841Y010034D01*
X035250Y010034D02*
X035250Y009116D01*
X036183Y008183D01*
X035433Y007747D02*
X035433Y007700D01*
X035202Y007933D02*
X035165Y007933D01*
X035165Y008202D02*
X035165Y008620D01*
X034872Y008620D01*
X034804Y008609D01*
X034739Y008588D01*
X034678Y008557D01*
X034622Y008517D01*
X034573Y008468D01*
X034533Y008412D01*
X034502Y008351D01*
X034494Y008326D01*
X034389Y008430D01*
X034389Y009431D01*
X034402Y009437D01*
X034445Y009480D01*
X034641Y009480D01*
X034641Y010015D01*
X034678Y010015D01*
X034678Y009480D01*
X034874Y009480D01*
X034917Y009437D01*
X034930Y009431D01*
X034930Y009053D01*
X034979Y008935D01*
X035069Y008845D01*
X035294Y008620D01*
X035202Y008620D01*
X035202Y008202D01*
X035165Y008202D01*
X035165Y008433D02*
X035202Y008433D01*
X034933Y008620D02*
X034933Y009045D01*
X034981Y008933D02*
X034389Y008933D01*
X034389Y008433D02*
X034548Y008433D01*
X034433Y008386D02*
X034433Y009468D01*
X034394Y009433D02*
X034925Y009433D01*
X034678Y009933D02*
X034641Y009933D01*
X035069Y008845D02*
X035069Y008845D01*
X037753Y020433D02*
X038073Y020433D01*
X038073Y020933D02*
X037753Y020933D01*
X037753Y021433D02*
X038073Y021433D01*
D44*
X035308Y021120D02*
X035308Y020496D01*
X034683Y019871D01*
X034683Y019871D01*
X034308Y019871D01*
X034152Y019715D01*
X034132Y019695D01*
X034132Y019265D01*
X034487Y019193D02*
X034612Y019068D01*
X035235Y019068D01*
X035568Y019068D01*
X035683Y019183D01*
X035602Y019265D01*
X035235Y019265D01*
X034880Y019422D02*
X034683Y019422D01*
X034683Y019871D01*
X034487Y019422D02*
X034487Y019193D01*
X034132Y018674D02*
X033880Y018674D01*
X033715Y018840D01*
X033590Y018840D01*
X032871Y018121D01*
X031683Y018121D01*
X030746Y019058D01*
X030746Y019933D01*
X030183Y020496D01*
X030183Y020933D01*
X029871Y021246D02*
X029996Y021371D01*
X029996Y023050D01*
X030006Y023060D01*
X029871Y021246D02*
X029871Y020433D01*
X030496Y019808D01*
X030496Y018871D01*
X030683Y018683D01*
X030683Y018683D01*
X031496Y017871D01*
X034371Y017871D01*
X034487Y017987D01*
X034487Y018320D01*
X034683Y018320D02*
X034683Y017871D01*
X034496Y017683D01*
X031683Y017683D01*
X031183Y017683D01*
X030683Y018183D01*
X028871Y017246D02*
X026683Y015058D01*
X026683Y012183D01*
X025683Y011183D01*
X034683Y016933D02*
X034880Y017130D01*
X034880Y018320D01*
X035235Y018674D02*
X035674Y018674D01*
X035683Y018683D01*
D45*
X035933Y018683D03*
X033652Y018371D03*
X032871Y018558D03*
X032902Y019058D03*
X033433Y019183D03*
X031683Y019683D03*
X032183Y020433D03*
X030683Y018183D03*
X029683Y017246D03*
X028871Y017246D03*
X028433Y013933D03*
X034433Y011496D03*
X034683Y011933D03*
X035183Y012558D03*
X035183Y013808D03*
X035433Y011183D03*
X034996Y010933D03*
X031683Y008808D03*
X030526Y008996D03*
X031683Y006683D03*
X025683Y007058D03*
X024183Y008433D03*
X023683Y008183D03*
X023183Y008183D03*
X014933Y011683D03*
X013058Y013683D03*
X014683Y014433D03*
X017808Y017808D03*
X015183Y018808D03*
X011433Y019433D03*
X011433Y020808D03*
X009933Y015933D03*
X008558Y015590D03*
X006933Y014683D03*
X004683Y009058D03*
X021058Y018683D03*
X020558Y022058D03*
X021058Y022683D03*
X020433Y023183D03*
X036933Y022058D03*
D46*
X010933Y009183D02*
X010933Y008713D01*
X010933Y009183D02*
X010433Y009683D01*
X009683Y009683D01*
X009183Y009183D01*
X009183Y007433D01*
X008433Y006683D01*
X008433Y002933D01*
X007683Y002183D01*
X001433Y002183D01*
X003189Y004939D02*
X003189Y006658D01*
X003167Y006680D02*
X004680Y006680D01*
X004683Y009058D02*
X003183Y010558D01*
X003183Y010663D02*
X003167Y010680D01*
X002430Y010680D01*
X001433Y009683D01*
X004683Y010683D02*
X004683Y012183D01*
X003183Y013683D01*
X001446Y013683D01*
X001446Y016683D02*
X004432Y016683D01*
X005433Y016682D02*
X006308Y016682D01*
X006933Y016633D02*
X006933Y014683D01*
X003433Y018371D02*
X001433Y018371D01*
D47*
X011927Y012452D02*
X011927Y012439D01*
X015058Y009558D02*
X015683Y010183D01*
X015058Y009558D02*
X015058Y005808D01*
X014290Y005040D01*
X014290Y003790D01*
X033652Y018371D02*
X033840Y018183D01*
X034183Y018183D01*
X034132Y018235D01*
X034132Y018477D01*
X034152Y019715D02*
X033746Y020121D01*
X033246Y020121D01*
D48*
X031183Y020683D03*
X030183Y020933D03*
X033933Y023683D03*
X034433Y024183D03*
X003683Y016058D03*
D49*
X002308Y014683D01*
X001446Y014683D01*
X003183Y010663D02*
X003183Y010558D01*
X005773Y009963D02*
X005773Y009273D01*
X004683Y008183D01*
X004683Y006683D01*
X005558Y005183D02*
X008308Y007933D01*
X008308Y009058D01*
X007683Y009683D01*
X007593Y009963D02*
X007593Y010968D01*
X008371Y011746D01*
X008371Y013433D01*
X007683Y014121D01*
X011927Y012439D02*
X013183Y011183D01*
X013433Y011183D01*
X014433Y010183D01*
X014933Y011683D02*
X020183Y011683D01*
X021683Y010183D01*
X022683Y010183D01*
X020683Y007683D02*
X020683Y006683D01*
X023403Y006683D01*
X021683Y005183D02*
X022213Y004653D01*
X023433Y004653D01*
X025683Y005883D02*
X030883Y005883D01*
X031683Y006683D01*
X032433Y006683D01*
X034683Y004433D01*
X036783Y004433D01*
X038283Y002933D01*
X032683Y004933D02*
X031683Y004933D01*
X028933Y002183D01*
X021433Y002183D02*
X021433Y002933D01*
X018933Y005433D01*
X017683Y005433D01*
X016933Y006183D01*
X016933Y004933D02*
X015683Y006183D01*
X016933Y004933D02*
X018683Y004933D01*
X019183Y004433D01*
X019183Y002183D01*
X019433Y006183D02*
X018183Y006183D01*
X019433Y006183D02*
X020183Y006183D01*
X020683Y006683D01*
X013183Y006183D02*
X012183Y006183D01*
X011774Y005774D01*
X010024Y005774D01*
X009183Y004933D01*
X010024Y005774D02*
X010024Y008713D01*
X005558Y005183D02*
X005558Y004308D01*
X006621Y003246D01*
X007183Y003246D01*
X007433Y004683D02*
X006246Y004683D01*
X013058Y013683D02*
X013058Y015621D01*
X014183Y016746D01*
X014183Y018121D01*
X015183Y018121D02*
X015183Y017433D01*
X015433Y017183D01*
X015933Y017183D01*
X030526Y010034D02*
X030526Y008996D01*
X035433Y011183D02*
X037183Y011183D01*
X038433Y012433D02*
X037058Y013808D01*
X035183Y013808D01*
X037183Y015183D02*
X038433Y016433D01*
X037683Y017183D01*
X037683Y018308D01*
X038433Y019058D01*
X038433Y021996D01*
X034808Y022746D02*
X034808Y023808D01*
X034433Y024183D01*
X033933Y023683D02*
X034308Y023308D01*
X034308Y022746D01*
D50*
X005933Y019371D02*
X002433Y019371D01*
X005933Y019371D02*
X006001Y019369D01*
X006068Y019364D01*
X006135Y019355D01*
X006202Y019342D01*
X006267Y019325D01*
X006332Y019306D01*
X006396Y019282D01*
X006458Y019255D01*
X006519Y019225D01*
X006577Y019192D01*
X006634Y019156D01*
X006689Y019116D01*
X006742Y019074D01*
X006793Y019028D01*
X006840Y018981D01*
X006886Y018930D01*
X006928Y018877D01*
X006968Y018822D01*
X007004Y018765D01*
X007037Y018707D01*
X007067Y018646D01*
X007094Y018584D01*
X007118Y018520D01*
X007137Y018455D01*
X007154Y018390D01*
X007167Y018323D01*
X007176Y018256D01*
X007181Y018189D01*
X007183Y018121D01*
M02*
