G75*
G70*
%OFA0B0*%
%FSLAX24Y24*%
%IPPOS*%
%LPD*%
%AMOC8*
5,1,8,0,0,1.08239X$1,22.5*
%
%ADD10R,0.0551X0.0748*%
%ADD11R,0.0709X0.0551*%
%ADD12R,0.0276X0.0591*%
%ADD13R,0.0984X0.0315*%
%ADD14R,0.0657X0.0315*%
%ADD15R,0.0315X0.0657*%
%ADD16R,0.1560X0.1560*%
%ADD17R,0.1250X0.1250*%
%ADD18R,0.0240X0.0870*%
%ADD19R,0.0276X0.0110*%
%ADD20R,0.0110X0.0276*%
%ADD21R,0.0480X0.0880*%
%ADD22R,0.1417X0.0866*%
%ADD23R,0.0480X0.0880*%
%ADD24R,0.0630X0.0460*%
%ADD25R,0.0460X0.0630*%
%ADD26R,0.0394X0.0787*%
D10*
X032526Y024202D03*
X027329Y024556D03*
D11*
X029534Y019044D03*
X031896Y019044D03*
D12*
X029573Y022902D03*
X029140Y023060D03*
X030006Y023060D03*
X030439Y023217D03*
X030872Y023060D03*
X031305Y023217D03*
X031739Y023060D03*
X032172Y023060D03*
D13*
X034159Y021933D03*
D14*
X035621Y021933D03*
D15*
X035308Y021120D03*
X034808Y021120D03*
X034308Y021120D03*
X034308Y022746D03*
X034808Y022746D03*
X035308Y022746D03*
D16*
X035183Y002933D03*
D17*
X032083Y002933D03*
X038283Y002933D03*
D18*
X024933Y004653D03*
X024433Y004653D03*
X023933Y004653D03*
X023433Y004653D03*
X023433Y006713D03*
X023933Y006713D03*
X024433Y006713D03*
X024933Y006713D03*
D19*
X034132Y018477D03*
X034132Y018674D03*
X034132Y018871D03*
X034132Y019068D03*
X034132Y019265D03*
X035235Y019265D03*
X035235Y019068D03*
X035235Y018871D03*
X035235Y018674D03*
X035235Y018477D03*
D20*
X034880Y018320D03*
X034683Y018320D03*
X034487Y018320D03*
X034487Y019422D03*
X034683Y019422D03*
X034880Y019422D03*
D21*
X007593Y009963D03*
X006683Y009963D03*
X005773Y009963D03*
D22*
X006683Y012403D03*
X010933Y011153D03*
D23*
X010024Y008713D03*
X010933Y008713D03*
X011843Y008713D03*
D24*
X025683Y006483D03*
X025683Y005883D03*
D25*
X006983Y016683D03*
X006383Y016683D03*
D26*
X030526Y016333D03*
X035841Y016333D03*
X035841Y010034D03*
X035250Y010034D03*
X034660Y010034D03*
X034069Y010034D03*
X033479Y010034D03*
X032888Y010034D03*
X032298Y010034D03*
X031707Y010034D03*
X031116Y010034D03*
X030526Y010034D03*
M02*
